<svg xmlns="http://www.w3.org/2000/svg" width="102" height="89" viewBox="0 0 102 89">
    <g fill="#4F8BE8" fill-rule="nonzero" opacity=".104" transform="translate(.988 .727)">
        <ellipse cx="71.965" cy="32.808" rx="9.422" ry="9.451"/>
        <path d="M100.5 30.9v3.083c-.063.038-.063.1-.063.164-.036.996-.14 1.988-.314 2.97a28.3 28.3 0 0 1-8.884 16.549 28.394 28.394 0 0 1-2.81 2.265 27.085 27.085 0 0 1-5.219 2.895 28.628 28.628 0 0 1-3.4 1.2c-1.293.365-2.61.642-3.94.831-.972.152-1.953.249-2.936.289a26.086 26.086 0 0 1-5.232-.3c-1.358-.212-2.7-.52-4.015-.919a31.026 31.026 0 0 1-6.11-2.668V86.9a.531.531 0 0 1-.527.529H43.711a.531.531 0 0 1-.527-.529V30.015a14.628 14.628 0 0 0-4.717-8.507 15.338 15.338 0 0 0-3.99-2.5 15.856 15.856 0 0 0-6.21-1.233h-.088a15.244 15.244 0 0 0-6.436 1.863 14.944 14.944 0 0 0-4.617 3.977 14.6 14.6 0 0 0-2.723 6.093v31.235a.531.531 0 0 1-.527.529H.527A.531.531 0 0 1 0 60.943V.529A.531.531 0 0 1 .527 0h13.349c.29.002.526.238.527.529v7.186c.389-.239.8-.478 1.2-.692a26.864 26.864 0 0 1 5.947-2.429 23.232 23.232 0 0 1 5.734-.856c.075 0 .176.025.226-.063h1.506c.05.076.125.063.2.063 1.132.016 2.26.122 3.375.315a35.535 35.535 0 0 1 8.067 2.366c.05.025.113.05.163.076a29.987 29.987 0 0 1 7.553 4.933c.948.867 1.83 1.805 2.635 2.806a26.438 26.438 0 0 1 3.049 4.732 29.3 29.3 0 0 1 2.058 5.374 35.211 35.211 0 0 1 1.092 5.449c.138 1.208.138 2.441.163 3.675v.088c.17 2.196.835 4.326 1.945 6.229a15.188 15.188 0 0 0 3.425 4.052 14.024 14.024 0 0 0 3.94 2.341c1.454.59 3 .921 4.567.982 1.175.04 2.35-.066 3.5-.315a14.973 14.973 0 0 0 3.94-1.384 14.449 14.449 0 0 0 6.173-6.066 14.883 14.883 0 0 0 1.644-5.424 14.59 14.59 0 0 0-.038-3.549 14.581 14.581 0 0 0-3.576-7.664 14.748 14.748 0 0 0-10.689-4.946c-.926-.008-1.85.072-2.76.239a14.155 14.155 0 0 0-5.345 2.1 20.477 20.477 0 0 0-2.534 2.014c-.251.227-.5.151-.577-.189a13.305 13.305 0 0 0-.816-2.379 29.092 29.092 0 0 0-2.61-5 27.516 27.516 0 0 0-2.923-3.687c-.4-.428-.489-.805.013-1.221a39.518 39.518 0 0 1 3.588-2.479c.06-.042.123-.08.188-.113A29.153 29.153 0 0 1 67.56 4.11c.943-.148 1.894-.24 2.848-.277a25.393 25.393 0 0 1 2.936.038c1.24.088 2.475.24 3.7.453a28.371 28.371 0 0 1 22.6 20.891c.013.038.025.088.038.126a28.7 28.7 0 0 1 .74 5.374c.011.055-.001.13.078.185z"/>
    </g>
</svg>
