<?xml version="1.0" encoding="UTF-8"?>
<svg width="71px" height="2362px" viewBox="0 0 71 2362" version="1.1" xmlns="http://www.w3.org/2000/svg" xmlns:xlink="http://www.w3.org/1999/xlink">
    <!-- Generator: Sketch 55.2 (78181) - https://sketchapp.com -->
    <title>Sprite</title>
    <desc>Created with Sketch.</desc>
    <defs>
        <linearGradient x1="68.2094797%" y1="65.434451%" x2="20.9821456%" y2="12.4913985%" id="linearGradient-1">
            <stop stop-color="#FF9E3F" offset="0%"></stop>
            <stop stop-color="#FFDF2A" offset="100%"></stop>
        </linearGradient>
        <linearGradient x1="28.3631301%" y1="24.4750686%" x2="77.2633845%" y2="90.499234%" id="linearGradient-2">
            <stop stop-color="#AAF368" offset="0%"></stop>
            <stop stop-color="#06E2AF" offset="100%"></stop>
        </linearGradient>
        <linearGradient x1="24.1812988%" y1="10.1020347%" x2="83.3680677%" y2="81.0656598%" id="linearGradient-3">
            <stop stop-color="#F093FB" offset="0%"></stop>
            <stop stop-color="#FF697D" offset="100%"></stop>
        </linearGradient>
        <linearGradient x1="19.0331585%" y1="8.47817033%" x2="80.3126224%" y2="87.4547858%" id="linearGradient-4">
            <stop stop-color="#FF897A" offset="0%"></stop>
            <stop stop-color="#EB4343" offset="100%"></stop>
        </linearGradient>
        <linearGradient x1="100%" y1="100%" x2="23.0629369%" y2="26.5139416%" id="linearGradient-5">
            <stop stop-color="#D372FF" offset="0%"></stop>
            <stop stop-color="#A73EFF" offset="100%"></stop>
        </linearGradient>
        <linearGradient x1="90.8790498%" y1="100%" x2="12.4750927%" y2="9.62400841%" id="linearGradient-6">
            <stop stop-color="#6B44FB" offset="0%"></stop>
            <stop stop-color="#FF8484" offset="100%"></stop>
        </linearGradient>
        <linearGradient x1="79.1685091%" y1="83.7048501%" x2="14.3860953%" y2="14.7427701%" id="linearGradient-7">
            <stop stop-color="#F12364" offset="0.0290329392%"></stop>
            <stop stop-color="#FF783E" offset="100%"></stop>
        </linearGradient>
        <linearGradient x1="17.790933%" y1="15.2085677%" x2="83.4058177%" y2="86.6132962%" id="linearGradient-8">
            <stop stop-color="#EEA849" offset="0%"></stop>
            <stop stop-color="#F46B45" offset="100%"></stop>
        </linearGradient>
        <linearGradient x1="11.1958476%" y1="24.6571254%" x2="93.881548%" y2="87.318506%" id="linearGradient-9">
            <stop stop-color="#00DBDE" offset="0%"></stop>
            <stop stop-color="#7C70EE" offset="100%"></stop>
        </linearGradient>
        <linearGradient x1="18.6781873%" y1="16.7780702%" x2="82.6567016%" y2="84.0103455%" id="linearGradient-10">
            <stop stop-color="#74E4DA" offset="0%"></stop>
            <stop stop-color="#24DD9C" offset="100%"></stop>
        </linearGradient>
    </defs>
    <g id="Sprite" stroke="none" stroke-width="1" fill="none" fill-rule="evenodd">
        <path d="M36,44 C29.372583,44 24,38.627417 24,32 C24,25.372583 29.372583,20 36,20 C42.627417,20 48,25.372583 48,32 C48,38.627417 42.627417,44 36,44 Z M36,37 C38.7614237,37 41,34.7614237 41,32 C41,29.2385763 38.7614237,27 36,27 C33.2385763,27 31,29.2385763 31,32 C31,34.7614237 33.2385763,37 36,37 Z M36.3641719,25.385712 L37.1867831,24.5631007 L36.4082546,23.2340694 C36.3672971,23.1641506 36.3090689,23.1059224 36.23915,23.0649649 C36.0136772,22.932886 35.7238243,23.0085967 35.5917454,23.2340694 L34.8132169,24.5631007 L35.6360571,25.385941 C35.757276,25.3793388 35.879362,25.3759947 36.002229,25.3759947 C36.1236673,25.3759947 36.2443426,25.3792615 36.3641719,25.385712 Z M35.6318307,38.6182855 L34.8132169,39.4368993 L35.5917454,40.7659306 C35.7238243,40.9914033 36.0136772,41.067114 36.23915,40.9350351 C36.3090689,40.8940776 36.3672971,40.8358494 36.4082546,40.7659306 L37.1867831,39.4368993 L36.3684008,38.618517 C36.247182,38.6251192 36.125096,38.6284633 36.002229,38.6284633 C35.8779339,38.6284633 35.7544381,38.625041 35.6318307,38.6182855 Z M42.618517,32.3684008 L43.4368993,33.1867831 L44.7659306,32.4082546 C44.8358494,32.3672971 44.8940776,32.3090689 44.9350351,32.23915 C45.067114,32.0136772 44.9914033,31.7238243 44.7659306,31.5917454 L43.4368993,30.8132169 L42.6182855,31.6318307 C42.625041,31.7544381 42.6284633,31.8779339 42.6284633,32.002229 C42.6284633,32.125096 42.6251192,32.247182 42.618517,32.3684008 Z M29.385941,31.6360571 L28.5631007,30.8132169 L27.2340694,31.5917454 C27.0085967,31.7238243 26.932886,32.0136772 27.0649649,32.23915 C27.1059224,32.3090689 27.1641506,32.3672971 27.2340694,32.4082546 L28.5631007,33.1867831 L29.385712,32.3641719 C29.3792615,32.2443426 29.3759947,32.1236673 29.3759947,32.002229 C29.3759947,31.879362 29.3793388,31.757276 29.385941,31.6360571 Z M39.6251731,26.4532352 L40.7462339,26.1528479 L40.7365241,24.6126087 C40.7360133,24.5315785 40.7147003,24.4520373 40.6746275,24.3816076 C40.5454018,24.1544875 40.2565265,24.0751285 40.0294064,24.2043542 L38.6906653,24.9660648 L38.9909377,26.0866966 C39.2095943,26.197387 39.4212837,26.3198441 39.6251731,26.4532352 Z M32.3731606,37.5472113 L31.2537661,37.8471521 L31.2634759,39.3873913 C31.2651232,39.6486959 31.4782878,39.8591897 31.7395924,39.8575424 C31.8206227,39.8570316 31.9001639,39.8357186 31.9705936,39.7956458 L33.3093347,39.0339352 L33.0097442,37.9158483 C32.790237,37.8045504 32.5777614,37.6813903 32.3731606,37.5472113 Z M41.5480592,35.630004 L41.8471521,36.7462339 L43.3873913,36.7365241 C43.4684215,36.7360133 43.5479627,36.7147003 43.6183924,36.6746275 C43.8455125,36.5454018 43.9248715,36.2565265 43.7956458,36.0294064 L43.0339352,34.6906653 L41.9184607,34.9895558 C41.8067127,35.2104301 41.6829595,35.4241988 41.5480592,35.630004 Z M30.4540827,28.3779898 L30.1528479,27.2537661 L28.6126087,27.2634759 C28.3513041,27.2651232 28.1408103,27.4782878 28.1424576,27.7395924 C28.1429684,27.8206227 28.1642814,27.9001639 28.2043542,27.9705936 L28.9660648,29.3093347 L30.0893108,29.0083618 C30.1995489,28.7910712 30.3214124,28.5806743 30.4540827,28.3779898 Z M41.9158483,29.0097442 L43.0339352,29.3093347 L43.7956458,27.9705936 C43.8357186,27.9001639 43.8570316,27.8206227 43.8575424,27.7395924 C43.8591897,27.4782878 43.6486959,27.2651232 43.3873913,27.2634759 L41.8471521,27.2537661 L41.5472113,28.3731606 C41.6813903,28.5777614 41.8045504,28.790237 41.9158483,29.0097442 Z M30.0866966,34.9909377 L28.9660648,34.6906653 L28.2043542,36.0294064 C28.0751285,36.2565265 28.1544875,36.5454018 28.3816076,36.6746275 C28.4520373,36.7147003 28.5315785,36.7360133 28.6126087,36.7365241 L30.1528479,36.7462339 L30.4532352,35.6251731 C30.3198441,35.4212837 30.197387,35.2095943 30.0866966,34.9909377 Z M38.9895558,37.9184607 L38.6906653,39.0339352 L40.0294064,39.7956458 C40.0998361,39.8357186 40.1793773,39.8570316 40.2604076,39.8575424 C40.5217122,39.8591897 40.7348768,39.6486959 40.7365241,39.3873913 L40.7462339,37.8471521 L39.630004,37.5480592 C39.4241988,37.6829595 39.2104301,37.8067127 38.9895558,37.9184607 Z M33.0083618,26.0893108 L33.3093347,24.9660648 L31.9705936,24.2043542 C31.7434735,24.0751285 31.4545982,24.1544875 31.3253725,24.3816076 C31.2852997,24.4520373 31.2639867,24.5315785 31.2634759,24.6126087 L31.2537661,26.1528479 L32.3779898,26.4540827 C32.5806743,26.3214124 32.7910712,26.1995489 33.0083618,26.0893108 Z" id="Astro-Icon" fill="url(#linearGradient-1)"></path>
        <path d="M36,88 C29.372583,88 24,82.627417 24,76 C24,69.372583 29.372583,64 36,64 C42.627417,64 48,69.372583 48,76 C48,82.627417 42.627417,88 36,88 Z M39.8896267,69.1428571 L32.1516226,69.1428571 C29.5529132,69.1428571 27.4285714,71.2253162 27.4285714,73.8181818 C27.4285714,76.4110475 29.5529132,78.4935065 32.1516226,78.4935065 C33.5541007,78.4935065 34.7090827,77.8810185 35.4928204,76.6968752 L36.5071796,76.6968752 C37.311542,77.8606023 38.4458993,78.4935065 39.8483774,78.4935065 C42.4470868,78.4935065 44.5714286,76.3906312 44.5714286,73.8181818 C44.5714286,71.2457324 42.4883361,69.1428571 39.8896267,69.1428571 Z M41.3676815,72.3466042 C42.2107728,73.1896956 42.2107728,74.5245902 41.3676815,75.3676815 C40.5245902,76.2107728 39.1896956,76.2107728 38.3466042,75.3676815 C37.5035129,74.5245902 37.5035129,73.1896956 38.3466042,72.3466042 C39.1896956,71.5035129 40.5245902,71.5035129 41.3676815,72.3466042 Z M34.2857143,73.8571429 C34.2857143,74.1762918 34.0349544,74.4270517 33.7158055,74.4270517 L32.712766,74.4270517 L32.712766,75.4300912 C32.712766,75.7492401 32.4620061,76 32.1428571,76 C31.8237082,76 31.5729483,75.7492401 31.5729483,75.4300912 L31.5729483,74.4270517 L30.5699088,74.4270517 C30.2507599,74.4270517 30,74.1762918 30,73.8571429 C30,73.5379939 30.2507599,73.287234 30.5699088,73.287234 L31.5729483,73.287234 L31.5729483,72.2841945 C31.5729483,71.9650456 31.8237082,71.7142857 32.1428571,71.7142857 C32.4620061,71.7142857 32.712766,71.9650456 32.712766,72.2841945 L32.712766,73.287234 L33.7158055,73.287234 C34.0349544,73.287234 34.2857143,73.5607903 34.2857143,73.8571429 Z M31.9185211,83.2192922 C34.1785125,85.4792836 37.8433231,85.4792836 40.1033145,83.2192922 C40.4670569,82.8555498 40.4670569,82.2936921 40.1033145,81.9299497 C39.9272046,81.7538398 39.6975494,81.6571429 39.4586433,81.6571429 C39.2197371,81.6571429 38.9900819,81.7538398 38.813972,81.9299497 C37.2811216,83.4628001 34.7671604,83.4628001 33.2078636,81.9299497 C32.8441212,81.5662073 32.2822635,81.5662073 31.9185211,81.9299497 C31.5547787,82.2936921 31.5547787,82.8555498 31.9185211,83.2192922 Z" id="Games-Icon" fill="url(#linearGradient-2)" fill-rule="nonzero"></path>
        <path d="M36,132 C29.3833729,132 24,126.616627 24,120 C24,113.383373 29.3833729,108 36,108 C42.6099762,108.007601 47.992399,113.390974 48,120 C48,126.616627 42.6166271,132 36,132 Z M29.7169719,116.235153 C29.786602,116.254495 29.8571993,116.264166 29.9287636,116.264166 C30.2836838,116.262232 30.5941182,116.021427 30.6840571,115.678112 C30.7759302,115.339632 30.9935243,115.058211 31.2981562,114.884135 C31.6018209,114.71006 31.954807,114.66364 32.2942539,114.755513 C32.7420143,114.877366 33.0959675,115.231319 33.2168531,115.676178 C33.3077591,116.029164 33.6268973,116.264166 33.976015,116.264166 C34.0398426,116.264166 34.1056044,116.256429 34.169432,116.239989 C34.3725199,116.187766 34.5427269,116.060111 34.6500734,115.880233 C34.7564527,115.700355 34.7864324,115.489531 34.7293743,115.266134 C34.3115936,113.734271 32.727508,112.826178 31.193711,113.244926 C30.2140537,113.511841 29.4394185,114.28551 29.17347,115.263233 C29.1154449,115.466321 29.1405891,115.678112 29.2431002,115.861858 C29.3465783,116.045605 29.513884,116.178095 29.7169719,116.235153 Z M37.8600923,116.234628 C37.9297224,116.25397 38.0003196,116.263641 38.0718839,116.263641 C38.4277713,116.261707 38.7382056,116.019936 38.8271774,115.678554 C38.9190505,115.340075 39.1366447,115.057686 39.4412765,114.88361 C39.7439742,114.709535 40.0988944,114.663115 40.4373743,114.754988 C40.8851347,114.876841 41.2390879,115.230794 41.3599735,115.674686 C41.411229,115.877774 41.5398513,116.047981 41.7197292,116.15436 C41.842549,116.226892 41.978908,116.264608 42.1172012,116.264608 C42.1819959,116.264608 42.2477577,116.255904 42.3125524,116.239464 C42.7313003,116.132117 42.9846766,115.704666 42.8724947,115.265609 C42.5301466,114.018069 41.388019,113.144791 40.0950261,113.142857 L40.094059,113.142857 C38.8000991,113.143824 37.6579715,114.017102 37.3156233,115.263675 C37.2585653,115.465796 37.2837095,115.678554 37.3862205,115.861334 C37.4896986,116.04508 37.6579715,116.17757 37.8600923,116.234628 Z M29.1428571,121.419467 C29.1428571,123.330559 29.8571039,125.126938 31.1524708,126.477734 C32.4478377,127.827749 34.1687611,128.571429 35.999626,128.571429 C39.7802725,128.569868 42.8556471,125.361045 42.8571429,121.419467 C42.8571429,120.732754 42.3268801,120 35.999626,120 C29.672372,120 29.1428571,120.732754 29.1428571,121.419467 Z" id="Funnies-Icon" fill="url(#linearGradient-3)"></path>
        <path d="M27.7551593,172.719134 L47.6758517,161.217917 C47.8878086,162.110791 48,163.042293 48,164 C48,170.627417 42.627417,176 36,176 C32.8069287,176 29.9051403,174.75287 27.7551593,172.719134 Z M27.1347428,172.087589 C25.979499,170.821978 25.091639,169.308112 24.5605269,167.635353 L44.8652572,155.912411 C46.020501,157.178022 46.908361,158.691888 47.4394731,160.364647 L27.1347428,172.087589 Z M24.3241483,166.782083 C24.1121914,165.889209 24,164.957707 24,164 C24,157.372583 29.372583,152 36,152 C39.1930713,152 42.0948597,153.24713 44.2448407,155.280866 L24.3241483,166.782083 Z M27.7771999,167.757693 L28.5195074,167.329121 C28.72449,167.210774 28.7947222,166.948664 28.6763755,166.743682 C28.5580287,166.538699 28.2959186,166.468467 28.090936,166.586814 L27.3486285,167.015385 C27.143646,167.133732 27.0734137,167.395842 27.1917605,167.600824 C27.3101072,167.805807 27.5722174,167.876039 27.7771999,167.757693 Z M30.7464299,166.043407 L31.4887374,165.614835 C31.6937199,165.496489 31.7639521,165.234378 31.6456054,165.029396 C31.5272587,164.824413 31.2651485,164.754181 31.060166,164.872528 L30.3178585,165.301099 C30.1128759,165.419446 30.0426437,165.681556 30.1609904,165.886539 C30.2793372,166.091521 30.5414473,166.161754 30.7464299,166.043407 Z M33.7156598,164.329121 L34.4579673,163.90055 C34.6629499,163.782203 34.7331821,163.520093 34.6148354,163.31511 C34.4964886,163.110128 34.2343785,163.039895 34.0293959,163.158242 L33.2870884,163.586814 C33.0821059,163.70516 33.0118737,163.96727 33.1302204,164.172253 C33.2485671,164.377236 33.5106773,164.447468 33.7156598,164.329121 Z M36.6848898,162.614835 L37.4271973,162.186264 C37.6321798,162.067917 37.7024121,161.805807 37.5840653,161.600824 C37.4657186,161.395842 37.2036084,161.32561 36.9986259,161.443956 L36.2563184,161.872528 C36.0513358,161.990875 35.9811036,162.252985 36.0994503,162.457967 C36.2177971,162.66295 36.4799073,162.733182 36.6848898,162.614835 Z M39.6541198,160.90055 L40.3964272,160.471978 C40.6014098,160.353631 40.671642,160.091521 40.5532953,159.886539 C40.4349485,159.681556 40.1728384,159.611324 39.9678558,159.729671 L39.2255483,160.158242 C39.0205658,160.276589 38.9503336,160.538699 39.0686803,160.743682 C39.187027,160.948664 39.4491372,161.018896 39.6541198,160.90055 Z M42.6233497,159.186264 L43.3656572,158.757693 C43.5706398,158.639346 43.640872,158.377236 43.5225252,158.172253 C43.4041785,157.96727 43.1420683,157.897038 42.9370858,158.015385 L42.1947783,158.443956 C41.9897957,158.562303 41.9195635,158.824413 42.0379103,159.029396 C42.156257,159.234378 42.4183672,159.304611 42.6233497,159.186264 Z M29.0629142,169.984615 L29.8052217,169.556044 C30.0102043,169.437697 30.0804365,169.175587 29.9620897,168.970604 C29.843743,168.765622 29.5816328,168.695389 29.3766503,168.813736 L28.6343428,169.242307 C28.4293602,169.360654 28.359128,169.622764 28.4774748,169.827747 C28.5958215,170.03273 28.8579317,170.102962 29.0629142,169.984615 Z M32.0321442,168.270329 L32.7744517,167.841758 C32.9794342,167.723411 33.0496664,167.461301 32.9313197,167.256318 C32.812973,167.051336 32.5508628,166.981104 32.3458802,167.09945 L31.6035728,167.528022 C31.3985902,167.646369 31.328358,167.908479 31.4467047,168.113461 C31.5650515,168.318444 31.8271616,168.388676 32.0321442,168.270329 Z M35.0013741,166.556044 L35.7436816,166.127472 C35.9486642,166.009125 36.0188964,165.747015 35.9005497,165.542033 C35.7822029,165.33705 35.5200927,165.266818 35.3151102,165.385165 L34.5728027,165.813736 C34.3678202,165.932083 34.2975879,166.194193 34.4159347,166.399176 C34.5342814,166.604158 34.7963916,166.67439 35.0013741,166.556044 Z M37.9706041,164.841758 L38.7129116,164.413186 C38.9178941,164.29484 38.9881263,164.03273 38.8697796,163.827747 C38.7514329,163.622764 38.4893227,163.552532 38.2843402,163.670879 L37.5420327,164.09945 C37.3370501,164.217797 37.2668179,164.479907 37.3851646,164.68489 C37.5035114,164.889872 37.7656215,164.960105 37.9706041,164.841758 Z M40.939834,163.127472 L41.6821415,162.698901 C41.8871241,162.580554 41.9573563,162.318444 41.8390096,162.113461 C41.7206628,161.908479 41.4585527,161.838246 41.2535701,161.956593 L40.5112626,162.385165 C40.3062801,162.503511 40.2360479,162.765622 40.3543946,162.970604 C40.4727413,163.175587 40.7348515,163.245819 40.939834,163.127472 Z M43.909064,161.413186 L44.6513715,160.984615 C44.856354,160.866268 44.9265863,160.604158 44.8082395,160.399176 C44.6898928,160.194193 44.4277826,160.123961 44.2228001,160.242307 L43.4804926,160.670879 C43.27551,160.789226 43.2052778,161.051336 43.3236245,161.256318 C43.4419713,161.461301 43.7040814,161.531533 43.909064,161.413186 Z" id="Cricket-Icon" fill="url(#linearGradient-4)" fill-rule="nonzero"></path>
        <path d="M36,220 C29.372583,220 24,214.627417 24,208 C24,201.372583 29.372583,196 36,196 C42.627417,196 48,201.372583 48,208 C48,214.627417 42.627417,220 36,220 Z M40.499541,204.713078 C40.9651381,204.624819 41.3021574,204.217912 41.3021574,203.744023 C41.3021574,203.699393 41.2976826,203.654876 41.2888002,203.611138 C41.2154099,203.249765 40.8629641,203.016308 40.5015904,203.089699 L35.8549699,204.033367 C35.3889178,204.128016 35.0539942,204.537796 35.0539942,205.013362 L35.0539942,210.80898 C34.6670554,210.619009 34.2328863,210.509155 33.7724781,210.509155 C32.162449,210.509155 30.8571429,211.814461 30.8571429,213.42449 C30.8571429,215.034519 32.162449,216.339825 33.7724781,216.339825 C35.3821574,216.339825 36.6871137,215.035219 36.6878134,213.425539 L36.6881633,205.435569 L40.499541,204.713078 Z M40.5016185,202.225113 C40.967435,202.130429 41.3021574,201.720823 41.3021574,201.245481 C41.3021574,201.20082 41.2976757,201.156272 41.2887796,201.112507 C41.21534,200.751209 40.8629159,200.517854 40.5016185,200.591294 L35.854883,201.53582 C35.3890665,201.630504 35.054344,202.04011 35.054344,202.515452 C35.054344,202.560113 35.0588257,202.60466 35.0677218,202.648426 C35.1411615,203.009724 35.4935855,203.243078 35.854883,203.169639 L40.5016185,202.225113 Z" id="Music-Icon" fill="url(#linearGradient-5)"></path>
        <path d="M36,264 C29.372583,264 24,258.627417 24,252 C24,245.372583 29.372583,240 36,240 C42.627417,240 48,245.372583 48,252 C48,258.627417 42.627417,264 36,264 Z M31.8240319,257.933621 L41.6870456,248.070607 C42.1043181,247.653335 42.1043181,246.976802 41.6870456,246.55953 C41.2697731,246.142257 40.5932406,246.142257 40.1759681,246.55953 L30.3129544,256.422543 C29.8956819,256.839816 29.8956819,257.516348 30.3129544,257.933621 C30.7302269,258.350893 31.4067594,258.350893 31.8240319,257.933621 Z M38.7945205,258.493151 C39.7931724,258.493151 40.6027397,257.683583 40.6027397,256.684932 C40.6027397,255.68628 39.7931724,254.876712 38.7945205,254.876712 C37.7958687,254.876712 36.9863014,255.68628 36.9863014,256.684932 C36.9863014,257.683583 37.7958687,258.493151 38.7945205,258.493151 Z M33.2054795,246 C32.2068276,246 31.3972603,246.809567 31.3972603,247.808219 C31.3972603,248.806871 32.2068276,249.616438 33.2054795,249.616438 C34.2041313,249.616438 35.0136986,248.806871 35.0136986,247.808219 C35.0136986,246.809567 34.2041313,246 33.2054795,246 Z" id="Deals-Icon" fill="url(#linearGradient-6)"></path>
        <path d="M36,308 C29.372583,308 24,302.627417 24,296 C24,289.372583 29.372583,284 36,284 C42.627417,284 48,289.372583 48,296 C48,302.627417 42.627417,308 36,308 Z M31.7142857,290 C30.7675119,290 30,290.767512 30,291.714286 L30,293.428571 C30,294.375345 30.7675119,295.142857 31.7142857,295.142857 L33.4285714,295.142857 C34.3753453,295.142857 35.1428571,294.375345 35.1428571,293.428571 L35.1428571,291.714286 C35.1428571,290.767512 34.3753453,290 33.4285714,290 L31.7142857,290 Z M37.7142857,291.714286 L41.1428571,291.714286 C41.6162441,291.714286 42,291.33053 42,290.857143 C42,290.383756 41.6162441,290 41.1428571,290 L37.7142857,290 C37.2408988,290 36.8571429,290.383756 36.8571429,290.857143 C36.8571429,291.33053 37.2408988,291.714286 37.7142857,291.714286 Z M37.7142857,295.142857 L41.1428571,295.142857 C41.6162441,295.142857 42,294.759101 42,294.285714 C42,293.812327 41.6162441,293.428571 41.1428571,293.428571 L37.7142857,293.428571 C37.2408988,293.428571 36.8571429,293.812327 36.8571429,294.285714 C36.8571429,294.759101 37.2408988,295.142857 37.7142857,295.142857 Z M30.8575989,298.571429 L41.1428571,298.571429 C41.6162441,298.571429 42,298.187673 42,297.714286 C42,297.240899 41.6162441,296.857143 41.1428571,296.857143 L30.8575989,296.857143 C30.384212,296.857143 30.000456,297.240899 30.000456,297.714286 C30.000456,298.187673 30.384212,298.571429 30.8575989,298.571429 Z M30.8575989,302 L41.1428571,302 C41.6162441,302 42,301.616244 42,301.142857 C42,300.66947 41.6162441,300.285714 41.1428571,300.285714 L30.8575989,300.285714 C30.384212,300.285714 30.000456,300.66947 30.000456,301.142857 C30.000456,301.616244 30.384212,302 30.8575989,302 Z" id="Combined-Shape" fill="url(#linearGradient-7)" fill-rule="nonzero"></path>
        <path d="M36,352 C29.372583,352 24,346.627417 24,340 C24,333.372583 29.372583,328 36,328 C42.627417,328 48,333.372583 48,340 C48,346.627417 42.627417,352 36,352 Z M34.5043978,340.395146 L33.7934477,341.2 L42.2653397,341.2 L42.2653397,343.865201 L39.2314156,343.865201 C39.0827238,343.865201 38.9621849,343.985976 38.9621849,344.134958 L38.9621849,345.318076 L37.6590407,343.949873 C37.6081728,343.895833 37.5373155,343.865201 37.4631775,343.865201 L29.7925171,343.865201 L29.7925171,341.2 L31.6923077,341.2 L31.6923077,340.395146 L29.2692308,340.395146 C29.1205389,340.395146 29,340.51592 29,340.664903 L29,344.441505 C29,344.590487 29.1205389,344.711262 29.2692308,344.711262 L37.2302715,344.711262 L39.3041368,346.914785 C39.4713269,347.092404 39.7692308,346.973852 39.7692308,346.7297 L39.7692308,344.711262 L42.7307692,344.711262 C42.8794611,344.711262 43,344.590487 43,344.441505 L43,340.664903 C43,340.51592 42.8794611,340.395146 42.7307692,340.395146 L34.5043978,340.395146 Z M29,335.269757 L29,339.046359 C29,339.195342 29.1205389,339.316116 29.2692308,339.316116 L32.2307692,339.316116 L32.2307692,341.334554 C32.2307692,341.578707 32.5286731,341.697258 32.6958632,341.519639 L34.7697285,339.316116 L42.7307692,339.316116 C42.8794611,339.316116 43,339.195342 43,339.046359 L43,335.269757 C43,335.120774 42.8794611,335 42.7307692,335 L29.2692308,335 C29.1205389,335 29,335.120774 29,335.269757 Z" id="Bulletin-Icon" fill="url(#linearGradient-8)"></path>
        <path d="M36,396 C29.372583,396 24,390.627417 24,384 C24,377.372583 29.372583,372 36,372 C42.627417,372 48,377.372583 48,384 C48,390.627417 42.627417,396 36,396 Z M33.9306915,379.473343 L30.5228975,379.473343 C29.924589,379.473343 29.4395642,379.958368 29.4395642,380.556677 L29.4395642,382.175136 L43.2857275,382.175136 L43.2857275,380.556677 C43.2857275,379.958368 42.8007026,379.473343 42.2023942,379.473343 L38.8123517,379.473343 L38.8123517,378.041671 C38.8123517,377.742516 38.5698392,377.500004 38.270685,377.500004 L34.4723582,377.500004 C34.1732039,377.500004 33.9306915,377.742516 33.9306915,378.041671 L33.9306915,379.473343 Z M34.9172947,379.473343 C34.9106245,379.452502 34.9070235,379.430288 34.9070235,379.407233 L34.9070235,378.778618 C34.9070235,378.658957 35.0040285,378.561952 35.1236902,378.561952 L37.619353,378.561952 C37.7390147,378.561952 37.8360196,378.658957 37.8360196,378.778618 L37.8360196,379.407233 C37.8360196,379.430288 37.8324186,379.452502 37.8257484,379.473343 L34.9172947,379.473343 Z M35.5934145,383.114121 L29.4395642,383.114121 L29.4395642,388.91668 C29.4395642,389.514988 29.924589,390.000013 30.5228975,390.000013 L42.2023942,390.000013 C42.8007026,390.000013 43.2857275,389.514988 43.2857275,388.91668 L43.2857275,383.114121 L37.2128488,383.114121 L37.2128488,384.674224 C37.2128488,385.121418 36.8503261,385.483941 36.4031317,385.483941 C35.9559373,385.483941 35.5934145,385.121418 35.5934145,384.674224 L35.5934145,383.114121 Z" id="Combined-Shape" fill="url(#linearGradient-9)"></path>
        <path d="M36,440 C29.372583,440 24,434.627417 24,428 C24,421.372583 29.372583,416 36,416 C42.627417,416 48,421.372583 48,428 C48,434.627417 42.627417,440 36,440 Z M36.4301885,434.684809 L36.4301885,434.991431 L43.1599453,434.991431 L43.1599453,434.684809 C43.1599453,433.198002 42.1011289,431.943302 40.6670498,431.575057 C41.3082998,431.268129 41.749901,430.633109 41.749901,429.901515 C41.749901,428.870036 40.8727895,428.031124 39.7950669,428.031124 C38.7170234,428.031124 37.8402327,428.870036 37.8402327,429.901515 C37.8402327,430.633109 38.2815131,431.267822 38.9227631,431.575057 C37.488684,431.943617 36.4301885,433.198002 36.4301885,434.684809 Z M43.7087666,425.716967 C43.0076065,422.820725 40.6355452,420.590701 37.5814687,420.007555 C37.5194841,419.997693 37.460405,419.997538 37.405523,420.006785 C37.2408762,420.034524 37.116907,420.145172 37.0859147,420.322702 C37.0445916,420.559409 37.2102066,420.757127 37.4168219,420.796578 C40.1567263,421.304119 42.2891128,423.318173 42.8937824,425.921694 L42.0132533,425.26894 C41.8335894,425.13612 41.5749749,425.166711 41.435616,425.33841 C41.3596846,425.431133 41.334788,425.547697 41.3564809,425.654315 C41.374774,425.744423 41.4262107,425.829029 41.5081851,425.889917 L43.2360618,427.17101 C43.3299795,427.240785 43.4505623,427.267821 43.5673519,427.246164 C43.6838078,427.224537 43.784989,427.156282 43.8447023,427.058062 L44.9442154,425.252276 C45.0583695,425.064346 44.9917476,424.824318 44.7952959,424.714938 C44.5985164,424.605617 44.346599,424.669769 44.2321337,424.857172 L43.7087666,425.716967 Z M28.2912334,429.283033 C28.9923935,432.179275 31.3644548,434.409299 34.4185313,434.992445 C34.4805159,435.002307 34.539595,435.002462 34.594477,434.993215 C34.7591238,434.965476 34.883093,434.854828 34.9140853,434.677298 C34.9554084,434.440591 34.7897934,434.242873 34.5831781,434.203422 C31.8432737,433.695881 29.7108872,431.681827 29.1062176,429.078306 L29.9867467,429.73106 C30.1664106,429.86388 30.4250251,429.833289 30.564384,429.66159 C30.6403154,429.568867 30.665212,429.452303 30.6435191,429.345685 C30.625226,429.255577 30.5737893,429.170971 30.4918149,429.110083 L28.7639382,427.82899 C28.6700205,427.759215 28.5494377,427.732179 28.4326481,427.753836 C28.3161922,427.775463 28.215011,427.843718 28.1552977,427.941938 L27.0557846,429.747724 C26.9416305,429.935654 27.0082524,430.175682 27.2047041,430.285062 C27.4014836,430.394383 27.653401,430.330231 27.7678663,430.142828 L28.2912334,429.283033 Z M28.3590566,426.653686 L28.3590566,426.960307 L35.0888134,426.960307 L35.0888134,426.653686 C35.0888134,425.166879 34.0299971,423.912179 32.595918,423.543933 C33.237168,423.237005 33.6787691,422.601986 33.6787691,421.870391 C33.6787691,420.838912 32.8016577,420 31.723935,420 C30.6458916,420 29.7691009,420.838912 29.7691009,421.870391 C29.7691009,422.601986 30.2103813,423.236698 30.8516313,423.543933 C29.4175522,423.912493 28.3590566,425.166879 28.3590566,426.653686 Z" id="Combined-Shape" fill="url(#linearGradient-10)" fill-rule="nonzero"></path>
        <g id="For-You_Active" transform="translate(24.000000, 460.000000)">
            <rect id="Rectangle" x="0" y="0" width="24" height="24"></rect>
            <path d="M4.5,10.7095599 L4.5,19 C4.5,19.2761424 4.72385763,19.5 5,19.5 L9.25,19.5 C9.52614237,19.5 9.75,19.2761424 9.75,19 L9.75,14.5 L14.25,14.5 L14.25,19 C14.25,19.2761424 14.4738576,19.5 14.75,19.5 L19,19.5 C19.2761424,19.5 19.5,19.2761424 19.5,19 L19.5,10.7095599 C19.5,10.3974673 19.3542915,10.1032697 19.1060432,9.91412816 L12.3030216,4.73087361 C12.1240244,4.59449475 11.8759756,4.59449475 11.6969784,4.73087361 L4.89395678,9.91412816 C4.64570846,10.1032697 4.5,10.3974673 4.5,10.7095599 Z" id="Home_Active" fill="#CE4649"></path>
        </g>
        <g id="For-You_Inactive" transform="translate(24.000000, 504.000000)">
            <rect id="Rectangle" x="0" y="0" width="24" height="24"></rect>
            <path d="M4.5,10.6335511 L4.5,18.9956766 C4.5,19.2742067 4.72385763,19.5 5,19.5 L9.25,19.5 C9.52614237,19.5 9.75,19.2742067 9.75,18.9956766 L9.75,14.4567662 L14.25,14.4567662 L14.25,18.9956766 C14.25,19.2742067 14.4738576,19.5 14.75,19.5 L19,19.5 C19.2761424,19.5 19.5,19.2742067 19.5,18.9956766 L19.5,10.6335511 C19.5,10.3187599 19.3542915,10.0220185 19.1060432,9.83124146 L12.3030216,4.60316857 C12.1240244,4.46561048 11.8759756,4.46561048 11.6969784,4.60316857 L4.89395678,9.83124146 C4.64570846,10.0220185 4.5,10.3187599 4.5,10.6335511 Z M18.5,10.6335511 L18.5,18.4913532 L15.25,18.4913532 L15.25,14.4567662 C15.25,13.899706 14.8022847,13.4481195 14.25,13.4481195 L9.75,13.4481195 C9.19771525,13.4481195 8.75,13.899706 8.75,14.4567662 L8.75,18.4913532 L5.5,18.4913532 L5.5,10.6335511 L12,5.6383481 L18.5,10.6335511 Z" id="Home_Inactive" fill="#999999" fill-rule="nonzero"></path>
        </g>
        <g id="Headlines_Active" transform="translate(24.000000, 548.000000)">
            <rect id="Rectangle" x="0" y="0" width="24" height="24"></rect>
            <path d="M5.5,4.5 L18.5,4.5 C19.0522847,4.5 19.5,4.91973305 19.5,5.4375 L19.5,18.5625 C19.5,19.080267 19.0522847,19.5 18.5,19.5 L5.5,19.5 C4.94771525,19.5 4.5,19.080267 4.5,18.5625 L4.5,5.4375 C4.5,4.91973305 4.94771525,4.5 5.5,4.5 Z M7.88994801,6.5 C7.67458567,6.5 7.5,6.73814641 7.5,7.03191489 L7.5,11.9680851 C7.5,12.2618536 7.67458567,12.5 7.88994801,12.5 L16.110052,12.5 C16.3254143,12.5 16.5,12.2618536 16.5,11.9680851 L16.5,7.03191489 C16.5,6.73814641 16.3254143,6.5 16.110052,6.5 L7.88994801,6.5 Z M8,14 C7.72385763,14 7.5,14.2238576 7.5,14.5 C7.5,14.7761424 7.72385763,15 8,15 L16,15 C16.2761424,15 16.5,14.7761424 16.5,14.5 C16.5,14.2238576 16.2761424,14 16,14 L8,14 Z M8,16.5 C7.72385763,16.5 7.5,16.7238576 7.5,17 C7.5,17.2761424 7.72385763,17.5 8,17.5 L13,17.5 C13.2761424,17.5 13.5,17.2761424 13.5,17 C13.5,16.7238576 13.2761424,16.5 13,16.5 L8,16.5 Z" fill="#CE4649" fill-rule="nonzero"></path>
        </g>
        <g id="Headlines_Inactive" transform="translate(24.000000, 592.000000)">
            <rect id="Rectangle" x="0" y="0" width="24" height="24"></rect>
            <path d="M7.88994801,6.5 L16.110052,6.5 C16.3254143,6.5 16.5,6.73814641 16.5,7.03191489 L16.5,11.9680851 C16.5,12.2618536 16.3254143,12.5 16.110052,12.5 L7.88994801,12.5 C7.67458567,12.5 7.5,12.2618536 7.5,11.9680851 L7.5,7.03191489 C7.5,6.73814641 7.67458567,6.5 7.88994801,6.5 Z M8.5,11.5 L15.5,11.5 L15.5,7.5 L8.5,7.5 L8.5,11.5 Z M8,14 L16,14 C16.2761424,14 16.5,14.2238576 16.5,14.5 C16.5,14.7761424 16.2761424,15 16,15 L8,15 C7.72385763,15 7.5,14.7761424 7.5,14.5 C7.5,14.2238576 7.72385763,14 8,14 Z M8,16.5 L13,16.5 C13.2761424,16.5 13.5,16.7238576 13.5,17 C13.5,17.2761424 13.2761424,17.5 13,17.5 L8,17.5 C7.72385763,17.5 7.5,17.2761424 7.5,17 C7.5,16.7238576 7.72385763,16.5 8,16.5 Z M18.75,4.5 C19.1633858,4.5 19.5,4.83661417 19.5,5.25 L19.5,18.75 C19.5,19.1633858 19.1633858,19.5 18.75,19.5 L5.25,19.5 C4.83661417,19.5 4.5,19.1633858 4.5,18.75 L4.5,5.25 C4.5,4.83661417 4.83661417,4.5 5.25,4.5 L18.75,4.5 Z M18.5,5.5 L5.5,5.5 L5.5,18.5 L18.5,18.5 L18.5,5.5 Z" fill="#999999" fill-rule="nonzero"></path>
        </g>
        <g id="Videos_Active" transform="translate(24.000000, 636.000000)">
            <rect id="Rectangle" x="0" y="0" width="24" height="24"></rect>
            <path d="M18.75,4.5 C19.1633858,4.5 19.5,4.83661417 19.5,5.25 L19.5,18.75 C19.5,19.1633858 19.1633858,19.5 18.75,19.5 L5.25,19.5 C4.83661417,19.5 4.5,19.1633858 4.5,18.75 L4.5,5.25 C4.5,4.83661417 4.83661417,4.5 5.25,4.5 L18.75,4.5 Z M10.4543487,9.54275212 C10.4077241,9.51477735 10.3543732,9.5 10.3,9.5 C10.1343146,9.5 10,9.63431458 10,9.8 L10,14.7402858 C10,14.794659 10.0147774,14.8480099 10.0427521,14.8946345 C10.1279966,15.0367086 10.3122746,15.0827781 10.4543487,14.9975337 L14.5712535,12.5273908 C14.6134784,12.5020558 14.6488178,12.4667165 14.6741527,12.4244916 C14.7593971,12.2824175 14.7133276,12.0981395 14.5712535,12.012895 L10.4543487,9.54275212 Z" fill="#CE4649"></path>
        </g>
        <g id="Videos_Inactive" transform="translate(24.000000, 680.000000)">
            <rect id="Rectangle" x="0" y="0" width="24" height="24"></rect>
            <path d="M18.75,4.5 C19.1633858,4.5 19.5,4.83661417 19.5,5.25 L19.5,18.75 C19.5,19.1633858 19.1633858,19.5 18.75,19.5 L5.25,19.5 C4.83661417,19.5 4.5,19.1633858 4.5,18.75 L4.5,5.25 C4.5,4.83661417 4.83661417,4.5 5.25,4.5 L18.75,4.5 Z M18.5,5.5 L5.5,5.5 L5.5,18.5 L18.5,18.5 L18.5,5.5 Z M10.4543487,9.54275212 L14.5712535,12.012895 C14.7133276,12.0981395 14.7593971,12.2824175 14.6741527,12.4244916 C14.6488178,12.4667165 14.6134784,12.5020558 14.5712535,12.5273908 L10.4543487,14.9975337 C10.3122746,15.0827781 10.1279966,15.0367086 10.0427521,14.8946345 C10.0147774,14.8480099 10,14.794659 10,14.7402858 L10,9.8 C10,9.63431458 10.1343146,9.5 10.3,9.5 C10.3543732,9.5 10.4077241,9.51477735 10.4543487,9.54275212 Z" fill="#999999" fill-rule="nonzero"></path>
        </g>
        <g id="Photos_Active" transform="translate(24.000000, 724.000000)">
            <rect id="Rectangle" x="0" y="0" width="24" height="24"></rect>
            <path d="M8.78571429,10.3928571 C7.89811379,10.3928571 7.17857143,9.67331478 7.17857143,8.78571429 C7.17857143,7.89811379 7.89811379,7.17857143 8.78571429,7.17857143 C9.67331478,7.17857143 10.3928571,7.89811379 10.3928571,8.78571429 C10.3928571,9.67331478 9.67331478,10.3928571 8.78571429,10.3928571 Z M18.75,4.5 C19.1633858,4.5 19.5,4.83661417 19.5,5.25 L19.5,18.75 C19.5,19.1633858 19.1633858,19.5 18.75,19.5 L5.25,19.5 C4.83661417,19.5 4.5,19.1633858 4.5,18.75 L4.5,5.25 C4.5,4.83661417 4.83661417,4.5 5.25,4.5 L18.75,4.5 Z M18.4999847,14.4107143 L18.4999847,5.50134277 L5.50924368,5.50134277 L5.50924368,18.5014343 L7.07100675,18.5014343 L13.3793588,10.5130765 C13.4932508,10.3738751 13.6988892,10.3548931 13.8349269,10.4687852 L18.4999847,14.4107143 Z" fill="#CE4649" fill-rule="nonzero"></path>
        </g>
        <g id="Photos_Inactive" transform="translate(24.000000, 768.000000)">
            <rect id="Rectangle" x="0" y="0" width="24" height="24"></rect>
            <path d="M8.78571429,10.3928571 C7.89811379,10.3928571 7.17857143,9.67331478 7.17857143,8.78571429 C7.17857143,7.89811379 7.89811379,7.17857143 8.78571429,7.17857143 C9.67331478,7.17857143 10.3928571,7.89811379 10.3928571,8.78571429 C10.3928571,9.67331478 9.67331478,10.3928571 8.78571429,10.3928571 Z M18.5,14.0590597 L18.5,5.5 L5.5,5.5 L5.5,18.5 L7.27623899,18.5 L13.4113734,10.8019167 C13.7010218,10.447902 14.2248124,10.3977785 14.579531,10.6948005 L18.5,14.0590597 Z M18.5,15.3767777 L14.0722265,11.5771398 L8.554967,18.5 L18.5,18.5 L18.5,15.3767777 Z M18.75,4.5 C19.1633858,4.5 19.5,4.83661417 19.5,5.25 L19.5,18.75 C19.5,19.1633858 19.1633858,19.5 18.75,19.5 L5.25,19.5 C4.83661417,19.5 4.5,19.1633858 4.5,18.75 L4.5,5.25 C4.5,4.83661417 4.83661417,4.5 5.25,4.5 L18.75,4.5 Z" fill="#999999" fill-rule="nonzero"></path>
        </g>
        <g id="More_Inactive" transform="translate(31.000000, 812.000000)">
            <rect id="Rectangle" x="0" y="0" width="10" height="10"></rect>
            <circle id="Oval" stroke="#FFFFFF" fill="#CE4649" fill-rule="nonzero" cx="5" cy="5" r="4.5"></circle>
        </g>
        <g id="More_Inactive" transform="translate(24.000000, 842.000000)">
            <rect id="Rectangle" x="0" y="0" width="24" height="24"></rect>
            <path d="M4.96875,5.5 C4.70986652,5.5 4.5,5.27614237 4.5,5 C4.5,4.72385763 4.70986652,4.5 4.96875,4.5 L19.03125,4.5 C19.2901335,4.5 19.5,4.72385763 19.5,5 C19.5,5.27614237 19.2901335,5.5 19.03125,5.5 L4.96875,5.5 Z M10.0003597,12.5 C9.72401865,12.5 9.5,12.2761424 9.5,12 C9.5,11.7238576 9.72401865,11.5 10.0003597,11.5 L18.9996403,11.5 C19.2759813,11.5 19.5,11.7238576 19.5,12 C19.5,12.2761424 19.2759813,12.5 18.9996403,12.5 L10.0003597,12.5 Z M4.96875,19.5 C4.70986652,19.5 4.5,19.2761424 4.5,19 C4.5,18.7238576 4.70986652,18.5 4.96875,18.5 L19.03125,18.5 C19.2901335,18.5 19.5,18.7238576 19.5,19 C19.5,19.2761424 19.2901335,19.5 19.03125,19.5 L4.96875,19.5 Z" fill="#CE4649" fill-rule="nonzero"></path>
        </g>
        <g id="More_Inactive" transform="translate(24.000000, 886.000000)">
            <rect id="Rectangle" x="0" y="0" width="24" height="24"></rect>
            <path d="M4.96875,5.5 C4.70986652,5.5 4.5,5.27614237 4.5,5 C4.5,4.72385763 4.70986652,4.5 4.96875,4.5 L19.03125,4.5 C19.2901335,4.5 19.5,4.72385763 19.5,5 C19.5,5.27614237 19.2901335,5.5 19.03125,5.5 L4.96875,5.5 Z M10.0003597,12.5 C9.72401865,12.5 9.5,12.2761424 9.5,12 C9.5,11.7238576 9.72401865,11.5 10.0003597,11.5 L18.9996403,11.5 C19.2759813,11.5 19.5,11.7238576 19.5,12 C19.5,12.2761424 19.2759813,12.5 18.9996403,12.5 L10.0003597,12.5 Z M4.96875,19.5 C4.70986652,19.5 4.5,19.2761424 4.5,19 C4.5,18.7238576 4.70986652,18.5 4.96875,18.5 L19.03125,18.5 C19.2901335,18.5 19.5,18.7238576 19.5,19 C19.5,19.2761424 19.2901335,19.5 19.03125,19.5 L4.96875,19.5 Z" fill="#999999" fill-rule="nonzero"></path>
        </g>
        <g id="Tokens-Earned" transform="translate(4.000000, 930.000000)" fill-rule="nonzero">
            <g id="Total-Earnings" fill="#FFFFFF" stroke="#CE4649" stroke-width="0.5">
                <rect id="Rectangle" x="0.25" y="0.25" width="62.5" height="19.5" rx="9.75"></rect>
            </g>
            <g id="NP-Token" transform="translate(2.000000, 2.000000)">
                <circle id="Ellipse_60" stroke="#CE4649" stroke-width="0.5" fill="#FFE17D" cx="8" cy="8" r="7.75"></circle>
                <path d="M2.4528306,4.90253868 C0.784724271,7.37717439 1.12812244,10.6544986 3.27495665,12.7487472 C5.42179086,14.8429958 8.78140719,15.1779826 11.3181799,13.5507357 C11.3983124,13.4981921 11.437405,13.4032255 11.4167789,13.311212 C11.3961528,13.2191985 11.319995,13.1488167 11.2246945,13.1336959 C6.94237716,12.4463987 3.58594743,9.17218299 2.88139251,4.99475879 C2.86666736,4.90105395 2.79440229,4.8258211 2.69950389,4.80540039 C2.60460548,4.78497967 2.50660121,4.8235731 2.4528306,4.90253868 L2.4528306,4.90253868 Z" id="Path_4783" fill="#FFD164"></path>
                <path d="M4.7212861,7.22942387 L4.11830192,8.11213992 L6.52654321,8.11213992 L6.52654321,9.86316872 L4.7212861,9.86316872 L4.11830192,10.7458848 L6.52654321,10.7458848 L6.52654321,12.3919753 L7.71378601,12.3919753 L7.71378601,10.7458848 L10.0414181,10.7458848 L10.5153525,9.86316872 L7.71378601,9.86316872 L7.71378601,8.11213992 L7.96378601,8.11213992 C9.43090166,8.11213992 9.43090166,8.11213992 10.1065644,8.11213992 C11.5183813,8.11213992 12.3909134,7.15131106 12.3840983,5.89435958 C12.3772956,4.63970664 11.4967232,3.67386831 10.1065644,3.67386831 C8.77717699,3.67386831 8.73038202,3.67386831 6.52654321,3.67386831 L6.52654321,7.22942387 L4.7212861,7.22942387 Z M7.96378601,4.55658436 C9.25512688,4.55658436 9.25512688,4.55658436 9.99451592,4.55658436 C10.8442535,4.55658436 11.4032161,5.14672669 11.4025348,5.89323229 C11.4018539,6.6392379 10.8424908,7.22942387 9.99451592,7.22942387 C9.36429224,7.22942387 9.36429224,7.22942387 7.96378601,7.22942387 L7.71378601,7.22942387 L7.71378601,4.55658436 L7.96378601,4.55658436 Z" id="Combined-Shape" stroke="#CE4649" stroke-width="0.5" fill="#CE4649"></path>
            </g>
        </g>
        <g id="Play-Icon" transform="translate(12.000000, 1038.000000)">
            <rect id="Rectangle" x="0" y="0" width="48" height="48"></rect>
            <path d="M24.0792079,3.16831683 C12.5148515,3.16831683 3.16831683,12.5148515 3.16831683,24.0792079 C3.16831683,35.4851485 12.5148515,44.8316832 24.0792079,44.8316832 C35.4851485,44.8316832 44.8316832,35.4851485 44.8316832,24.0792079 C44.8316832,12.5148515 35.4851485,3.16831683 24.0792079,3.16831683 Z" id="Path" fill="#000000" opacity="0.4"></path>
            <path d="M33.4257426,22.6534653 C34.5346535,23.2871287 34.5346535,24.8712871 33.4257426,25.3465347 L20.1188119,33.1089109 C19.009901,33.7425743 17.5841584,32.950495 17.5841584,31.6831683 L17.5841584,16.3168317 C17.5841584,15.049505 19.009901,14.2574257 20.1188119,14.8910891 L33.4257426,22.6534653 Z M24.0792079,0 C37.2277228,0 48,10.7722772 48,24.0792079 C48,37.2277228 37.2277228,48 24.0792079,48 C10.7722772,48 0,37.2277228 0,24.0792079 C0,10.7722772 10.7722772,0 24.0792079,0 Z M24.0792079,3.16831683 C12.5148515,3.16831683 3.16831683,12.5148515 3.16831683,24.0792079 C3.16831683,35.4851485 12.5148515,44.8316832 24.0792079,44.8316832 C35.4851485,44.8316832 44.8316832,35.4851485 44.8316832,24.0792079 C44.8316832,12.5148515 35.4851485,3.16831683 24.0792079,3.16831683 Z" id="Combined-Shape" fill="#FFFFFF"></path>
        </g>
        <g id="Play-Icon-Copy" transform="translate(12.000000, 970.000000)">
            <rect id="Rectangle" x="0" y="0" width="48" height="48"></rect>
            <path d="M24.0792079,3.16831683 C12.5148515,3.16831683 3.16831683,12.5148515 3.16831683,24.0792079 C3.16831683,35.4851485 12.5148515,44.8316832 24.0792079,44.8316832 C35.4851485,44.8316832 44.8316832,35.4851485 44.8316832,24.0792079 C44.8316832,12.5148515 35.4851485,3.16831683 24.0792079,3.16831683 Z" id="Path" fill="#000000" opacity="0.4"></path>
            <text id="GIF" font-family="NotoSans-SemiBold, Noto Sans" font-size="10" font-weight="500" line-spacing="16" letter-spacing="0.200000003" fill="#FFFFFF">
                <tspan x="16.03" y="27">GIF</tspan>
            </text>
            <path d="M24.0792079,0 C37.2277228,0 48,10.7722772 48,24.0792079 C48,37.2277228 37.2277228,48 24.0792079,48 C10.7722772,48 0,37.2277228 0,24.0792079 C0,10.7722772 10.7722772,0 24.0792079,0 Z M24.0792079,3.16831683 C12.5148515,3.16831683 3.16831683,12.5148515 3.16831683,24.0792079 C3.16831683,35.4851485 12.5148515,44.8316832 24.0792079,44.8316832 C35.4851485,44.8316832 44.8316832,35.4851485 44.8316832,24.0792079 C44.8316832,12.5148515 35.4851485,3.16831683 24.0792079,3.16831683 Z" id="Combined-Shape" fill="#FFFFFF"></path>
        </g>
        <g id="Pause-Icon" transform="translate(12.000000, 1106.000000)">
            <rect id="Rectangle" x="0" y="0" width="48" height="48"></rect>
            <path d="M24.0792079,3.16831683 C12.5148515,3.16831683 3.16831683,12.5148515 3.16831683,24.0792079 C3.16831683,35.4851485 12.5148515,44.8316832 24.0792079,44.8316832 C35.4851485,44.8316832 44.8316832,35.4851485 44.8316832,24.0792079 C44.8316832,12.5148515 35.4851485,3.16831683 24.0792079,3.16831683 Z" id="Path" fill="#000000" opacity="0.4"></path>
            <path d="M24.0792079,0 C37.2277228,0 48,10.7722772 48,24.0792079 C48,37.2277228 37.2277228,48 24.0792079,48 C10.7722772,48 0,37.2277228 0,24.0792079 C0,10.7722772 10.7722772,0 24.0792079,0 Z M24.0792079,3.16831683 C12.5148515,3.16831683 3.16831683,12.5148515 3.16831683,24.0792079 C3.16831683,35.4851485 12.5148515,44.8316832 24.0792079,44.8316832 C35.4851485,44.8316832 44.8316832,35.4851485 44.8316832,24.0792079 C44.8316832,12.5148515 35.4851485,3.16831683 24.0792079,3.16831683 Z M26.5156483,31.1251863 L26.5156483,17.7421759 C26.5156483,16.2277139 27.7433622,15 29.2578241,15 C30.7722861,15 32,16.2277139 32,17.7421759 L32,31.1251863 C32,32.6396482 30.7722861,33.8673621 29.2578241,33.8673621 C27.7433622,33.8673621 26.5156483,32.6396482 26.5156483,31.1251863 Z M16,31.1251863 L16,17.7421759 C16,16.2277139 17.2277139,15 18.7421759,15 C20.2566378,15 21.4843517,16.2277139 21.4843517,17.7421759 L21.4843517,31.1251863 C21.4843517,32.6396482 20.2566378,33.8673621 18.7421759,33.8673621 C17.2277139,33.8673621 16,32.6396482 16,31.1251863 Z" id="Combined-Shape" fill="#FFFFFF"></path>
        </g>
        <g id="Backward-Icon" transform="translate(36.000000, 1186.000000) scale(-1, 1) translate(-36.000000, -1186.000000) translate(24.000000, 1174.000000)">
            <rect id="Rectangle" x="0" y="0" width="24" height="24"></rect>
            <path d="M15.6707645,10.8911329 C16.6277181,11.4379635 16.6277181,12.8050399 15.6707645,13.2151629 L4.18732233,19.9138375 C3.23036881,20.4606681 2,19.7771298 2,18.6834687 L2,5.42282707 C2,4.32916591 3.23036881,3.64562768 4.18732233,4.19245826 L15.6707645,10.8911329 Z M17.2671854,17.9155038 L17.2671854,6.3664073 C17.2671854,5.05947664 18.326662,4 19.6335927,4 C20.9405234,4 22,5.05947664 22,6.3664073 L22,17.9155038 C22,19.2224345 20.9405234,20.2819111 19.6335927,20.2819111 C18.326662,20.2819111 17.2671854,19.2224345 17.2671854,17.9155038 Z" id="Combined-Shape" fill="#FFFFFF"></path>
        </g>
        <g id="Forward-Icon" transform="translate(24.000000, 1218.000000)">
            <rect id="Rectangle" x="0" y="0" width="24" height="24"></rect>
            <path d="M15.6707645,10.8911329 C16.6277181,11.4379635 16.6277181,12.8050399 15.6707645,13.2151629 L4.18732233,19.9138375 C3.23036881,20.4606681 2,19.7771298 2,18.6834687 L2,5.42282707 C2,4.32916591 3.23036881,3.64562768 4.18732233,4.19245826 L15.6707645,10.8911329 Z M17.2671854,17.9155038 L17.2671854,6.3664073 C17.2671854,5.05947664 18.326662,4 19.6335927,4 C20.9405234,4 22,5.05947664 22,6.3664073 L22,17.9155038 C22,19.2224345 20.9405234,20.2819111 19.6335927,20.2819111 C18.326662,20.2819111 17.2671854,19.2224345 17.2671854,17.9155038 Z" id="Combined-Shape" fill="#FFFFFF"></path>
        </g>
        <g id="Listen-Icon" transform="translate(24.000000, 1262.000000)">
            <rect id="Rectangle" x="0" y="0" width="24" height="24"></rect>
            <path d="M17.5550831,11.8963532 L17.5550831,11.6588028 C17.5550831,8.64326578 15.0675839,6 11.9990981,6 C8.93061224,6 6.443113,8.64326578 6.443113,11.6588028 L6.443113,11.8963532 C5.56923408,12.2541863 5,12.8946137 5,13.8249799 L5,15.6922636 C5,16.9650552 6.04991851,17.9968567 7.34505863,17.9968567 L8.14959412,17.9968567 C8.44847261,17.9968567 8.6907615,17.7587487 8.6907615,17.4650275 L8.6907615,12.250906 C8.6907615,11.9571848 8.44847261,11.7190768 8.14959412,11.7190768 L7.52544775,11.7190768 L7.52544775,11.6588028 C7.52544775,9.23070806 9.52836922,7.06365834 11.9990981,7.06365834 C14.4698269,7.06365834 16.4727484,9.23070806 16.4727484,11.6588028 L16.4727484,11.7190768 L15.8504059,11.7190768 C15.5515274,11.7190768 15.3092385,11.9571848 15.3092385,12.250906 L15.3092385,17.4650275 C15.3092385,17.7587487 15.5515274,17.9968567 15.8504059,17.9968567 L16.1714985,17.9968567 C16.1714985,17.9968567 16.9294294,17.9968567 17.3061461,17.904673 C18.3088492,17.6198322 18.9993005,16.7180065 19,15.6922636 L19,13.8249799 C18.9996968,12.8941834 18.4296694,12.2536358 17.5550831,11.8963532 Z" id="Path" fill="#999999" fill-rule="nonzero"></path>
        </g>
        <g id="Refresh-Icon" transform="translate(24.000000, 1438.000000)">
            <rect id="Rectangle" x="0" y="0" width="24" height="24"></rect>
            <path d="M12.7364132,7 C9.98250636,7 7.71610358,9.12515141 7.49144713,11.821502 L6.8235899,11.2224585 C6.62019235,11.0402914 6.30868358,11.0575782 6.12652921,11.2599854 C5.94434325,11.4628855 5.96067444,11.7753877 6.1640562,11.9570619 L7.66336679,13.3023334 C7.75667885,13.3867676 7.87466143,13.4287091 7.99314943,13.4287091 C8.11064239,13.4287091 8.22860918,13.3867676 8.32291628,13.3023334 L9.82224273,11.9570619 C10.0246453,11.7753877 10.0419241,11.4628855 9.85976972,11.2599854 C9.67660453,11.057087 9.36509576,11.0398002 9.16269324,11.2224585 L8.48160048,11.8333713 C8.69742806,9.67707772 10.5229051,7.98739655 12.7364132,7.98739655 C15.0937273,7.98739655 17.0126263,9.90532269 17.0126263,12.2621361 C17.0126263,14.6199539 15.0937273,16.5383997 12.7364132,16.5383997 C11.6379748,16.5383997 10.5938684,16.1227314 9.79657718,15.3664141 C9.62724769,15.207444 9.47071149,15.033171 9.33003266,14.8485195 C9.16512555,14.6318027 8.8565703,14.5893638 8.63884742,14.7547368 C8.42213536,14.9196392 8.37968059,15.229131 8.5445877,15.4463595 C8.71784994,15.6739348 8.91088651,15.8887263 9.11922764,16.0842173 C10.0996683,17.0138111 11.3842096,17.5257528 12.7369028,17.5257528 C15.639227,17.5257528 18.0004106,15.1644854 18,12.2621361 C18,9.36030159 15.6387689,7 12.7364132,7 Z" id="Path" fill="#CE4649" fill-rule="nonzero" transform="translate(12.000000, 12.262876) scale(-1, 1) translate(-12.000000, -12.262876) "></path>
        </g>
        <g id="Batting-Icon" transform="translate(24.000000, 1482.000000)">
            <rect id="Rectangle" transform="translate(12.000000, 12.000000) scale(-1, -1) translate(-12.000000, -12.000000) " x="0" y="0" width="24" height="24"></rect>
            <g id="Group-6" transform="translate(12.000000, 12.000000) scale(-1, -1) translate(-12.000000, -12.000000) translate(6.000000, 6.000000)" fill-rule="nonzero">
                <path d="M11.4407147,3.98707054 L6.16718598,9.2709704 C5.83532192,9.60338998 5.39456925,9.77773209 4.92901113,9.77773209 L3.67113784,9.77773209 L2.19457533,8.29838266 L2.19457533,7.03796601 C2.19457533,6.57150037 2.36857825,6.12988853 2.7003511,5.79746893 L7.97406221,0.51356907 C8.65748876,-0.17118969 9.76680296,-0.17118969 10.4502295,0.51356907 L11.4407147,1.505985 C12.1242324,2.19074378 12.1242324,3.30231176 11.4407147,3.98707054 L11.4407147,3.98707054 Z" id="Path" fill="#FFB64C"></path>
                <path d="M11.4407147,3.98707054 L6.16718598,9.2709704 C5.83532192,9.60338998 5.39456925,9.77773209 4.92901113,9.77773209 L3.67113784,9.77773209 L2.92825115,9.0426261 L10.9455177,1.00973136 L11.4407147,1.505985 C12.1242324,2.19074378 12.1242324,3.30231176 11.4407147,3.98707054 Z" id="Path" fill="#FFB64C"></path>
                <path d="M9.71810402,5.21687684 C9.03467747,4.53211805 7.92527208,4.53211805 7.24184551,5.21687684 C6.55841897,5.9016356 6.55841897,7.01320357 7.24184551,7.69796236 C7.92527208,8.38272112 9.03467747,8.38272112 9.71810402,7.69796236 C10.4015306,7.01320357 10.4015306,5.9016356 9.71810402,5.21687684 L9.71810402,5.21687684 Z" id="Path" fill="#FF637B"></path>
                <polygon id="Path" fill="#53433F" points="3.03221516 10.427129 2.04173 11.419545 1.05124484 11.419545 0.555956656 10.9233827 0.555956656 9.93096673 1.54644182 8.93845943 2.53692697 8.93845943 3.03221516 9.43471309"></polygon>
                <path d="M2.04173,11.419545 L1.79404031,11.6677175 C1.38301769,12.0795413 0.71938078,12.0795413 0.308266967,11.6677175 C-0.102755656,11.2558023 -0.102755656,10.5908717 0.308266967,10.1790479 L0.555956656,9.93087536 L2.04173,11.419545 Z" id="Path" fill="#68544F"></path>
                <path d="M3.67113784,9.78696088 L3.03221516,10.427129 L1.54644182,8.93845943 L2.18536449,8.29838266 L4.83489634,6.65593019 C4.97360621,6.57652596 5.13703034,6.6211166 5.24099434,6.72537464 C5.34504954,6.8295413 5.38964465,6.99328399 5.31030368,7.13226425 L3.67113784,9.78696088 Z" id="Path" fill="#68544F"></path>
            </g>
        </g>
        <g id="Won-Toss-Icon" transform="translate(24.000000, 1526.000000)">
            <rect id="Rectangle" transform="translate(12.000000, 12.000000) scale(-1, -1) translate(-12.000000, -12.000000) " x="0" y="0" width="24" height="24"></rect>
            <g id="Like-Icon" transform="translate(8.000000, 6.000000)">
                <path d="M6.68235294,11 L4.04705882,11 C3.53566118,11 3.00533082,10.8762905 2.55376753,10.6518945 L1.70404329,10.2295985 C1.64025788,10.1978034 1.6,10.1331166 1.6,10.0622156 L1.6,7.44255984 C1.6,7.39870306 1.61544094,7.35630954 1.64365741,7.32268813 L3.48235294,5.12934764 L5.08235294,3.70019443 C5.08235294,3.49845848 5.18759153,3.31810079 5.36387953,3.21741432 C5.53906259,3.11745948 5.74752,3.11800774 5.92141553,3.21905909 C6.56580894,3.59293075 5.76723346,5.08466744 5.55634766,5.2820391 L4.98823529,6.13492497 L7.05882353,6.13492497 C7.57775812,6.13492497 8,6.55356468 8,7.0683233 C8,7.07344036 7.87447906,8.07548551 7.62343718,10.0744588 C7.61682071,10.5859279 7.19724235,11 6.68235294,11 Z" id="Shape" fill="#FCA243" fill-rule="nonzero"></path>
                <ellipse id="Oval-3" fill="#F8E71C" cx="4.4" cy="1.17857143" rx="1.2" ry="1.17857143"></ellipse>
                <path d="M1.44,11 L0.16,11 C0.07164,11 0,10.9121434 0,10.8035714 L0,6.48214286 C0,6.37357089 0.07164,6.28571429 0.16,6.28571429 L1.44,6.28571429 C1.52836,6.28571429 1.6,6.37357089 1.6,6.48214286 L1.6,10.8035714 C1.6,10.9121434 1.52836,11 1.44,11 Z" id="Shape" fill="#666666" fill-rule="nonzero"></path>
            </g>
        </g>
        <g id="More-Options-Icon" transform="translate(24.000000, 1570.000000)">
            <rect id="Rectangle" x="0" y="0" width="24" height="24"></rect>
            <path d="M6,14 C4.8954305,14 4,13.1045695 4,12 C4,10.8954305 4.8954305,10 6,10 C7.1045695,10 8,10.8954305 8,12 C8,13.1045695 7.1045695,14 6,14 Z M12,14 C10.8954305,14 10,13.1045695 10,12 C10,10.8954305 10.8954305,10 12,10 C13.1045695,10 14,10.8954305 14,12 C14,13.1045695 13.1045695,14 12,14 Z M18,14 C16.8954305,14 16,13.1045695 16,12 C16,10.8954305 16.8954305,10 18,10 C19.1045695,10 20,10.8954305 20,12 C20,13.1045695 19.1045695,14 18,14 Z" id="Combined-Shape" fill="#999999" fill-rule="nonzero"></path>
        </g>
        <g id="Music-Play-Icon" transform="translate(24.000000, 1614.000000)">
            <rect id="Rectangle" x="0" y="0" width="24" height="24"></rect>
            <g id="Play-Music-Icon">
                <rect id="Rectangle" x="0" y="0" width="24" height="24"></rect>
                <path d="M12,0 C18.617,0 24,5.383 24,12 C24,18.617 18.617,24 12,24 C5.383,24 0,18.617 0,12 C0,5.383 5.383,0 12,0 Z M16.0709812,11.5714388 L10.3447659,7.82152824 C9.94393081,7.55367749 9.42857143,7.82152824 9.42857143,8.25008945 L9.42857143,15.7499106 C9.42857143,16.1784718 9.94393081,16.4463225 10.3447659,16.1784718 L16.0709812,12.4285612 C16.357292,12.2142857 16.357292,11.7857194 16.0709812,11.5714388 Z" id="Combined-Shape" fill="url(#linearGradient-5)"></path>
            </g>
        </g>
        <g id="Play-Now-Icon" transform="translate(24.000000, 1306.000000)">
            <rect id="Rectangle" x="0" y="0" width="24" height="24"></rect>
            <path d="M12.019802,5.85 C15.3960474,5.85 18.15,8.61652775 18.15,12.019802 C18.15,15.3897734 15.3897734,18.15 12.019802,18.15 C8.61652775,18.15 5.85,15.3960474 5.85,12.019802 C5.85,8.61022659 8.61022659,5.85 12.019802,5.85 Z M12.019802,6.94207921 C9.21155558,6.94207921 6.94207921,9.21155558 6.94207921,12.019802 C6.94207921,14.7943845 9.21752887,17.0579208 12.019802,17.0579208 C14.7884444,17.0579208 17.0579208,14.7884444 17.0579208,12.019802 C17.0579208,9.21752887 14.7943845,6.94207921 12.019802,6.94207921 Z M12.4789121,13.7812966 L12.4789121,10.435544 C12.4789121,9.97408577 12.8529978,9.6 13.314456,9.6 C13.7759142,9.6 14.15,9.97408577 14.15,10.435544 L14.15,13.7812966 C14.15,14.2427548 13.7759142,14.6168405 13.314456,14.6168405 C12.8529978,14.6168405 12.4789121,14.2427548 12.4789121,13.7812966 Z M9.85,13.7812966 L9.85,10.435544 C9.85,9.97408577 10.2240858,9.6 10.685544,9.6 C11.1470022,9.6 11.5210879,9.97408577 11.5210879,10.435544 L11.5210879,13.7812966 C11.5210879,14.2427548 11.1470022,14.6168405 10.685544,14.6168405 C10.2240858,14.6168405 9.85,14.2427548 9.85,13.7812966 Z" id="Combined-Shape" fill="#999999" fill-rule="nonzero"></path>
        </g>
        <g id="Play-Icon" transform="translate(24.000000, 1350.000000)">
            <rect id="Rectangle" x="0" y="0" width="24" height="24"></rect>
            <path d="M14.4320163,11.5337995 L14.4308565,11.5331299 C14.8114119,11.7505901 14.8114119,12.304839 14.4320163,12.4662005 L11.1041238,14.4074642 C10.7272911,14.6227972 10.2460396,14.3532963 10.2460396,13.9207921 L10.2460396,10.0792079 C10.2460396,9.64670367 10.7272911,9.37720283 11.1052836,9.59320544 L14.4320163,11.5337995 Z M12.019802,5.85 C15.3960474,5.85 18.15,8.61652775 18.15,12.019802 C18.15,15.3897734 15.3897734,18.15 12.019802,18.15 C8.61652775,18.15 5.85,15.3960474 5.85,12.019802 C5.85,8.61022659 8.61022659,5.85 12.019802,5.85 Z M12.019802,6.94207921 C9.21155558,6.94207921 6.94207921,9.21155558 6.94207921,12.019802 C6.94207921,14.7943845 9.21752887,17.0579208 12.019802,17.0579208 C14.7884444,17.0579208 17.0579208,14.7884444 17.0579208,12.019802 C17.0579208,9.21752887 14.7943845,6.94207921 12.019802,6.94207921 Z" id="Combined-Shape" fill="#999999" fill-rule="nonzero"></path>
        </g>
        <g id="WhatsApp-Grey-Icon" transform="translate(24.000000, 1394.000000)">
            <rect id="Rectangle" x="0" y="0" width="24" height="24"></rect>
            <path d="M6.19910391,11.8590573 C6.19910391,8.62219745 8.84175209,6 12.0996126,6 C15.3576974,6 18,8.62205951 18,11.8590573 C18,15.0959759 15.3575349,17.7181147 12.0996126,17.7181147 C11.1706944,17.7181147 10.2720224,17.5041837 9.45985946,17.1001083 L6.71152654,17.9734492 C6.28532647,18.1088833 5.88622568,17.7020446 6.02981809,17.2785235 L6.91702614,14.6617325 C6.44895098,13.8102471 6.19910391,12.8521801 6.19910391,11.8590573 Z M9.3459105,15.9917436 C9.48813447,15.9465489 9.64266528,15.9616044 9.77349106,16.0334016 C10.4799499,16.421106 11.2740458,16.6272908 12.0996126,16.6272908 C14.7569671,16.6272908 16.9091761,14.4916369 16.9091761,11.8590573 C16.9091761,9.22639081 14.757122,7.09082386 12.0996126,7.09082386 C9.4423086,7.09082386 7.28992776,9.226548 7.28992776,11.8590573 C7.28992776,12.7388367 7.53035858,13.5827191 7.97876944,14.3190358 C8.06274621,14.4569306 8.08131319,14.624945 8.02947205,14.7778488 L7.40925566,16.6071566 L9.3459105,15.9917436 Z M10.1788027,12.4800347 C10.0659078,12.3329998 9.88326039,12.070149 9.9145643,12.111434 C9.82145874,11.9886315 9.73408493,11.8589588 9.63927526,11.68268 C9.45953046,11.3484822 9.35122124,11.0100545 9.35122124,10.6825432 C9.35122124,10.3142346 9.4522885,10.016075 9.62599441,9.76568698 C9.69365582,9.66815659 9.65985607,9.70629521 9.84665058,9.50368351 C9.97664222,9.36295742 10.1428975,9.29695451 10.30015,9.29695451 C10.3397164,9.29706367 10.3726203,9.29863567 10.4356605,9.30268971 C10.4975011,9.30668178 10.5209871,9.30786275 10.5485822,9.30786275 L10.5700446,9.30678943 C10.7475339,9.29538206 10.8681345,9.36688485 10.9695853,9.60870199 C11.0035222,9.68966904 11.0471471,9.79485991 11.1501603,10.0436234 C11.2851305,10.3693084 11.3561935,10.5385988 11.3703799,10.5668142 C11.4298116,10.6845853 11.4420451,10.7978918 11.3815148,10.9174479 C11.3618038,10.957436 11.3618038,10.957436 11.3426598,10.9958398 C11.3261937,11.0275626 11.3261937,11.0275626 11.3069068,11.0604381 C11.285479,11.095532 11.261461,11.1283855 11.2316515,11.1628612 C11.1999487,11.2001336 11.1999487,11.2001336 11.1655454,11.241683 C11.0956948,11.3260409 11.0645287,11.362108 11.0273384,11.398841 C10.9674472,11.458068 10.9675834,11.4577051 10.9914904,11.4984342 C11.1620902,11.7891557 11.3990043,12.1057635 11.6944848,12.367189 C11.9079216,12.5560163 12.1195034,12.6999051 12.3345939,12.813984 C12.4575111,12.8791764 12.7405809,13.0036705 12.7201869,12.9935489 C12.7981966,13.0322659 12.8079888,13.0310789 12.8418138,12.9925981 C12.9830121,12.8326626 13.180777,12.5944899 13.2465151,12.4963842 C13.365151,12.3194999 13.4956497,12.3047662 13.7015028,12.3789811 C13.8035905,12.4157945 14.2883925,12.6480241 14.6127656,12.8087145 C14.5232463,12.7642858 14.7714519,12.8849295 14.8100435,12.9084991 C14.8585305,12.9381121 14.8944211,12.9696733 14.9206636,13.0126491 C14.9903851,13.1287652 14.9624567,13.4501852 14.8555279,13.7486339 C14.7378266,14.0744561 14.1884701,14.4268513 13.8533601,14.4570856 C13.8296569,14.4592339 13.8091279,14.4630978 13.7735089,14.4715722 L13.7573433,14.4754433 C13.4650001,14.5454778 13.1481654,14.4867923 12.2161471,14.1227372 C11.7196294,13.9286849 11.2582889,13.6135352 10.8334839,13.2102265 C10.5898733,12.9789433 10.3725838,12.7324162 10.1788027,12.4800347 Z" id="Combined-Shape" fill="#999999" fill-rule="nonzero"></path>
        </g>
        <g id="Rupee-Icon" transform="translate(24.000000, 1658.000000)">
            <rect id="Rectangle" x="0" y="0" width="24" height="24"></rect>
            <g id="Rupee" transform="translate(6.000000, 6.000000)">
                <circle id="Ellipse_60" stroke="#042E6F" stroke-width="0.5" fill="#00BAF2" fill-rule="nonzero" cx="6" cy="6" r="5.75"></circle>
                <path d="M6.85704168,3.61303801 L8.15681661,3.61303801 L8.625,2.82352941 L3.85334692,2.82352941 L3.3850809,3.61303801 L4.6975809,3.61303801 C4.83309462,3.6198185 5.78086439,3.69542556 6.12080553,4.48112594 L3.84326602,4.48112594 L3.375,5.27063455 L6.23590956,5.27063455 C6.234918,5.28558877 6.23400907,5.30035722 6.23268698,5.31549721 C6.23268698,5.31549721 6.21921824,7.04340645 3.6401607,6.74404337 L3.6401607,7.11631989 L3.64280487,7.52379922 L6.42604193,10.0235294 L7.575,10.0235294 L4.81491595,7.39032582 L4.81491595,7.33766095 C4.81491595,7.33766095 6.9148829,7.37527872 7.26259129,5.28549589 C7.26259129,5.28549589 7.26325233,5.28029442 7.26424389,5.27063455 L8.14673571,5.27063455 L8.61508436,4.48112594 L7.22639921,4.48112594 C7.17368106,4.1910512 7.06675743,3.87181107 6.85704168,3.61303801 Z" id="Path" fill="#042E6F"></path>
            </g>
        </g>
        <g id="NP-Token-Icon" transform="translate(24.000000, 1702.000000)">
            <rect id="Rectangle" x="0" y="0" width="24" height="24"></rect>
            <g id="NP-Token" transform="translate(6.000000, 6.000000)" fill-rule="nonzero">
                <path d="M6,11.625 C2.89339828,11.625 0.375,9.10660172 0.375,6 C0.375,2.89339828 2.89339828,0.375 6,0.375 C9.10660172,0.375 11.625,2.89339828 11.625,6 C11.625,9.10660172 9.10660172,11.625 6,11.625 Z" id="Path" fill="#FFE17D"></path>
                <path d="M6,12 C9.3137085,12 12,9.3137085 12,6 C12,2.6862915 9.3137085,-5.32907052e-15 6,-5.32907052e-15 C2.6862915,-5.32907052e-15 0,2.6862915 0,6 C0,9.3137085 2.6862915,12 6,12 Z M6,11.625 C2.89339828,11.625 0.375,9.10660172 0.375,6 C0.375,2.89339828 2.89339828,0.375 6,0.375 C9.10660172,0.375 11.625,2.89339828 11.625,6 C11.625,9.10660172 9.10660172,11.625 6,11.625 Z" id="Ellipse_60" fill="#CE4649"></path>
                <path d="M1.83962295,3.67690401 C0.588543203,5.53288079 0.846091829,7.99087398 2.45621749,9.56156043 C4.06634314,11.1322469 6.58605539,11.383487 8.48863489,10.1630518 C8.54873427,10.1236441 8.57805376,10.0524191 8.56258417,9.98340897 C8.54711459,9.91439885 8.48999623,9.86161253 8.4185209,9.85027192 C5.20678287,9.33479902 2.68946057,6.87913724 2.16104438,3.74606909 C2.15000052,3.67579046 2.09580172,3.61936583 2.02462791,3.60405029 C1.95345411,3.58873475 1.87995091,3.61767982 1.83962295,3.67690401 L1.83962295,3.67690401 Z" id="Path_4783" fill="#FFD164"></path>
                <path d="M3.573961,5.4845679 L3.20711048,6.02160494 L4.95740741,6.02160494 L4.95740741,7.45987654 L3.573961,7.45987654 L3.20711048,7.99691358 L4.95740741,7.99691358 L4.95740741,9.23148148 L5.72283951,9.23148148 L5.72283951,7.99691358 L7.49368147,7.99691358 L7.78201921,7.45987654 L5.72283951,7.45987654 L5.72283951,6.02160494 L5.97283951,6.02160494 C7.07317624,6.02160494 7.07317624,6.02160494 7.57992328,6.02160494 C8.60280069,6.02160494 9.23050467,5.33037984 9.22557464,4.42110856 C9.22065208,3.51321622 8.58672075,2.81790123 7.57992328,2.81790123 C6.59560758,2.81790123 6.54883904,2.81790123 4.95740741,2.81790123 L4.95740741,5.4845679 L3.573961,5.4845679 Z M5.97283951,3.35493827 C6.94134516,3.35493827 6.94134516,3.35493827 7.49588694,3.35493827 C8.16849833,3.35493827 8.61494291,3.82628613 8.61440105,4.41998126 C8.61385959,5.01324181 8.16714884,5.4845679 7.49588694,5.4845679 C7.02321918,5.4845679 7.02321918,5.4845679 5.97283951,5.4845679 L5.72283951,5.4845679 L5.72283951,3.35493827 L5.97283951,3.35493827 Z" id="Combined-Shape" stroke="#CE4649" stroke-width="0.5" fill="#CE4649"></path>
            </g>
        </g>
        <g id="WhatsApp-Green-Icon" transform="translate(24.000000, 1746.000000)">
            <rect id="Rectangle" x="0" y="0" width="24" height="24"></rect>
            <path d="M18,11.8454667 C18,15.0738667 15.3628,17.6909333 12.1090667,17.6909333 C11.0761333,17.6909333 10.1057333,17.4269333 9.26146667,16.9636 L6,18 L7.06333333,14.8637333 C6.52693333,13.9829333 6.218,12.9498667 6.218,11.8454667 C6.218,8.61706667 8.85546667,6 12.1090667,6 C15.3630667,6 18,8.61706667 18,11.8454667 Z M15.0838667,13.1917333 C15.0474667,13.1321333 14.9513333,13.0961333 14.8070667,13.0245333 C14.6625333,12.9529333 13.9524,12.6061333 13.8204,12.5585333 C13.688,12.5108 13.5914667,12.4868 13.4953333,12.6301333 C13.3992,12.7736 13.1224,13.0961333 13.038,13.1917333 C12.9537333,13.2876 12.8696,13.2996 12.7250667,13.2278667 C12.5808,13.1562667 12.1156,13.0048 11.564,12.5168 C11.1348,12.1370667 10.8449333,11.6682667 10.7606667,11.5246667 C10.6765333,11.3813333 10.7518667,11.3038667 10.824,11.2325333 C10.8890667,11.1682667 10.9685333,11.0652 11.0406667,10.9816 C11.1130667,10.8978667 11.1370667,10.8382667 11.1849333,10.7425333 C11.2333333,10.6469333 11.2092,10.5633333 11.1729333,10.4914667 C11.1369333,10.4198667 10.8478667,9.7148 10.7276,9.42786667 C10.6073333,9.1412 10.4872,9.18893333 10.4028,9.18893333 C10.3186667,9.18893333 10.2222667,9.17693333 10.126,9.17693333 C10.0297333,9.17693333 9.8732,9.2128 9.7408,9.35613333 C9.60853333,9.4996 9.2356,9.84626667 9.2356,10.5512 C9.2356,11.2562667 9.7528,11.9374667 9.8252,12.0329333 C9.89733333,12.1284 10.8238667,13.6222667 12.2918667,14.196 C13.76,14.7694667 13.76,14.5781333 14.0248,14.5541333 C14.2893333,14.5302667 14.8789333,14.2076 14.9997333,13.8732 C15.1197333,13.5382667 15.1197333,13.2514667 15.0838667,13.1917333 Z" id="WhatsApp" fill="#56D063" fill-rule="nonzero"></path>
        </g>
        <g id="App-Download-Icon" transform="translate(24.000000, 1790.000000)">
            <rect id="Rectangle" x="0" y="0" width="24" height="24"></rect>
            <path d="M7.2871517,7.38673894 C7.15950289,7.37784822 7.05860131,7.37551143 6.833339,7.37551143 C4.75560225,7.37551143 3.05583804,9.03393495 3.05583804,11.0644842 C3.05583804,13.0950334 4.75560225,14.7534569 6.833339,14.7534569 L8.55555934,14.7534569 C8.88907418,14.7534569 9.08347836,14.9421508 9.08347836,15.2620917 C9.08347836,15.5820326 8.88907418,15.7707264 8.55555934,15.7707264 L6.833339,15.7707264 C4.17504786,15.7707264 2,13.651367 2,11.0644842 C2,8.47751243 4.17487739,6.35824192 6.833339,6.35824192 C7.04042815,6.35824192 7.23468268,6.37637313 7.5126146,6.42107176 L7.64739224,6.35049984 C8.60869097,4.32141744 10.6496984,3 12.8609793,3 C15.8092561,3 18.2050973,5.13908467 18.4973325,7.98121427 L18.6058771,8.09295265 C20.5694098,8.36326981 21.9997493,9.95230732 22,11.9046454 C22,14.0715956 20.2554147,15.7712462 18.0276403,15.7712462 L15.4444407,15.7712462 C15.1109258,15.7712462 14.9165216,15.5825523 14.9165216,15.2626114 C14.9165216,14.9426705 15.1109258,14.7539767 15.4444407,14.7539767 L18.0276403,14.7539767 C19.6748787,14.7539767 20.944162,13.5152439 20.944162,11.9043695 C20.944162,10.2935823 19.6747065,9.05476232 18.0276403,9.05476232 C17.6941255,9.05476232 17.4997213,8.86606845 17.4997213,8.54612757 C17.4997213,6.01177356 15.4553804,4.01752937 12.8609793,4.01752937 C10.8142354,4.01752937 9.05059477,5.29350914 8.50072851,7.17433536 C8.40071462,7.41656454 8.09034174,7.55904463 7.80965574,7.47494176 C7.79486547,7.47299533 7.78489904,7.47168374 7.77788796,7.47083457 C7.65352727,7.42888842 7.48841,7.40087266 7.2871517,7.38673894 Z M14.9256861,17.6213464 C15.1372194,17.8276231 15.1372194,18.1183942 14.9257829,18.3245764 L12.3425903,20.8431861 C12.2799554,20.9038212 12.2264751,20.9418416 12.1736067,20.9647721 C12.119109,20.988423 12.056133,21 11.973307,21 C11.8172008,21 11.7253957,20.9610298 11.6039345,20.8428392 L9.02082414,18.3243097 C8.80940232,18.1181418 8.80940232,17.827146 9.02078516,17.6212258 C9.23564608,17.4116739 9.54456867,17.4116739 9.75937707,17.6211746 L11.2565546,19.0808544 L11.4718193,19.2907276 L11.4718193,11.0675159 C11.4718193,10.7475751 11.6662235,10.5588812 11.9997383,10.5588812 C12.3334124,10.5588812 12.5276573,10.7474749 12.5276573,11.0675159 L12.5276573,19.2392489 L14.1874776,17.6211951 C14.4023236,17.4116578 14.7111777,17.4117193 14.9256861,17.6213464 Z" id="Combined-Shape" fill="#999999" fill-rule="nonzero"></path>
        </g>
        <g id="Read-Article-Icon" transform="translate(24.000000, 1834.000000)">
            <rect id="Rectangle" x="0" y="0" width="24" height="24"></rect>
            <path d="M7.00691096,5.42969629 L16.993089,5.42969629 C17.18442,5.42969629 17.3554556,5.66300015 17.3554556,5.96453103 L17.3554556,11.9612283 C17.3554556,12.2627591 17.18442,12.496063 16.993089,12.496063 L7.00691096,12.496063 C6.81558002,12.496063 6.64454443,12.2627591 6.64454443,11.9612283 L6.64454443,5.96453103 C6.64454443,5.66300015 6.81558002,5.42969629 7.00691096,5.42969629 Z M7.7480315,11.503937 L16.2519685,11.503937 L16.3633296,11.3925759 L16.3633296,6.53318335 L16.2519685,6.42182227 L7.7480315,6.42182227 L7.63667042,6.53318335 L7.63667042,11.3925759 L7.7480315,11.503937 Z M7.14060742,14.5410574 L16.8593926,14.5410574 C17.1333606,14.5410574 17.3554556,14.7631523 17.3554556,15.0371204 C17.3554556,15.3110884 17.1333606,15.5331834 16.8593926,15.5331834 L7.14060742,15.5331834 C6.8666394,15.5331834 6.64454443,15.3110884 6.64454443,15.0371204 C6.64454443,14.7631523 6.8666394,14.5410574 7.14060742,14.5410574 Z M7.14060742,17.5781777 L13.2148481,17.5781777 C13.4888162,17.5781777 13.7109111,17.8002727 13.7109111,18.0742407 C13.7109111,18.3482087 13.4888162,18.5703037 13.2148481,18.5703037 L7.14060742,18.5703037 C6.8666394,18.5703037 6.64454443,18.3482087 6.64454443,18.0742407 C6.64454443,17.8002727 6.8666394,17.5781777 7.14060742,17.5781777 Z M20.200225,3 C20.640923,3 21,3.35907705 21,3.79977503 L21,20.200225 C21,20.640923 20.640923,21 20.200225,21 L3.79977503,21 C3.35907705,21 3,20.640923 3,20.200225 L3,3.79977503 C3,3.35907705 3.35907705,3 3.79977503,3 L20.200225,3 Z M19.8965129,3.99212598 L4.10348706,3.99212598 L3.99212598,4.10348706 L3.99212598,19.8965129 L4.10348706,20.007874 L19.8965129,20.007874 L20.007874,19.8965129 L20.007874,4.10348706 L19.8965129,3.99212598 Z" id="Combined-Shape" fill="#999999" fill-rule="nonzero"></path>
        </g>
        <g id="Applause-Icon" transform="translate(24.000000, 1878.000000)">
            <rect id="Rectangle" x="0" y="0" width="24" height="24"></rect>
            <path d="M10.113883,4.69999917 C9.87314294,4.42943569 9.5623491,4.25232044 9.22647791,4.19428461 C9.17142481,3.90614097 9.23382033,3.60532785 9.39648302,3.37467826 C9.5568675,3.15186328 9.79344235,3.01620153 10.0475003,3.00135816 C10.3015582,2.9865148 10.5492858,3.09388112 10.729208,3.29681363 L13.5517241,6.48155814 C13.4064162,6.83998491 13.3515692,7.23669924 13.3932204,7.62803372 C13.39969,7.68927101 13.441742,8.04331175 13.5046403,8.52631579 L10.113883,4.69999917 Z M18.3808941,6.83337163 C18.1980629,6.05005044 17.5037176,5.46455864 16.6567143,5.37949383 C16.6253738,4.81038673 17.0753976,4.31889589 17.6778622,4.26425335 C18.2439608,4.24043941 18.7445975,4.60729579 18.8590862,5.1298303 C19.2651829,6.85024597 20.112813,8.74362363 20.7095348,10.422237 C21.148308,11.6617862 21.0882991,13.0098925 20.5409049,14.2105263 C20.568848,13.4768464 20.4562613,12.7444235 20.2085329,12.0483097 C20.0215736,11.5213701 19.8097679,10.9733376 19.5942964,10.4161008 C19.1114052,9.24667381 18.7061569,8.05012523 18.3808941,6.83337163 Z M7.84627284,6.37304308 C7.54852149,6.03727181 7.16400868,5.81732932 6.74837537,5.74504242 C6.6802787,5.38758733 6.75735263,5.01443623 6.95843115,4.72806378 C7.15708878,4.4514957 7.45014751,4.28314839 7.76483688,4.26482476 C8.07952624,4.24650113 8.38632837,4.37991995 8.60906013,4.6319515 L8.89655172,4.95702236 C8.68326023,5.0892751 8.49320752,5.2646024 8.33580961,5.47431777 C8.12846102,5.76291309 7.99050125,6.10713782 7.93527952,6.47368421 L7.84627284,6.37304308 Z M16.0417269,6.68658861 C16.5964513,6.66247144 17.0864885,7.04213122 17.1973212,7.58189333 C17.5951422,9.35589376 18.4246667,11.3082433 19.0082438,13.0391394 C19.674425,15.0248006 19.1512869,17.2134441 17.6573266,18.6909482 L16.9645281,19.3782448 C15.9179359,20.4166315 14.4983881,21 13.0182076,21 C11.5380271,21 10.1184793,20.4166315 9.07188709,19.3782448 L6.75990133,17.0846197 L3.2919227,13.6441819 C3.09240947,13.4462753 2.98680735,13.1737446 3.00132113,12.8942174 C3.01583491,12.6146901 3.14910423,12.354366 3.36805878,12.1778436 C3.78707747,11.8630677 4.37726555,11.9092959 4.7412986,12.2854067 L7.37855683,14.9017212 C7.53496621,15.0515868 7.78358675,15.0494435 7.93734728,14.896904 C8.0911078,14.7443646 8.09326825,14.4977185 7.94220302,14.3425512 L3.85556888,10.2879756 C3.65605565,10.090069 3.55045353,9.8175383 3.56496731,9.53801102 C3.57948109,9.25848373 3.71275041,8.99815965 3.93170497,8.82163728 C4.35082152,8.50696322 4.9410177,8.55336206 5.30494478,8.92959584 L9.35211571,12.9446262 C9.50787238,13.0990368 9.7603146,13.0989482 9.91596119,12.9444285 C10.0716078,12.7899088 10.0715186,12.5394713 9.91576189,12.3850608 L5.58676787,8.09084085 C5.20752232,7.72980388 5.16075205,7.14429474 5.4779451,6.72850659 C5.65588054,6.51129086 5.91828853,6.37907989 6.20005345,6.36468137 C6.48181836,6.35028285 6.75653068,6.45504634 6.95602151,6.65297514 L11.3244787,10.9871358 C11.4801253,11.1416555 11.7325675,11.141744 11.8883242,10.9873335 C12.0440809,10.832923 12.0441701,10.5824855 11.8885235,10.4279658 L8.68921359,7.2524813 C8.30984403,6.89154949 8.2629018,6.30603229 8.57999219,5.89014705 C8.75778404,5.67385962 9.01944274,5.54219778 9.30038294,5.52765971 C9.58132314,5.51312164 9.85536974,5.61706184 10.0548797,5.81382469 L15.3505229,11.0658309 C15.3818911,11.0973209 15.4303427,11.1047232 15.4698076,11.0840548 C15.5092725,11.0633865 15.5304433,11.0195219 15.5219287,10.9760631 C15.2815619,9.74501913 15.0587343,8.09716809 15.0487689,8.0161003 C14.9901349,7.70743369 15.0639542,7.38849401 15.2524424,7.13611953 C15.4409306,6.88374504 15.7269984,6.72081734 16.0417269,6.68658861 Z" id="Combined-Shape" fill="#999999" fill-rule="nonzero"></path>
        </g>
        <g id="Search-Icon" transform="translate(24.000000, 1922.000000)">
            <rect id="Rectangle" x="0" y="0" width="24" height="24"></rect>
            <path d="M14.6575186,13.5178377 C15.2243327,12.7189068 15.5315755,11.7667289 15.5315755,10.7671293 C15.5315755,9.4937317 15.0358939,8.29670804 14.1353806,7.396694 C13.235117,6.4959312 12.0378438,6 10.7644462,6 C9.49104863,6 8.29402497,6.49568161 7.39401093,7.396694 C5.53532969,9.25487606 5.53532969,12.2791329 7.39401093,14.1380637 C8.29377538,15.0383273 9.49104863,15.5342585 10.7644462,15.5342585 C11.7642954,15.5342585 12.7162237,15.227515 13.5151547,14.6602016 L16.6212763,17.7663233 C16.7787663,17.9238133 16.9854251,18.0026831 17.1920839,18.0026831 C17.3987427,18.0026831 17.6054015,17.9238133 17.7633907,17.7663233 C18.0788698,17.4508442 18.0788698,16.9396881 17.7633907,16.624209 L14.6575186,13.5178377 Z M8.53637484,12.9956998 C7.30740392,11.7667289 7.30740392,9.76752965 8.53637484,8.53880832 C9.13164203,7.94354113 9.92283573,7.61558261 10.7646958,7.61558261 C11.6065558,7.61558261 12.3977495,7.94354113 12.9930167,8.53880832 C13.5882839,9.13407551 13.9162425,9.92526922 13.9162425,10.7671293 C13.9162425,11.6089893 13.5882839,12.400183 12.9935159,12.9954502 C12.9935159,12.9954502 12.9935159,12.9954502 12.9930167,12.9959494 L12.9930167,12.9959494 C12.3977495,13.5912166 11.6060567,13.9186759 10.7646958,13.9186759 C9.92283573,13.9186759 9.13164203,13.590967 8.53637484,12.9956998 Z" id="Shape" fill="#1A1A1A" fill-rule="nonzero"></path>
        </g>
        <g id="mApps-Closed-Icon" transform="translate(24.000000, 1966.000000)">
            <rect id="Rectangle" transform="translate(12.000000, 12.000000) scale(-1, -1) translate(-12.000000, -12.000000) " x="0" y="0" width="24" height="24"></rect>
            <path d="M6,8 C4.8954305,8 4,7.1045695 4,6 C4,4.8954305 4.8954305,4 6,4 C7.1045695,4 8,4.8954305 8,6 C8,7.1045695 7.1045695,8 6,8 Z M12,8 C10.8954305,8 10,7.1045695 10,6 C10,4.8954305 10.8954305,4 12,4 C13.1045695,4 14,4.8954305 14,6 C14,7.1045695 13.1045695,8 12,8 Z M18,8 C16.8954305,8 16,7.1045695 16,6 C16,4.8954305 16.8954305,4 18,4 C19.1045695,4 20,4.8954305 20,6 C20,7.1045695 19.1045695,8 18,8 Z M6,14 C4.8954305,14 4,13.1045695 4,12 C4,10.8954305 4.8954305,10 6,10 C7.1045695,10 8,10.8954305 8,12 C8,13.1045695 7.1045695,14 6,14 Z M12,14 C10.8954305,14 10,13.1045695 10,12 C10,10.8954305 10.8954305,10 12,10 C13.1045695,10 14,10.8954305 14,12 C14,13.1045695 13.1045695,14 12,14 Z M18,14 C16.8954305,14 16,13.1045695 16,12 C16,10.8954305 16.8954305,10 18,10 C19.1045695,10 20,10.8954305 20,12 C20,13.1045695 19.1045695,14 18,14 Z M6,20 C4.8954305,20 4,19.1045695 4,18 C4,16.8954305 4.8954305,16 6,16 C7.1045695,16 8,16.8954305 8,18 C8,19.1045695 7.1045695,20 6,20 Z M12,20 C10.8954305,20 10,19.1045695 10,18 C10,16.8954305 10.8954305,16 12,16 C13.1045695,16 14,16.8954305 14,18 C14,19.1045695 13.1045695,20 12,20 Z M18,20 C16.8954305,20 16,19.1045695 16,18 C16,16.8954305 16.8954305,16 18,16 C19.1045695,16 20,16.8954305 20,18 C20,19.1045695 19.1045695,20 18,20 Z" id="Combined-Shape" fill="#CE4649" fill-rule="nonzero"></path>
        </g>
        <g id="mApps-Opened-Icon" transform="translate(24.000000, 2010.000000)">
            <rect id="Rectangle" transform="translate(12.000000, 12.000000) scale(-1, -1) translate(-12.000000, -12.000000) " x="0" y="0" width="24" height="24"></rect>
            <path d="M6,8 C4.8954305,8 4,7.1045695 4,6 C4,4.8954305 4.8954305,4 6,4 C7.1045695,4 8,4.8954305 8,6 C8,7.1045695 7.1045695,8 6,8 Z M12,8 C10.8954305,8 10,7.1045695 10,6 C10,4.8954305 10.8954305,4 12,4 C13.1045695,4 14,4.8954305 14,6 C14,7.1045695 13.1045695,8 12,8 Z M18,8 C16.8954305,8 16,7.1045695 16,6 C16,4.8954305 16.8954305,4 18,4 C19.1045695,4 20,4.8954305 20,6 C20,7.1045695 19.1045695,8 18,8 Z M6,14 C4.8954305,14 4,13.1045695 4,12 C4,10.8954305 4.8954305,10 6,10 C7.1045695,10 8,10.8954305 8,12 C8,13.1045695 7.1045695,14 6,14 Z M12,14 C10.8954305,14 10,13.1045695 10,12 C10,10.8954305 10.8954305,10 12,10 C13.1045695,10 14,10.8954305 14,12 C14,13.1045695 13.1045695,14 12,14 Z M18,14 C16.8954305,14 16,13.1045695 16,12 C16,10.8954305 16.8954305,10 18,10 C19.1045695,10 20,10.8954305 20,12 C20,13.1045695 19.1045695,14 18,14 Z M6,20 C4.8954305,20 4,19.1045695 4,18 C4,16.8954305 4.8954305,16 6,16 C7.1045695,16 8,16.8954305 8,18 C8,19.1045695 7.1045695,20 6,20 Z M12,20 C10.8954305,20 10,19.1045695 10,18 C10,16.8954305 10.8954305,16 12,16 C13.1045695,16 14,16.8954305 14,18 C14,19.1045695 13.1045695,20 12,20 Z M18,20 C16.8954305,20 16,19.1045695 16,18 C16,16.8954305 16.8954305,16 18,16 C19.1045695,16 20,16.8954305 20,18 C20,19.1045695 19.1045695,20 18,20 Z" id="Combined-Shape" fill="#999999" fill-rule="nonzero"></path>
        </g>
        <g id="Detect-Location-Icon" transform="translate(24.000000, 2054.000000)">
            <rect id="Rectangle" x="0" y="0" width="24" height="24"></rect>
            <path d="M12.5271829,5.99011532 C15.4266886,6.25370675 17.7462932,8.57331137 18.0098847,11.4728171 L19.4859967,11.4728171 C20.1713344,11.4728171 20.1713344,12.5271829 19.4859967,12.5271829 L18.0098847,12.5271829 C17.7462932,15.4266886 15.4266886,17.7462932 12.5271829,18.0098847 L12.5271829,19.4859967 C12.5271829,20.1713344 11.4728171,20.1713344 11.4728171,19.4859967 L11.4728171,18.0098847 C8.57331137,17.7462932 6.25370675,15.4266886 5.99011532,12.5271829 L4.51400329,12.5271829 C3.82866557,12.5271829 3.82866557,11.4728171 4.51400329,11.4728171 L5.99011532,11.4728171 C6.25370675,8.57331137 8.57331137,6.25370675 11.4728171,5.99011532 L11.4728171,4.51400329 C11.4728171,3.82866557 12.5271829,3.82866557 12.5271829,4.51400329 L12.5271829,5.99011532 Z M12.5271829,7.04448105 L12.5271829,8.36243822 C12.5271829,9.04777595 11.4728171,9.04777595 11.4728171,8.36243822 L11.4728171,7.04448105 C9.15321252,7.30807249 7.30807249,9.15321252 7.04448105,11.4728171 L8.36243822,11.4728171 C9.04777595,11.4728171 9.04777595,12.5271829 8.36243822,12.5271829 L7.04448105,12.5271829 C7.30807249,14.8467875 9.15321252,16.6919275 11.4728171,16.9028007 L11.4728171,15.6375618 C11.4728171,14.9522241 12.5271829,14.9522241 12.5271829,15.6375618 L12.5271829,16.9028007 C14.8467875,16.6919275 16.6919275,14.8467875 16.9028007,12.5271829 L15.6375618,12.5271829 C14.9522241,12.5271829 14.9522241,11.4728171 15.6375618,11.4728171 L16.9028007,11.4728171 C16.6919275,9.15321252 14.8467875,7.30807249 12.5271829,7.04448105 Z M12,11.261944 C12.369028,11.261944 12.6853377,11.5782537 12.6853377,12 C12.6853377,12.369028 12.369028,12.6853377 12,12.6853377 C11.5782537,12.6853377 11.261944,12.369028 11.261944,12 C11.261944,11.5782537 11.5782537,11.261944 12,11.261944 Z" id="Combined-Shape" fill="#999999" fill-rule="nonzero"></path>
        </g>
        <g id="Edit-Icon" transform="translate(24.000000, 2098.000000)">
            <rect id="Rectangle" x="0" y="0" width="24" height="24"></rect>
            <path d="M6.49530135,17.9988034 C6.53992585,18.0026592 6.58486525,17.9971726 6.62724358,17.9826947 L10.0719799,16.9792203 C10.2618504,16.929606 10.433484,16.8266741 10.5665259,16.6826315 L17.6705232,9.59103322 C17.8853539,9.37139916 18.0038568,9.07548855 18,8.76854427 C18.0037868,8.46636108 17.88497,8.17547751 17.6705232,7.96216397 L16.0388061,6.33329472 C15.5859898,5.88890176 14.8599052,5.88890176 14.4070889,6.33329472 L7.31922835,13.424893 C7.18613488,13.5664782 7.08484319,13.7347877 7.02212103,13.9185759 L6.01784135,17.3572999 C5.96986916,17.5335732 6.02022585,17.7219908 6.14978357,17.8509828 C6.24143921,17.943056 6.36530025,17.9960467 6.49530135,17.9988034 Z M13.2347964,8.91636486 L15.0971752,10.7754931 L10.2020236,15.6621009 L8.34154331,13.8039202 L13.2347964,8.91636486 Z M15.1332457,7.02122903 C15.16457,6.99130701 15.205735,6.97379189 15.2490511,6.9719555 C15.293024,6.97063012 15.3353624,6.98864449 15.3648566,7.02122903 L16.9965737,8.65009828 C17.0214601,8.68447438 17.0383253,8.72397384 17.0459334,8.76570156 C17.0492927,8.80995618 17.0308812,8.85307688 16.9965737,8.88130485 L15.8100429,10.0657647 L13.9476641,8.20663649 L15.1332457,7.02122903 Z M7.83086044,14.6756827 L9.31449858,16.1567313 L7.22145821,16.7650699 L7.83086044,14.6756827 Z" id="Path_4889" fill="#999999" fill-rule="nonzero"></path>
        </g>
        <g id="Arrow-Back-Icon" transform="translate(24.000000, 2142.000000)">
            <rect id="Rectangle" x="0" y="0" width="24" height="24"></rect>
            <path d="M14.740806,11.3869434 L9.50755668,6.2542153 C9.16196474,5.91526157 8.60478589,5.91526157 8.25919395,6.2542153 C7.91360202,6.59316904 7.91360202,7.13964548 8.25919395,7.47859922 L12.8717884,11.9991353 L8.25919395,16.5231301 C7.91360202,16.8620839 7.91360202,17.4085603 8.25919395,17.7475141 C8.43198992,17.9169909 8.65768262,18 8.88337531,18 C9.10906801,18 9.33476071,17.9169909 9.50755668,17.7475141 L14.740806,12.614786 C15.086398,12.2723735 15.086398,11.7258971 14.740806,11.3869434 Z" id="Path-Copy-3" fill="#000000" fill-rule="nonzero" transform="translate(11.500000, 12.000000) rotate(-180.000000) translate(-11.500000, -12.000000) "></path>
        </g>
        <g id="Arrow-Right-Icon" transform="translate(24.000000, 2186.000000)">
            <rect id="Rectangle" x="0" y="0" width="24" height="24"></rect>
            <path d="M14.7778338,11.4891195 L10.2921914,7.21184609 C9.99596977,6.92938464 9.51838791,6.92938464 9.22216625,7.21184609 C8.92594458,7.49430754 8.92594458,7.94970457 9.22216625,8.23216602 L13.1758186,11.9992794 L9.22216625,15.7692751 C8.92594458,16.0517366 8.92594458,16.5071336 9.22216625,16.789595 C9.37027708,16.9308258 9.56372796,17 9.75717884,17 C9.95062972,17 10.1440806,16.9308258 10.2921914,16.789595 L14.7778338,12.5123217 C15.0740554,12.226978 15.0740554,11.7715809 14.7778338,11.4891195 Z" id="Path-Copy-4" fill="#CE4649" fill-rule="nonzero"></path>
        </g>
        <g id="Arrow-Down-Icon" transform="translate(24.000000, 2230.000000)">
            <rect id="Rectangle" x="0" y="0" width="24" height="24"></rect>
            <path d="M14.7778338,11.4891195 L10.2921914,7.21184609 C9.99596977,6.92938464 9.51838791,6.92938464 9.22216625,7.21184609 C8.92594458,7.49430754 8.92594458,7.94970457 9.22216625,8.23216602 L13.1758186,11.9992794 L9.22216625,15.7692751 C8.92594458,16.0517366 8.92594458,16.5071336 9.22216625,16.789595 C9.37027708,16.9308258 9.56372796,17 9.75717884,17 C9.95062972,17 10.1440806,16.9308258 10.2921914,16.789595 L14.7778338,12.5123217 C15.0740554,12.226978 15.0740554,11.7715809 14.7778338,11.4891195 Z" id="Path-Copy-5" fill="#CE4649" fill-rule="nonzero" transform="translate(12.000000, 12.000000) rotate(-270.000000) translate(-12.000000, -12.000000) "></path>
        </g>
        <g id="Arrow-Up-Icon" transform="translate(24.000000, 2274.000000)">
            <rect id="Rectangle" x="0" y="0" width="24" height="24"></rect>
            <path d="M14.7778338,11.4891195 L10.2921914,7.21184609 C9.99596977,6.92938464 9.51838791,6.92938464 9.22216625,7.21184609 C8.92594458,7.49430754 8.92594458,7.94970457 9.22216625,8.23216602 L13.1758186,11.9992794 L9.22216625,15.7692751 C8.92594458,16.0517366 8.92594458,16.5071336 9.22216625,16.789595 C9.37027708,16.9308258 9.56372796,17 9.75717884,17 C9.95062972,17 10.1440806,16.9308258 10.2921914,16.789595 L14.7778338,12.5123217 C15.0740554,12.226978 15.0740554,11.7715809 14.7778338,11.4891195 Z" id="Path-Copy-6" fill="#CE4649" fill-rule="nonzero" transform="translate(12.000000, 12.000000) rotate(-90.000000) translate(-12.000000, -12.000000) "></path>
        </g>
        <g id="Close-Icon" transform="translate(24.000000, 2318.000000)">
            <rect id="Rectangle" x="0" y="0" width="24" height="24"></rect>
            <path d="M13.1565375,12.0005836 L17.7591153,7.39955574 C18.0812764,7.07746874 18.0793119,6.56144297 17.7591153,6.24082893 C17.438428,5.91874239 16.922283,5.92267013 16.6020869,6.24082893 L12,10.8418572 L7.39791324,6.24082893 C7.07575259,5.91874239 6.55960761,5.92070649 6.24088435,6.24082893 C5.91872369,6.5634066 5.92068824,7.0789417 6.24088435,7.39955574 L10.8434622,12.0005836 L6.24088435,16.5996478 C5.91872369,16.9217343 5.92068824,17.4377606 6.24088435,17.757883 C6.56157216,18.0804607 7.07771668,18.0784971 7.39791324,17.757883 L12,13.1568552 L16.6020869,17.757883 C16.9242475,18.0804607 17.4403925,18.0784971 17.7591153,17.757883 C18.0812764,17.4357965 18.0793119,16.9197702 17.7591153,16.5996478 L13.1565375,12.0005836 Z" id="Path" fill="#999999" fill-rule="nonzero"></path>
        </g>
    </g>
</svg>