<svg xmlns="http://www.w3.org/2000/svg" xmlns:xlink="http://www.w3.org/1999/xlink" width="320" height="240" viewBox="0 0 320 240">
    <defs>
        <linearGradient id="b" x1="50.293%" x2="50%" y1="78.125%" y2="21.876%">
            <stop offset="0%" stop-color="#EFEFEF"/>
            <stop offset="43.975%" stop-color="#F6F6F6"/>
            <stop offset="78.806%" stop-color="#ECECEC"/>
            <stop offset="100%" stop-color="#DCDCDC"/>
        </linearGradient>
        <rect id="a" width="320" height="240" rx="20"/>
        <linearGradient id="d" x1="92.266%" x2="12.401%" y1="60.045%" y2="45.815%">
            <stop offset="0%" stop-color="#D8D8D8"/>
            <stop offset="70.306%" stop-color="#BFBFBF"/>
            <stop offset="100%" stop-color="#979797"/>
        </linearGradient>
        <linearGradient id="e" x1="92.266%" x2="12.401%" y1="69.828%" y2="41.738%">
            <stop offset="0%" stop-color="#D8D8D8"/>
            <stop offset="70.306%" stop-color="#BFBFBF"/>
            <stop offset="100%" stop-color="#979797"/>
        </linearGradient>
        <linearGradient id="f" x1="95.386%" x2="0%" y1="50.69%" y2="61.048%">
            <stop offset="0%" stop-color="#D8D8D8"/>
            <stop offset="47.584%" stop-color="#BFBFBF"/>
            <stop offset="100%" stop-color="#979797"/>
        </linearGradient>
        <radialGradient id="g" cx="42.929%" cy="56.547%" r="80.43%" fx="42.929%" fy="56.547%" gradientTransform="matrix(.70958 -.70306 .59881 .60168 -.214 .527)">
            <stop offset="0%" stop-color="#656565"/>
            <stop offset="100%" stop-color="#D9D9D9"/>
        </radialGradient>
    </defs>
    <g fill="none" fill-rule="evenodd">
        <g>
            <mask id="c" fill="#fff">
                <use xlink:href="#a"/>
            </mask>
            <use fill="url(#b)" fill-rule="nonzero" xlink:href="#a"/>
            <g fill="#D1D1D1" fill-rule="nonzero" mask="url(#c)">
                <path d="M144.57 63c-1.92 0-3.57 1.56-3.57 3.57 0 1.92 1.56 3.57 3.57 3.57 1.92 0 3.57-1.56 3.57-3.57 0-1.92-1.56-3.57-3.57-3.57zm0 5.77c-1.19 0-2.2-1.01-2.2-2.2 0-1.19 1.01-2.2 2.2-2.2 1.19 0 2.2 1.01 2.2 2.2 0 1.19-1.01 2.2-2.2 2.2zM195.57 46c-1.92 0-3.57 1.56-3.57 3.57 0 1.92 1.56 3.57 3.57 3.57 1.92 0 3.57-1.56 3.57-3.57 0-1.92-1.56-3.57-3.57-3.57zm0 5.77c-1.19 0-2.2-1.01-2.2-2.2 0-1.19 1.01-2.2 2.2-2.2 1.19 0 2.2 1.01 2.2 2.2 0 1.19-1.01 2.2-2.2 2.2zM241.57 101c-1.92 0-3.57 1.56-3.57 3.57 0 1.92 1.56 3.57 3.57 3.57 1.92 0 3.57-1.56 3.57-3.57 0-1.92-1.56-3.57-3.57-3.57zm0 5.77c-1.19 0-2.2-1.01-2.2-2.2 0-1.19 1.01-2.2 2.2-2.2 1.19 0 2.2 1.01 2.2 2.2 0 1.19-1.01 2.2-2.2 2.2z"/>
            </g>
        </g>
        <g fill="#E9E9E9" fill-rule="nonzero">
            <path d="M256.311 98.711H96.213a5.828 5.828 0 0 1-5.83-5.83 5.828 5.828 0 0 1 5.83-5.83H256.31a5.828 5.828 0 0 1 5.83 5.83c.02 3.222-2.608 5.83-5.83 5.83zM128.029 110.372h44.532a5.828 5.828 0 0 1-5.83-5.83 5.828 5.828 0 0 1 5.83-5.83h-44.532a5.828 5.828 0 0 1 5.83 5.83 5.828 5.828 0 0 1-5.83 5.83zM240.413 122.051H51.68a5.828 5.828 0 0 1-5.83-5.83 5.828 5.828 0 0 1 5.83-5.83h188.732a5.828 5.828 0 0 1 5.83 5.83c0 3.203-2.608 5.83-5.83 5.83z"/>
            <path d="M156.643 133.711h56.192a5.828 5.828 0 0 1-5.83-5.83 5.828 5.828 0 0 1 5.83-5.83h-56.192a5.828 5.828 0 0 1 5.83 5.83 5.828 5.828 0 0 1-5.83 5.83z"/>
            <path d="M282.835 145.372H86.662a5.828 5.828 0 0 1-5.83-5.83 5.828 5.828 0 0 1 5.83-5.83h196.154a5.828 5.828 0 0 1 5.83 5.83c.019 3.221-2.59 5.83-5.811 5.83z"/>
            <path d="M138.615 157.032h26.504a5.828 5.828 0 0 1-5.83-5.83 5.828 5.828 0 0 1 5.83-5.83h-26.504a5.828 5.828 0 0 1 5.83 5.83c.02 3.222-2.608 5.83-5.83 5.83z"/>
            <path d="M272.23 168.692H66.524a5.828 5.828 0 0 1-5.83-5.83 5.828 5.828 0 0 1 5.83-5.83h205.704a5.828 5.828 0 0 1 5.83 5.83 5.828 5.828 0 0 1-5.83 5.83z"/>
        </g>
        <path fill="#656565" d="M157.57 148.92l25.124 17.958-13.343-21.574z"/>
        <path fill="#818181" d="M58.102 154.729l23.818-2.804-6.428-28.772zM170.317 148.464l12.377 18.414-3.453-22.694z"/>
        <path fill="#656565" d="M67.137 109.17l102.423 26.825-94.068-12.842-17.39 31.576z"/>
        <path fill="url(#d)" d="M21.847 45.31l100.88 32.147-2.687-8.688L6.447 14.828z" transform="rotate(-3 1263.854 -787.524)"/>
        <path fill="url(#e)" d="M140.133 69.408l-15.473 6.447-8.38-18.05 14.613 2.919z" transform="rotate(-3 1587.47 -639.956)"/>
        <path fill="#818181" d="M164.127 151.432l1.052-4.574-5.78 1.57z"/>
        <path fill="url(#f)" d="M46.895 101.581l-7.737-45.773 78.653 14.828 9.67 13.538z" transform="rotate(-3 1343.218 -604.295)"/>
        <path fill="url(#g)" fill-rule="nonzero" d="M147.39 67.051a1.806 1.806 0 0 1-3.61 0v-1.636a1.806 1.806 0 1 1 3.61 0v1.636zm0-9.177a1.806 1.806 0 0 1-3.61 0v-4.815a1.806 1.806 0 1 1 3.61 0v4.815zm0-18.852a1.806 1.806 0 0 1-3.61 0v-4.815a1.806 1.806 0 1 1 3.61 0v4.815zm0-14.445a1.806 1.806 0 0 1-3.61 0v-4.814a1.806 1.806 0 1 1 3.61 0v4.814zm0-15.718a1.806 1.806 0 0 1-3.61 0V7.222a1.806 1.806 0 1 1 3.61 0V8.86zm11.325 64.555a1.806 1.806 0 1 1-2.553-2.554l1.157-1.157a1.806 1.806 0 1 1 2.553 2.554l-1.157 1.157zm6.49-6.49a1.806 1.806 0 0 1-2.554-2.553l3.405-3.405a1.806 1.806 0 1 1 2.553 2.554l-3.405 3.404zm13.33-13.33a1.806 1.806 0 1 1-2.554-2.554l3.405-3.404a1.806 1.806 0 1 1 2.554 2.553l-3.405 3.405zm10.214-10.214a1.806 1.806 0 1 1-2.554-2.553l3.405-3.405a1.806 1.806 0 1 1 2.554 2.554l-3.405 3.404zm11.114-11.115a1.806 1.806 0 1 1-2.553-2.553l1.157-1.157a1.806 1.806 0 1 1 2.553 2.553l-1.157 1.157zM162.224 85.92a1.806 1.806 0 1 1 0-3.61h1.637a1.806 1.806 0 1 1 0 3.61h-1.637zm9.178 0a1.806 1.806 0 1 1 0-3.61h4.814a1.806 1.806 0 1 1 0 3.61h-4.814zm18.852 0a1.806 1.806 0 0 1 0-3.61h4.815a1.806 1.806 0 1 1 0 3.61h-4.815zm14.444 0a1.806 1.806 0 1 1 0-3.61h4.815a1.806 1.806 0 1 1 0 3.61h-4.815zm15.719 0a1.806 1.806 0 0 1 0-3.61h1.636a1.806 1.806 0 1 1 0 3.61h-1.636zm-64.555 11.325a1.806 1.806 0 1 1 2.554-2.553l1.157 1.158a1.806 1.806 0 0 1-2.554 2.553l-1.157-1.158zm6.49 6.49a1.806 1.806 0 1 1 2.553-2.554l3.404 3.405a1.806 1.806 0 0 1-2.553 2.553l-3.405-3.404zm13.33 13.33a1.806 1.806 0 0 1 2.553-2.553l3.405 3.404a1.806 1.806 0 0 1-2.554 2.554l-3.404-3.405zm10.213 10.214a1.806 1.806 0 1 1 2.554-2.553l3.404 3.404a1.806 1.806 0 1 1-2.553 2.554l-3.405-3.405zm11.115 11.114a1.806 1.806 0 0 1 2.554-2.552l1.157 1.157a1.806 1.806 0 1 1-2.554 2.553l-1.157-1.158zM134.883 70.56a1.806 1.806 0 0 1-2.553 2.554l-1.157-1.157a1.806 1.806 0 0 1 2.553-2.554l1.157 1.157zm-6.49-6.49a1.806 1.806 0 1 1-2.553 2.554l-3.404-3.405a1.806 1.806 0 0 1 2.553-2.553l3.405 3.405zm-13.33-13.33a1.806 1.806 0 1 1-2.553 2.554l-3.404-3.405a1.806 1.806 0 0 1 2.553-2.553l3.405 3.404zM104.85 40.527a1.806 1.806 0 0 1-2.554 2.553l-3.404-3.404a1.806 1.806 0 0 1 2.553-2.554l3.405 3.405zM93.735 29.412a1.806 1.806 0 1 1-2.553 2.554l-1.158-1.157a1.806 1.806 0 0 1 2.553-2.554l1.158 1.157z" transform="translate(31 48)"/>
    </g>
</svg>
