<svg xmlns="http://www.w3.org/2000/svg" width="22" height="20" viewBox="0 0 22 20">
    <g fill="none" fill-rule="evenodd">
        <path d="M-1-2h24v24H-1z"/>
        <path fill="#CE4649" fill-rule="nonzero" d="M15.754 9.473a2.064 2.064 0 0 1-2.063-2.065 2.064 2.064 0 1 1 2.063 2.065zM22 7.07v.705c-.014.009-.014.023-.014.037-.008.228-.03.455-.069.68-.048.324-.12.643-.214.956a6.54 6.54 0 0 1-1.73 2.83c-.195.186-.4.359-.615.518a5.86 5.86 0 0 1-1.143.662 6.09 6.09 0 0 1-1.607.464 5.468 5.468 0 0 1-1.788-.003 6.206 6.206 0 0 1-.879-.21 6.645 6.645 0 0 1-1.337-.61v6.781c0 .067-.052.12-.115.121h-2.92a.119.119 0 0 1-.116-.121V6.866A3.389 3.389 0 0 0 8.421 4.92a3.34 3.34 0 0 0-.874-.572 3.342 3.342 0 0 0-1.36-.282H6.17a3.23 3.23 0 0 0-1.41.426 3.317 3.317 0 0 0-1.01.91 3.406 3.406 0 0 0-.596 1.394v7.145c0 .067-.052.12-.115.121H.115a.119.119 0 0 1-.115-.12V.12C0 .054.052.001.115 0h2.923c.063 0 .115.054.115.121v1.644c.085-.055.175-.11.263-.158a5.74 5.74 0 0 1 1.301-.556c.41-.12.831-.186 1.256-.196.016 0 .038.006.05-.014h.329c.01.017.027.014.044.014.247.004.494.028.738.072.607.107 1.2.289 1.766.541l.036.018c.602.287 1.16.667 1.653 1.128.208.199.4.413.577.642.259.335.483.698.668 1.083.188.393.339.805.45 1.229.111.408.191.825.24 1.246.03.277.03.559.035.841v.02a3.451 3.451 0 0 0 1.175 2.352c.258.227.55.408.863.536a2.86 2.86 0 0 0 1.766.152 3.234 3.234 0 0 0 2.214-1.704c.194-.386.317-.807.36-1.24.028-.27.025-.543-.009-.813a3.403 3.403 0 0 0-.783-1.753 3.172 3.172 0 0 0-2.34-1.131 3.046 3.046 0 0 0-.604.054 3.022 3.022 0 0 0-1.17.48 4.52 4.52 0 0 0-.555.461c-.054.052-.109.035-.126-.043a3.138 3.138 0 0 0-.178-.544 6.26 6.26 0 0 0-1.211-1.987c-.088-.098-.108-.184.002-.28a8.65 8.65 0 0 1 .827-.592 6.191 6.191 0 0 1 2-.683c.206-.034.414-.055.623-.063a5.32 5.32 0 0 1 .642.009 7.7 7.7 0 0 1 .81.103c2.405.439 4.34 2.309 4.948 4.78l.008.028c.091.403.145.815.162 1.23.002.012 0 .029.017.042z"/>
    </g>
</svg>
