<svg xmlns="http://www.w3.org/2000/svg" viewBox="4 14.499 60 60">
  <defs>
    <style>
      .cls-1 {
        opacity: 0.56;
      }

      .cls-2 {
        fill: #fff;
      }

      .cls-3, .cls-5 {
        fill: none;
      }

      .cls-3 {
        stroke: #fff;
        stroke-width: 2.5px;
      }

      .cls-4 {
        stroke: none;
      }
    </style>
  </defs>
  <g id="Video_Icon" transform="translate(-204 -329.5)">
    <path id="Path_415" data-name="Path 415" class="cls-1" d="M29.106,0A29.106,29.106,0,1,1,0,29.106,29.106,29.106,0,0,1,29.106,0Z" transform="translate(209.532 345.532)"/>
    <g id="_375" data-name="375" transform="translate(233.584 363.893)">
      <path id="Path_416" data-name="Path 416" class="cls-2" d="M27.708,19.3,14.984,10.052a1.534,1.534,0,0,0-2.437,1.238V29.782a1.53,1.53,0,0,0,.838,1.368,1.545,1.545,0,0,0,.7.165,1.525,1.525,0,0,0,.9-.3l12.724-9.241a1.522,1.522,0,0,0,0-2.475Z" transform="translate(-12.547 -9.758)"/>
    </g>
    <g id="Ellipse_179" data-name="Ellipse 179" class="cls-3" transform="translate(208 343.999)">
      <circle class="cls-4" cx="30" cy="30" r="30"/>
      <circle class="cls-5" cx="30" cy="30" r="28.75"/>
    </g>
  </g>
</svg>
