<svg xmlns="http://www.w3.org/2000/svg" xmlns:xlink="http://www.w3.org/1999/xlink" width="328" height="90" viewBox="0 0 328 90">
    <defs>
        <linearGradient id="b" x1="93.253%" x2="32.132%" y1="46.235%" y2="53.765%">
            <stop offset="0%" stop-color="#FFEC61"/>
            <stop offset="100%" stop-color="#FFD027"/>
        </linearGradient>
        <rect id="a" width="328" height="90" rx="4"/>
    </defs>
    <g fill="none" fill-rule="evenodd">
        <mask id="c" fill="#fff">
            <use xlink:href="#a"/>
        </mask>
        <use fill="url(#b)" xlink:href="#a"/>
        <g mask="url(#c)">
            <g fill="#FFF" transform="translate(179 -68)">
                <circle cx="105.5" cy="105.5" r="105.5" opacity=".15"/>
                <circle cx="106" cy="105" r="67" opacity=".2"/>
                <circle cx="105.5" cy="105.5" r="33.5" opacity=".25"/>
                <circle cx="106.5" cy="104.5" r="12.5"/>
            </g>
            <g opacity=".5">
                <path fill="#FFF" d="M341.922 44.525c-1.123 0-2.185.202-3.202.495-3.223-4.235-8.57-7.02-14.64-7.02-6.072 0-11.418 2.784-14.64 7.02-1.018-.293-2.08-.495-3.203-.495-5.912 0-10.706 4.382-10.706 9.788h57.094c.002-5.406-4.79-9.788-10.703-9.788zM181.499 18.4c.786 0 1.53.136 2.243.334C186 15.878 189.745 14 194 14s8 1.878 10.257 4.734c.713-.198 1.456-.334 2.244-.334 4.142 0 7.5 2.955 7.5 6.6h-40c-.002-3.645 3.356-6.6 7.499-6.6zM181.499 31.6c.786 0 1.53-.136 2.243-.334C186 34.122 189.745 36 194 36s8-1.878 10.257-4.734c.713.198 1.456.334 2.244.334 4.142 0 7.5-2.955 7.5-6.6h-40c-.002 3.645 3.356 6.6 7.499 6.6z"/>
                <path fill="#FFF1A9" d="M185.375 23c0-5.255-3.933-9.515-8.784-9.515-.732 0-1.432.125-2.112.308-2.292-2.681-5.542-4.387-9.181-4.387-6.93 0-12.548 6.086-12.548 13.593h32.625V23z"/>
            </g>
        </g>
    </g>
</svg>
