<svg xmlns="http://www.w3.org/2000/svg" width="44" height="40" viewBox="0 0 44 40">
    <defs>
        <filter id="a" width="140%" height="159.3%" x="-20%" y="-29.6%" filterUnits="objectBoundingBox">
            <feOffset dy="1" in="SourceAlpha" result="shadowOffsetOuter1"/>
            <feGaussianBlur in="shadowOffsetOuter1" result="shadowBlurOuter1" stdDeviation="1.5"/>
            <feColorMatrix in="shadowBlurOuter1" result="shadowMatrixOuter1" values="0 0 0 0 0.88627451 0 0 0 0 0.117647059 0 0 0 0 0.376470588 0 0 0 0.485440341 0"/>
            <feMerge>
                <feMergeNode in="shadowMatrixOuter1"/>
                <feMergeNode in="SourceGraphic"/>
            </feMerge>
        </filter>
    </defs>
    <g fill="none" fill-rule="nonzero" filter="url(#a)" transform="rotate(-30 29.33 16)">
        <path d="M31.73 4.935c2.177-.179 4.097 1.399 4.312 3.543-.215 2.144-2.135 3.722-4.311 3.543-2.176.177-4.094-1.4-4.31-3.543.216-2.143 2.134-3.72 4.31-3.543z"/>
        <ellipse cx="9.459" cy="8.478" rx="3.592" ry="3.543"/>
        <path fill="#E21E60" d="M38.084 12.572a63.093 63.093 0 0 0-1.402-5.59A8.785 8.785 0 0 0 35.63 4.61c-.383-.571-.76-1.147-1.151-1.712a.902.902 0 0 0-.318-.24c-.088-.05-.154-.084-.162-.208a.274.274 0 0 0-.103-.164 1.182 1.182 0 0 0-.276-.152 5.583 5.583 0 0 0-4.185-.056.229.229 0 0 0-.175.247c.017.191-.057.297-.253.314a.138.138 0 0 0-.044.016 2.306 2.306 0 0 1-1.053.229h-3.094l-.703.018c-.03-.07.094-.77-.815-.764h-5.838c-.632.019-.573.783-.575.764l-.36-.018h-3.118a2.287 2.287 0 0 1-1.052-.229.106.106 0 0 0-.045-.016c-.195-.017-.271-.123-.252-.314a.229.229 0 0 0-.175-.247 5.588 5.588 0 0 0-4.183.058c-.098.038-.19.09-.274.152a.274.274 0 0 0-.11.174c0 .116-.07.15-.161.208a.895.895 0 0 0-.318.24c-.392.564-.769 1.139-1.152 1.712a8.8 8.8 0 0 0-1.052 2.374c-.563 1.84-1.01 3.707-1.403 5.59-.391 1.88-.757 3.831-.972 5.773-.11.959-.16 1.924-.152 2.889a3.618 3.618 0 0 0 1.556 3.173 4.573 4.573 0 0 0 5.775-.328 16.162 16.162 0 0 0 1.585-3.562c.347-1.002.69-2.005 1.032-3.007a.996.996 0 0 1 .654-.56c.034-.015.1.016.14.043a4.013 4.013 0 0 0 4.892-.081.503.503 0 0 1 .282-.098h2.653-.026 2.653a.49.49 0 0 1 .282.098 4.013 4.013 0 0 0 4.893.08c.038-.026.105-.057.139-.043a.994.994 0 0 1 .654.561c.339 1.004.683 2.006 1.032 3.007a16.195 16.195 0 0 0 1.585 3.562 4.573 4.573 0 0 0 5.773.33 3.615 3.615 0 0 0 1.556-3.173 23.849 23.849 0 0 0-.152-2.908c-.219-1.933-.58-3.859-.979-5.77zm-28.51-1.508c-2.473 0-2.818-.34-2.818-2.781 0-2.44.345-2.781 2.819-2.781 2.473 0 2.819.34 2.819 2.78 0 2.441-.348 2.782-2.82 2.782zm22.17 0c-2.472 0-2.82-.34-2.82-2.781 0-2.44.345-2.781 2.82-2.781 2.473 0 2.818.34 2.818 2.78 0 2.441-.345 2.782-2.819 2.782z"/>
    </g>
</svg>
