<svg xmlns="http://www.w3.org/2000/svg" width="54" height="55" viewBox="0 0 54 55">
    <g fill="#D3CECE" fill-rule="evenodd">
        <path d="M26.94.23C12.198.262.161 12.24.001 27.128c-.156 15 11.817 27.31 26.716 27.466 14.899.157 27.125-11.897 27.28-26.898C54.16 12.696 42.188.387 27.288.23c-.116-.002-.233-.002-.349-.002z" opacity=".246"/>
        <path d="M26.94.23C12.198.262.161 12.24.001 27.128c-.156 15 11.817 27.31 26.716 27.466 14.899.157 27.125-11.897 27.28-26.898C54.16 12.696 42.188.387 27.288.23c-.116-.002-.233-.002-.349-.002zm.003 1.888c.109 0 .217 0 .325.002 13.886.145 25.005 11.577 24.854 25.556-.145 13.98-11.5 25.176-25.384 25.03-13.885-.146-25.005-11.578-24.86-25.557.15-13.877 11.329-25 25.065-25.03z"/>
        <path d="M26.716 31.3c-5.201.024-9.883 2.646-13.09 6.74a.95.95 0 0 0-.148.943.935.935 0 1 0 1.62.227c2.948-3.762 7.174-6.072 11.844-6.02h.002c4.67.048 8.843 2.447 11.713 6.275a.936.936 0 0 0 1.625-.192.95.95 0 0 0-.127-.946c-3.172-4.232-7.892-6.972-13.191-7.026h-.248zM17.542 17.447c-1.947-.023-3.555 1.572-3.58 3.527a.96.96 0 0 0 0 .004c-.017 1.957 1.559 3.587 3.507 3.605 1.947.017 3.56-1.57 3.586-3.527v-.005c.017-1.958-1.563-3.584-3.51-3.603h-.002-.001zm-.02 1.89h.003c.928.008 1.66.758 1.653 1.694v.001a1.662 1.662 0 0 1-1.693 1.661c-.927-.008-1.653-.756-1.647-1.694v-.001c.013-.94.755-1.674 1.683-1.661zM36.662 17.649c-1.943-.017-3.554 1.57-3.58 3.527a.96.96 0 0 0 0 .004c-.016 1.955 1.557 3.585 3.504 3.604h.003c1.951.023 3.561-1.572 3.586-3.527v-.004c.017-1.96-1.565-3.587-3.513-3.604zm-.016 1.89c.928.007 1.659.758 1.653 1.693v.002a1.659 1.659 0 0 1-1.693 1.66c-.928-.008-1.653-.755-1.647-1.694.013-.94.753-1.67 1.687-1.662z"/>
    </g>
</svg>
