<svg xmlns="http://www.w3.org/2000/svg" width="341" height="314" viewBox="0 0 341 314">
    <g fill="none" fill-rule="evenodd" opacity=".188">
        <path fill="#74B049" d="M329 308.252l2.452-.122 1.292-2.13.872 2.34 2.384.595-1.913 1.569.182 2.496-2.054-1.37-2.272.947.644-2.415z"/>
        <path fill="#FFD251" d="M308.889 304.626l-.447 1.274.558 1.199-1.076-.155-.71 1.056-.217-1.37-.997-.545.94-.69.094-1.395.8.943z"/>
        <path fill="#ACA48E" d="M279.02 309.03l-2.02.66 1.753 1.195.005 2.115 1.685-1.291 2.025.65-.714-1.994 1.246-1.714-2.126.06L279.62 307z"/>
        <path fill="#74B049" d="M253.27 306.703l1.735.442L256.36 306l.106 1.75 1.533.906-1.669.637-.408 1.707-1.137-1.355-1.786.148.966-1.476z"/>
        <path fill="#FF2B77" d="M232.185 307.579l-3.185-.07 1.883 2.564-1.05 3 3.027-.995 2.535 1.922-.011-3.176 2.616-1.812-3.034-.97-.92-3.042z"/>
        <path fill="#ACA48E" d="M207.064 303.074l1.877.811 1.832-.885-.306 1.803 1.533 1.241-2.066.304-.884 1.652-.97-1.615-2.08-.22 1.467-1.301z"/>
        <path fill="#74B049" d="M188 308.915l-2.552 1.894.105 3.191-2.58-1.858-2.983 1.086.958-3.041-1.948-2.52 3.172-.024 1.779-2.643 1.002 3.029zM152.516 307l.449.99 1.035.174-.761.753.162 1.083-.921-.526-.934.496.192-1.077-.738-.776 1.039-.141z"/>
        <path fill="#FFD251" d="M130.025 308.05L127 309.073l2.657 1.76.045 3.168 2.51-1.963 3.052.937-1.106-2.972 1.842-2.59-3.194.125-1.913-2.537zM105.598 304l.379 1.002 1.023.249-.816.678.084 1.071-.883-.583-.971.411.27-1.037-.684-.817 1.05-.058zM81.041 307.035l-3.041.924 2.582 1.857L80.52 313l2.56-1.887 3.002 1.043-1-3.021 1.918-2.54-3.177.018L82.005 304z"/>
        <path fill="#ACA48E" d="M55.094 307.98l-3.094.577 2.323 2.202-.427 3.241 2.733-1.618 2.828 1.423-.633-3.203L61 308.244l-3.125-.362L56.39 305z"/>
        <path fill="#74B049" d="M33.836 303l1.686 2.855 3.478.324-2.39 2.377.745 3.185-3.164-1.386L31.174 312l.435-3.235L29 306.597l3.432-.613z"/>
        <path fill="#7C8184" d="M1.999 309.052l-1.999.79 1.861 1.063.156 2.095 1.614-1.395 2.095.502-.864-1.924L6 308.4l-2.147.205L2.46 307z"/>
        <path fill="#FFD251" d="M325 279.667l-1.74 1.214.016 2.119-1.694-1.277-2.015.67.693-2.003-1.26-1.705 2.122.038 1.235-1.723.619 2.027z"/>
        <path fill="#FF2B77" d="M290.948 283.205l3.718 1.174 3.08-2.379.026 3.877 3.228 2.177-3.702 1.222-1.086 3.724-2.313-3.122-3.899.124 2.272-3.15z"/>
        <path fill="#ACA48E" d="M267 281.488l2.14.154L270.48 280l.513 2.043 2.006.746-1.823 1.11-.102 2.101-1.639-1.358-2.069.554.81-1.949z"/>
        <path fill="#74B049" d="M245.014 279l1.613 1.393 2.094-.504-.862 1.924 1.141 1.784-2.147-.204-1.39 1.607-.465-2.052-1.998-.789 1.86-1.063z"/>
        <path fill="#FFD251" d="M223.27 278l.418 2.412 2.312 1.037-2.267 1.125-.317 2.426-1.818-1.715-2.508.46 1.143-2.185-1.233-2.142 2.526.366z"/>
        <path fill="#ACA48E" d="M203 282.527l-2.955 1.952-.053 3.521-2.787-2.184-3.393 1.039 1.233-3.302-2.045-2.878 3.549.142 2.13-2.817.96 3.39z"/>
        <path fill="#74B049" d="M171.541 279l-.341 2.16 1.8 1.477-2.408.378-1.017 1.985-1.146-1.928-2.429-.25 1.699-1.568-.484-2.14 2.196.958z"/>
        <path fill="#ACA48E" d="M140.305 281l1.45 1.01 1.64-.636-.5 1.705 1.105 1.384-1.757.046-.96 1.491-.586-1.677-1.697-.463 1.395-1.082zM124 286.78l-3.116 2.32.13 3.9-3.154-2.267-3.644 1.33 1.168-3.72-2.384-3.077 3.877-.033 2.17-3.233 1.228 3.701z"/>
        <path fill="#FF2B77" d="M91.75 279l.834 1.141 1.416-.038-.831 1.143.473 1.33-1.349-.435-1.124.859-.001-1.41-1.168-.8 1.348-.436z"/>
        <path fill="#7C8184" d="M69.543 278l.459 2.05 1.998.796-1.864 1.06-.16 2.094-1.612-1.397-2.096.498.868-1.922L66 279.393l2.147.21z"/>
        <path fill="#FF2B77" d="M47 283.796l-1.9 2.121.61 2.824-2.537-1.215L40.766 289l.333-2.871L39 284.217l2.744-.562L42.852 281l1.364 2.526z"/>
        <path fill="#ACA48E" d="M19.577 278l2.905 2.003 3.275-1.292-.98 3.421L27 284.89l-3.512.113-1.9 2.997-1.19-3.352-3.398-.907 2.776-2.183zM334.61 254.768l-2.61 1.263 2.637 1.21.453 2.759 2.021-2.02 2.889.441-1.39-2.458 1.334-2.486-2.88.502-2.065-1.979z"/>
        <path fill="#FFD251" d="M306.15 254.008l2.13.435 1.58-1.443.228 2.085 1.912 1-1.988.854-.397 2.061-1.457-1.557-2.158.273 1.088-1.816zM284.52 253l.012 1.762 1.468.99-1.683.555-.492 1.693-1.052-1.418-1.773.058 1.032-1.434-.603-1.657 1.691.533z"/>
        <path fill="#ACA48E" d="M260 253.034l-.943.8.316 1.054-1.274-.447-1.196.559.155-1.076-1.058-.709 1.372-.218.543-.997.691.941z"/>
        <path fill="#FFD251" d="M229.096 256l1.145.83 1.328-.479-.432 1.351.863 1.12-1.41.007-.796 1.171-.44-1.346-1.354-.399 1.138-.838z"/>
        <path fill="#74B049" d="M202 258.802l4.295.41 2.781-3.212.926 4.102 3.998 1.581-3.722 2.127-.31 4.19-3.228-2.789-4.189 1.007 1.727-3.85zM189 259.07l-3.302 1.485-.593 3.445-2.498-2.547-3.607.525 1.759-3.06-1.636-3.12 3.584.655 2.597-2.453.456 3.464z"/>
        <path fill="#FFD251" d="M153.575 256l2.544 1.91 3.018-1.012-1.033 3.008 1.896 2.555-3.183-.05-1.846 2.589-.934-3.04-3.037-.953 2.605-1.827z"/>
        <path fill="#ACA48E" d="M133.821 253l1.39 2.504 2.789.239-1.88 2.136.64 2.808-2.552-1.183-2.391 1.496.302-2.867L130 256.25l2.74-.59z"/>
        <path fill="#FFD251" d="M106 256.383l3.778-.738 1.555-3.645 1.843 3.5 3.824.407-2.638 2.9.807 3.898-3.474-1.706L108.37 263l.492-3.955z"/>
        <path fill="#7C8184" d="M82.476 252l2.21 1.774 2.734-.79-1.027 2.623 1.607 2.32-2.846-.152-1.74 2.225-.731-2.717-2.683-.947 2.393-1.526zM53 254.828l1.062.027.625-.855.302 1.015 1.011.328-.876.6V257l-.844-.643-1.01.327.354-1z"/>
        <path fill="#ACA48E" d="M26 260.585l3.677-1.496.933-4.089 2.467 3.28 3.923-.316-2.153 3.524 1.491 3.893-3.797-1.102-3 2.721-.194-4.204zM13 257.378l-2.43 3.047 1.102 3.752-3.612-1.398L4.873 265l.198-3.91L2 258.71l3.735-1.018L7.023 254l2.111 3.279z"/>
        <path fill="#74B049" d="M319 233.013l-1.318.607-.225 1.38-1.013-1.008-1.444.223.693-1.23-.67-1.243 1.441.248 1.033-.99.196 1.383z"/>
        <path fill="#ACA48E" d="M295.08 227.877l3.32 1.195 2.86-2.072-.105 3.543L304 232.64l-3.384.994-1.103 3.366-1.987-2.929-3.526-.013 2.157-2.805z"/>
        <path fill="#74B049" d="M273.431 230.165l-.619 3.21 2.188 2.352-3.121.38-1.471 2.893-1.312-2.976-3.096-.562 2.313-2.219-.444-3.243 2.74 1.606z"/>
        <path fill="#ACA48E" d="M244 229.972l3.496-.202 1.802-2.77 1.289 3.002 3.413.724-2.699 2.059.309 3.215-2.958-1.73-3.223 1.265.872-3.129z"/>
        <path fill="#FFD251" d="M223 234.623l-2.365 1.561-.043 2.816-2.228-1.746-2.715.83.987-2.641L215 233.14l2.839.114 1.704-2.254.768 2.712z"/>
        <path fill="#74B049" d="M191 232.033l2.848.176L195.61 230l.71 2.72 2.68.968-2.41 1.505-.106 2.807-2.2-1.79-2.745.767 1.05-2.612z"/>
        <path fill="#7C8184" d="M172 233.48l-2.29 1.098-.348 2.422-1.804-1.736-2.523.431 1.175-2.172-1.21-2.154 2.53.395 1.775-1.764.388 2.416zM146.35 228l-.059 2.125L148 231.38l-2.03.6-.659 2.021-1.195-1.754-2.116-.006 1.291-1.684-.648-2.025 1.992.714z"/>
        <path fill="#FFD251" d="M121 231.305l-1.505.94-.067 1.755-1.375-1.118-1.715.48.657-1.633-.995-1.457 1.78.109 1.102-1.381.444 1.7z"/>
        <path fill="#FF2B77" d="M93.079 227.883l1.787.337 1.302-1.22.219 1.734 1.613.81-1.653.734-.305 1.722-1.24-1.28-1.802.253.886-1.525z"/>
        <path fill="#7C8184" d="M74 230.968l-2.212 2.074.583 2.87-2.806-1.315L66.81 236l.478-2.887L65 231.11l3.102-.47 1.342-2.64 1.439 2.597z"/>
        <path fill="#FFD251" d="M37.856 231l.849.636 1.005-.339-.343 1.004.633.85-1.061-.016-.614.865-.313-1.013L37 232.67l.867-.61z"/>
        <path fill="#FF2B77" d="M20 229.766l-1.152.82.022 1.414-1.134-.843-1.338.459.45-1.341-.848-1.133 1.413.015.814-1.157.422 1.349z"/>
        <path fill="#FFD251" d="M335 204.81l-1.18.781-.021 1.409-1.115-.872-1.358.416.491-1.321-.817-1.15 1.42.055.85-1.128.386 1.355z"/>
        <path fill="#74B049" d="M307 202.53l2.533.471 1.792-2.001.37 2.765L314 205l-2.304 1.236-.37 2.764-1.793-2-2.532.473 1.195-2.472z"/>
        <path fill="#FF2B77" d="M284.163 203l.05 2.11 1.787 1.154-2.013.699-.56 2.037-1.294-1.679-2.133.103 1.214-1.735-.759-1.972 2.045.605z"/>
        <path fill="#FFD251" d="M257.02 202.34l2.252.997 2.075-1.337-.228 2.504 1.881 1.612-2.391.55-.914 2.334-1.25-2.163-2.445-.17 1.62-1.888z"/>
        <path fill="#74B049" d="M230.042 203l.797.71 1.058-.231-.453.952.556.9-1.077-.12-.713.789-.214-1.029-.996-.412.945-.515z"/>
        <path fill="#ACA48E" d="M203 209.021l3.032-.978.91-3.043 1.872 2.572 3.186-.079-1.875 2.567 1.058 2.995-3.03-.984L205.62 214l.003-3.175zM186.79 204l-.585 3.609 2.795 2.503-3.79.587-1.641 3.301-1.759-3.247-3.81-.463 2.705-2.592-.714-3.588 3.43 1.643z"/>
        <path fill="#FFD251" d="M158.417 203l.316 2.426 2.267 1.125-2.312 1.038-.418 2.411-1.746-1.785-2.524.365 1.234-2.14-1.143-2.186 2.507.462z"/>
        <path fill="#FF2B77" d="M129.196 206l3.097 2.354 3.702-1.206-1.29 3.662 2.295 3.136-3.893-.091-2.283 3.145-1.117-3.72L126 212.09l3.205-2.208zM107 205.75l-1.142.832.037 1.418-1.141-.833-1.331.472.436-1.347-.859-1.125h1.412l.8-1.167.436 1.346zM83.924 201l.19 2.09L86 204.123l-1.993.823-.432 2.055-1.422-1.583-2.153.239 1.114-1.8-.899-1.909 2.111.47z"/>
        <path fill="#FFD251" d="M54 205.994l4.164-.46L60.128 202l1.744 3.638 4.128.691-3.086 2.709.588 3.962-3.652-1.965-3.764 1.758.828-3.923z"/>
        <path fill="#7C8184" d="M32 204.082l-.823 1.15.486 1.322-1.354-.421-1.118.867-.013-1.409-1.178-.787 1.346-.449.39-1.355.846 1.132z"/>
        <path fill="#74B049" d="M6.895 204.045l-.378 2.159L8 207.752l-2.076.292L4.976 210l-.906-1.979-2.07-.34 1.517-1.514-.33-2.167 1.842 1.044z"/>
        <path fill="#FFD251" d="M319 178.228l1.685-.537.511-1.691 1.034 1.433 1.77-.038-1.047 1.423.582 1.668-1.68-.553-1.409 1.067.007-1.764z"/>
        <path fill="#ACA48E" d="M291 179.835l1.062.023.622-.858.305 1.013 1.011.324-.872.604.003 1.059-.846-.642-1.009.331.351-1z"/>
        <path fill="#7C8184" d="M271 180.626l-1.324.94.187 1.434-1.495-.749-1.595.592.4-1.405L266 180.37l1.743-.119.869-1.251.677 1.33z"/>
        <path fill="#FFD251" d="M240.904 179l1.197.747 1.274-.595-.318 1.405.943 1.066-1.394.123-.693 1.254-.543-1.33-1.37-.292 1.058-.944z"/>
        <path fill="#74B049" d="M220.405 177l.854 1.578 1.741.165-1.186 1.327.385 1.764-1.588-.757-1.503.923.206-1.795-1.314-1.193 1.713-.352zM197.608 177l1.298 2.647 3.094.513-2.322 1.96.43 2.88-2.733-1.437-2.83 1.269.633-2.849-2.178-2.096 3.124-.324z"/>
        <path fill="#ACA48E" d="M172.361 177.536l-.65 2.024 1.289 1.685-2.117.002-1.198 1.753-.657-2.02-2.028-.604 1.71-1.25-.057-2.126 1.714 1.247z"/>
        <path fill="#FF2B77" d="M140 181.477l1.32-.753.229-1.724 1.007 1.267 1.444-.273-.697 1.533.664 1.556-1.438-.318-1.034 1.235-.193-1.73z"/>
        <path fill="#7C8184" d="M127 181.002l-2.962 1.543-.478 3.455-2.303-2.502-3.257.589 1.54-3.09-1.536-3.091 3.255.592 2.307-2.498.474 3.456zM97 181.06l-1.984.876-.375 2.064-1.48-1.54-2.161.296 1.07-1.828-.962-1.882 2.14.412L94.817 178l.253 2.082z"/>
        <path fill="#ACA48E" d="M63.918 180l.832.66 1.023-.302-.38.987.607.869-1.066-.052-.648.838-.28-1.017-1.006-.35.893-.578z"/>
        <path fill="#FFD251" d="M44 178.295l-.91 1.089.362 1.384-1.296-.547-1.175.779.109-1.428-1.09-.9 1.363-.335.504-1.337.732 1.22z"/>
        <path fill="#7C8184" d="M27 183.353l-3.102 2.688.564 3.959-3.64-1.982-3.776 1.735.852-3.912L15 182.956l4.167-.437L21.15 179l1.724 3.642z"/>
        <path fill="#ACA48E" d="M332.551 153l.728 1.324 1.721.249-1.285.986.248 1.441-1.522-.713-1.568.642.343-1.428-1.216-1.045 1.735-.17z"/>
        <path fill="#FFD251" d="M304 158.15l3.413-.813 1.28-3.337 1.81 3.07 3.497.214-2.294 2.711.882 3.47-3.228-1.395-2.953 1.93.3-3.571z"/>
        <path fill="#7C8184" d="M286.705 154.066l-1.023 2.238 1.318 2.088-2.507-.255-1.637 1.863-.527-2.394-2.329-.938 2.182-1.226.198-2.442 1.874 1.637z"/>
        <path fill="#FFD251" d="M255 153.564l1.754-.061.946-1.503.6 1.676 1.7.449-1.385 1.096.105 1.779-1.455-.997-1.635.65.485-1.713z"/>
        <path fill="#74B049" d="M233.462 154l1.147 3.359 3.391.951-2.81 2.14.154 3.55-2.885-2.038-3.297 1.245 1.028-3.399-2.19-2.781 3.52-.063z"/>
        <path fill="#FF2B77" d="M206.355 152l1.436 1.03 1.655-.606-.53 1.691 1.084 1.4-1.762.015-.986 1.47-.56-1.683-1.692-.49 1.416-1.055zM189 160.443l-3.555 2.334-.072 4.223-3.34-2.627-4.077 1.235 1.49-3.957-2.446-3.458 4.26.18 2.565-3.373 1.142 4.069z"/>
        <path fill="#7C8184" d="M154.375 153.755l3.876.851 2.923-2.606.36 3.83 3.466 1.884-3.654 1.515-.78 3.771-2.62-2.893-3.946.447 2.034-3.304z"/>
        <path fill="#FF2B77" d="M127.428 154.938l2.414.646 1.912-1.584.119 2.453 2.127 1.295-2.341.869-.598 2.383-1.566-1.915-2.495.18 1.373-2.053z"/>
        <path fill="#FFD251" d="M108.822 153l-.335 2.168 1.513 1.519-2.07.336-.911 1.977-.943-1.962-2.076-.295 1.486-1.548-.372-2.161 1.862 1.004z"/>
        <path fill="#ACA48E" d="M77.203 154.384l1.03.287.824-.671.04 1.053.903.564-1.004.363-.267 1.02-.66-.828-1.069.067.596-.876z"/>
        <path fill="#74B049" d="M59 158.937l-2.587 1.29-.358 2.773-2.08-1.958-2.864.53 1.302-2.5L51 156.63l2.885.412 1.99-2.042.482 2.755z"/>
        <path fill="#FFD251" d="M32.254 152l1.293 2.128 2.453.121-1.586 1.91.645 2.416-2.272-.946L30.733 159l.18-2.496L29 154.937l2.384-.595z"/>
        <path fill="#ACA48E" d="M15 154.24l-2.373 3.084 1.182 3.714-3.651-1.317L7.01 162l.117-3.898L4 155.795l3.723-1.092L8.939 151l2.184 3.221z"/>
        <path fill="#FFD251" d="M325 132.924l-2.052 2.449.81 3.114-2.912-1.238-2.65 1.751.251-3.212-2.447-2.033 3.068-.748 1.136-3.007 1.646 2.75zM290 133.693l2.416-.387 1.067-2.306 1.096 2.29 2.421.352-1.737 1.803.429 2.524-2.17-1.177-2.155 1.208.396-2.53z"/>
        <path fill="#74B049" d="M272.179 131.94l-1.057 2.997 1.878 2.566-3.186-.076-1.87 2.573-.912-3.043-3.032-.976 2.622-1.806-.006-3.175 2.534 1.927zM242.795 130l1.689 1.825 2.516-.307-1.278 2.114 1.08 2.212-2.478-.519-1.848 1.675-.254-2.434-2.222-1.178 2.322-.986zM221.755 129.922l-.881 1.916L222 133.63l-2.15-.222-1.408 1.592-.447-2.054-1.995-.807 1.874-1.047.174-2.092 1.605 1.407z"/>
        <path fill="#FF2B77" d="M205 130.414l-3.143 2.637.506 3.949-3.612-2.021-3.803 1.678.91-3.886-2.858-2.913 4.175-.38 2.038-3.478 1.671 3.651zM169.484 126.042l2.484 1.171 2.46-1.213-.447 2.529 2.019 1.772-2.76.39-1.213 2.309-1.26-2.287-2.767-.345 1.982-1.805zM143.833 126.132l1.58.777 1.51-.909-.224 1.797 1.301 1.211-1.717.336-.71 1.656-.836-1.59-1.737-.187 1.2-1.318z"/>
        <path fill="#74B049" d="M116.92 127l1.194.754 1.28-.584-.33 1.401.936 1.072-1.396.111-.702 1.246-.534-1.33-1.368-.302 1.065-.935z"/>
        <path fill="#ACA48E" d="M90 130.929l2.07-.28.91-1.649.944 1.634 2.076.245-1.487 1.29.373 1.801-1.863-.836-1.845.866.335-1.807z"/>
        <path fill="#74B049" d="M67.82 129l.008 1.41 1.172.793-1.346.443-.397 1.354-.84-1.137-1.417.044.828-1.145-.48-1.327 1.351.428zM38 133.228l3.473-.353 1.66-2.875 1.43 2.98 3.437.588-2.588 2.194.464 3.238-3.031-1.625-3.149 1.415.715-3.199z"/>
        <path fill="#FFD251" d="M19.897 125l.43 1.703 1.673.617-1.516.927-.08 1.753-1.368-1.129-1.722.467.67-1.626-.984-1.465 1.783.124z"/>
        <path fill="#74B049" d="M333.912 107.058l-3.912-.215 2.207 3.195-1.415 3.604 3.76-1.084L337.59 115l.118-3.864L341 109.04l-3.688-1.304L336.31 104z"/>
        <path fill="#ACA48E" d="M305 106.01l3.521-.053 1.95-2.957 1.14 3.361 3.389.96-2.816 2.131.143 3.548-2.878-2.043-3.302 1.233 1.037-3.393z"/>
        <path fill="#FFD251" d="M280 105.803l3.16-.104 1.707-2.699 1.075 3.017 3.058.813-2.497 1.968.182 3.202-2.615-1.8-2.946 1.166.88-3.081z"/>
        <path fill="#FF2B77" d="M252 107.694l1.36-.354.485-1.34.752 1.204 1.403.054-.895 1.1.384 1.373-1.306-.527-1.167.796.088-1.424z"/>
        <path fill="#FFD251" d="M236 107.169l-2.068 1.367-.038 2.464-1.95-1.527-2.375.726.862-2.312-1.431-2.014 2.484.1 1.491-1.973.672 2.372z"/>
        <path fill="#7C8184" d="M209 107.065l-1.512 1.962.75 2.364-2.321-.84-2.004 1.449.075-2.481L202 108.05l2.37-.694.775-2.356 1.387 2.051z"/>
        <path fill="#FFD251" d="M184.808 104.363l-.669 2.793 1.861 2.152-2.793.21-1.415 2.482-1.057-2.664-2.735-.616 2.139-1.857-.275-2.863 2.38 1.516z"/>
        <path fill="#7C8184" d="M164 105.018l-2.09 2.422.759 3.14-2.888-1.29-2.674 1.71.304-3.22-2.411-2.083 3.076-.698 1.183-2.999 1.599 2.789z"/>
        <path fill="#FFD251" d="M130 107.396l4.039-1.333 1.183-4.063 2.525 3.405 4.253-.137-2.478 3.438 1.445 3.98-4.056-1.281-3.36 2.595-.029-4.23z"/>
        <path fill="#74B049" d="M106.176 101.702l3.293 1.127 2.887-1.829-.16 3.196 2.804 1.932-3.391.85-1.155 3.022-1.936-2.671-3.518-.065 2.195-2.5z"/>
        <path fill="#FFD251" d="M83.078 102l.584 2.728L86 105.736l-2.138 1.463-.134 2.801-1.905-1.823-2.421.722.96-2.59L79 103.955l2.498.223zM51 107.112l3.617.643L57.174 105l.534 3.8L61 110.492l-3.286 1.706-.521 3.801-2.567-2.746-3.614.656 1.701-3.402z"/>
        <path fill="#ACA48E" d="M31 107.66l-1.735 1.22.021 2.12-1.697-1.272-2.01.675.685-2.006L25 106.695l2.121.033 1.23-1.728.625 2.027z"/>
        <path fill="#7C8184" d="M3.98 107.754L0 107.109l1.882 3.397-1.873 3.402 3.977-.655L6.807 116l.575-3.802L11 110.494l-3.622-1.693L6.792 105zM323.48 78l.855 3.76L328 83.205l-3.408 1.954-.28 3.841-2.96-2.553-3.838.93 1.578-3.532L317 80.578l3.936.37zM294.966 78l.165 2.093L297 81.147l-1.997.8L294.55 84l-1.4-1.599-2.15.215 1.131-1.788-.874-1.92 2.1.493z"/>
        <path fill="#ACA48E" d="M275.872 77.63l-.877 3.082L277 83.193l-3.16.106L272.135 86l-1.076-3.016-3.059-.812 2.496-1.97L270.31 77l2.618 1.8z"/>
        <path fill="#FFD251" d="M242.184 79l1.045 1.425 1.771-.05-1.04 1.43.595 1.661-1.686-.541L241.465 84l-.003-1.763L240 81.24l1.684-.548zM224.908 77l.102 3.514 2.99 1.909-3.354 1.181-.915 3.396-2.174-2.783-3.557.19 2.01-2.901-1.283-3.28 3.417.99z"/>
        <path fill="#FF2B77" d="M194.581 78l1.289 1.683 2.13-.097-1.218 1.732.751 1.976-2.042-.611L193.824 84l-.043-2.111-1.781-1.16 2.015-.694z"/>
        <path fill="#FFD251" d="M165 85.81l3.979-1.69.811-4.12 2.897 3.128L177 82.6l-2.19 3.624 1.855 3.793-4.25-.889L169.25 92l-.438-4.173zM145.914 79.246l-.975 2.189L146 83.572l-2.164-.36L142.345 85l-.363-2.411L140 81.556l1.94-1.13.266-2.426 1.561 1.712z"/>
        <path fill="#7C8184" d="M120.529 76l.472 2.05 1.999.783-1.854 1.07L121 82l-1.618-1.389-2.09.513.854-1.93L117 77.417l2.147.195zM92.716 77.052l1.25.652L95.188 77l-.208 1.443 1.02.997-1.378.24-.593 1.32-.643-1.295-1.386-.18.98-1.04z"/>
        <path fill="#ACA48E" d="M64 81.96l3.78-.648L69.359 78l1.822 3.198 3.82.394-2.656 2.625.784 3.555-3.462-1.574L66.331 88l.514-3.598zM42.11 79l3.482 2.41 3.935-1.54-1.188 4.101L51 87.287l-4.215.124L44.495 91l-1.418-4.025L39 85.878l3.34-2.611z"/>
        <path fill="#FF2B77" d="M24 82.223l-2.456 1.629L21.373 87l-2.168-2.064-2.777.793 1.116-2.905L16 80.166l2.857.269L20.68 78l.65 3.07z"/>
        <path fill="#74B049" d="M332.626 51.15l1.273.597 1.199-.747-.156 1.435 1.058.945-1.371.29-.544 1.33-.691-1.255-1.394-.123.942-1.065z"/>
        <path fill="#ACA48E" d="M304 55.704l1.36-.363.475-1.341.759 1.199 1.406.044-.89 1.104.392 1.368-1.31-.516-1.162.801.08-1.423z"/>
        <path fill="#FFD251" d="M280.91 53l2.727 1.624 2.834-1.416-.643 3.2L288 58.771l-3.126.352L283.382 62l-1.288-2.98-3.094-.586 2.329-2.196z"/>
        <path fill="#74B049" d="M255.337 54.217l2.801.653L260.28 53l.226 2.79L263 57.192l-2.662 1.07-.603 2.738-1.87-2.128-2.865.289 1.506-2.386zM229.677 54l1.205 1.747 2.118-.006-1.285 1.69.661 2.018-1.998-.702-1.71 1.253.047-2.124L227 56.632l2.028-.61z"/>
        <path fill="#ACA48E" d="M206.894 54l.208 2.087L209 57.106l-1.991.836-.415 2.058-1.44-1.57-2.154.254 1.103-1.808-.918-1.9 2.12.453z"/>
        <path fill="#7C8184" d="M187.607 51l-.307 3.574 2.7 2.285-3.413.806L185.299 61l-1.802-3.076L180 57.7l2.3-2.706-.873-3.473 3.224 1.403z"/>
        <path fill="#FFD251" d="M155.752 52l.246 1.024 1.002.38-.919.546-.062 1.05-.814-.687-1.04.268.415-.97-.58-.884 1.071.087z"/>
        <path fill="#7C8184" d="M126 57.043l2.053-.379.8-1.664 1.054 1.557 2.093.138-1.401 1.341.493 1.749-1.92-.728-1.788.943.215-1.79zM108.218 51l2.366 2.407 3.196-.721-1.408 3.152L114 58.866l-3.237-.459L108.573 61l-.593-3.435L105 56.138l2.87-1.664zM77 57.631l3.816-.417 1.8-3.214 1.6 3.309 3.784.628-2.829 2.462.538 3.601-3.347-1.786-3.45 1.598.76-3.566z"/>
        <path fill="#74B049" d="M52.918 54l1.275 1.255L56 54.966l-.86 1.542.846 1.55-1.805-.303L52.897 59l-.257-1.729-1.64-.778 1.647-.766z"/>
        <path fill="#FF2B77" d="M27 54.174l1.378-.182.588-.992.648.97L31 54.1l-.976.782.268 1.073-1.251-.486-1.22.531.202-1.08z"/>
        <path fill="#74B049" d="M3.147 55.607L1 55.404l1.14 1.783-.862 1.925 2.094-.505L4.987 60l.154-2.094L7 56.84l-2-.79L4.537 54zM316 30.535l2.136.126L319.45 29l.54 2.04 2.01.719-1.802 1.134-.075 2.107-1.651-1.339-2.056.582.78-1.962zM295.68 26.038l2.79 1.345L301.241 26l-.508 2.89L303 30.922l-3.107.443-1.37 2.636-1.41-2.617-3.113-.4 2.233-2.06z"/>
        <path fill="#ACA48E" d="M274 31.793l-2.471 2 .216 3.207-2.632-1.775-2.93 1.202.845-3.098L265 30.864l3.155-.139L269.832 28l1.105 3.012zM250 31.089l-2.216 2.764.991 3.417-3.279-1.28-2.9 2.01.188-3.555L240 32.27l3.396-.917 1.18-3.354 1.91 2.989zM215 32.335h2.823L219.422 30l.873 2.694 2.705.807-2.283 1.667.073 2.832-2.284-1.665-2.66.944.872-2.695z"/>
        <path fill="#7C8184" d="M189.2 31.155l2.475.52L193.524 30l.254 2.434L196 33.612l-2.321.985-.475 2.403-1.688-1.826-2.516.307 1.278-2.113zM166 28.732l1.071.084.678-.816.25 1.023 1.001.379-.916.547-.059 1.051-.816-.684-1.038.27.413-.97z"/>
        <path fill="#ACA48E" d="M142.956 30.112l-.413 2.14L144 33.82l-2.08.252-.983 1.928-.873-1.984-2.064-.377 1.543-1.477-.296-2.162 1.827 1.072z"/>
        <path fill="#74B049" d="M125.342 26.274l-.737 3.542L127 32.455l-3.477.367L121.845 36l-1.412-3.315L117 32.01l2.605-2.416L119.16 26l3.022 1.822z"/>
        <path fill="#FFD251" d="M94.804 26l1.99 2.48 3.206-.206-1.783 2.627 1.191 2.935-3.093-.856-2.47 2.02-.128-3.157L91 30.157l3.013-1.096zM63.02 31.081l3.611.66L69.2 29l.517 3.802L73 34.512l-3.294 1.69L69.168 40l-2.553-2.758L63 37.88l1.716-3.395z"/>
        <path fill="#FF2B77" d="M41.55 26.23l1.296.548L44.022 26l-.11 1.428L45 28.33l-1.364.334L43.132 30l-.732-1.222-1.4-.076.91-1.088z"/>
        <path fill="#74B049" d="M19.058 27.015l-.303 1.805L20 30.106l-1.729.255-.78 1.639-.765-1.647-1.726-.27 1.255-1.274L15.968 27l1.54.86z"/>
        <path fill="#ACA48E" d="M333.062.863L332 .846l.632.852-.344 1.002 1.006-.337.847.637-.01-1.06.869-.609-1.012-.318L333.677 0z"/>
        <path fill="#7C8184" d="M305.168 4l-.024 1.062.856.623-1.014.304L304.66 7l-.601-.874-1.059.001.642-.844-.328-1.01.999.353z"/>
        <path fill="#FF2B77" d="M280.245 3l1.912 1.584 2.414-.647-.944 2.273L285 8.262l-2.496-.178L280.94 10l-.599-2.384L278 6.747l2.127-1.294z"/>
        <path fill="#74B049" d="M257 5.337l-1.022 1.44.616 1.65-1.696-.519L253.504 9l-.026-1.76L252 6.263l1.68-.569.48-1.695 1.065 1.408z"/>
        <path fill="#FFD251" d="M230.646 5.429l-.476 1.328.83 1.144-1.416-.04L228.747 9l-.4-1.353-1.347-.44 1.17-.796.004-1.411 1.122.861zM207.865.767l-1.288-.565.344 1.392-.921 1.08 1.397.094.718 1.232.518-1.333 1.367-.32-1.078-.916.126-1.431zM182.087 2.874L180 4.804l2.747.543L183.87 8l1.348-2.54L188 5.173l-1.913-2.113.595-2.83-2.53 1.233L181.737 0z"/>
        <path fill="#74B049" d="M151 9.257l2.796-1.767.238-3.49 2.417 2.328 3.145-.833-1.301 3.204L160 11.675l-3.222-.347-2.09 2.672-.691-3.42zM136.948 2l-.092 3.894L140 8.178l-3.72 1.115L135.089 13l-2.206-3.205-3.882.007 2.356-3.096-1.206-3.702 3.662 1.291z"/>
        <path fill="#FF2B77" d="M110.72 1l.648 3.791L115 6.431l-3.57 1.76-.507 3.809-2.853-2.702-3.945.716 1.806-3.432L104 3.215l3.969.582zM85 5.948l-2.196 1.558L83 10l-2.341-1.38-2.602.937.748-2.41L77 5.23l2.804-.11L81.292 3l.984 2.342z"/>
        <path fill="#FFD251" d="M56.697 3l-.019 2.825L59 7.441l-2.698.856L55.48 11l-1.65-2.296-2.83.054 1.678-2.275-.926-2.67 2.687.89zM36 7.983l-2.95 1.56L32.59 13l-2.314-2.487-3.247.606 1.52-3.097L27 4.939l3.253.573L32.544 3l.49 3.453z"/>
        <path fill="#ACA48E" d="M7.096 0l-1.01 1.587L4 1.77l1.436 1.32-.445 1.77 1.897-.772L8.7 5l-.264-1.797L10 1.996l-2.06-.338L7.097 0z"/>
    </g>
</svg>
