<svg xmlns="http://www.w3.org/2000/svg" width="24" height="21" viewBox="0 0 24 21">
    <g fill="#82C7D2" fill-rule="nonzero">
        <path d="M20.918 1.095a4.342 4.342 0 0 0-2.415.246c.007-.438 0-.865-.007-1.275H4.608c-.012.41-.015.837-.007 1.275a4.342 4.342 0 0 0-2.415-.246A2.67 2.67 0 0 0 .079 3.221c-.335 1.476.4 3.169 2.076 4.767a13.9 13.9 0 0 0 4.957 2.953 7.109 7.109 0 0 0 3.023 2.506 7.441 7.441 0 0 1-2.382 3.8h7.6a7.439 7.439 0 0 1-2.382-3.8 7.107 7.107 0 0 0 3.023-2.506 13.9 13.9 0 0 0 4.957-2.952c1.674-1.6 2.411-3.29 2.076-4.767a2.671 2.671 0 0 0-2.109-2.127zM3.27 6.821C2.059 5.665 1.455 4.453 1.653 3.579c.065-.462.42-.83.88-.912a3.116 3.116 0 0 1 2.157.5 19.475 19.475 0 0 0 1.205 5.5A11.511 11.511 0 0 1 3.27 6.821zm16.563 0a11.528 11.528 0 0 1-2.626 1.841 19.457 19.457 0 0 0 1.205-5.5 3.118 3.118 0 0 1 2.157-.5c.46.082.815.45.88.912.199.883-.405 2.095-1.616 3.247zM6.674 18.265h9.754v2.109H6.674z"/>
    </g>
</svg>
