<svg xmlns="http://www.w3.org/2000/svg" xmlns:xlink="http://www.w3.org/1999/xlink" width="270" height="83" viewBox="0 0 270 83">
    <defs>
        <linearGradient id="a" x1="99.091%" x2="50%" y1="50.984%" y2="49.739%">
            <stop offset="0%" stop-color="#3023AE"/>
            <stop offset="100%" stop-color="#C86DD7"/>
        </linearGradient>
        <ellipse id="b" cx="9.185" cy="9.297" rx="9.086" ry="9.093"/>
        <ellipse id="d" cx="7.573" cy="7.762" rx="7.319" ry="7.325"/>
        <circle id="f" cx="6.187" cy="6.2" r="5.778"/>
    </defs>
    <g fill="none" fill-rule="evenodd">
        <path fill="url(#a)" fill-rule="nonzero" d="M0 44h270v38.5H0z"/>
        <g fill="#000" opacity=".159">
            <path fill-rule="nonzero" d="M0 44h177.962L200 62.873 177.954 82.5H0z"/>
            <path d="M0 44h177.962L200 62.873 177.954 82.5H0z"/>
        </g>
        <g opacity=".298">
            <path fill="#000" fill-rule="nonzero" d="M0 44h72.654L92.5 62.873 72.654 82.5H0z"/>
            <path fill="#5836B8" d="M0 44h72.654L92.5 62.873 72.654 82.5H0z"/>
        </g>
        <path fill="#000" fill-rule="nonzero" d="M0 44h270v38.5H0z" opacity=".208"/>
        <text fill="#FFF" font-family="ProximaNova-Regular, Proxima Nova" font-size="9">
            <tspan x="11.831" y="60.5">INVITE YOUR</tspan>
        </text>
        <text fill="#FFF" font-family="ProximaNova-Regular, Proxima Nova" font-size="9">
            <tspan x="20.786" y="71.5">FRIENDS</tspan>
        </text>
        <text fill="#FFF" font-family="ProximaNova-Regular, Proxima Nova" font-size="9">
            <tspan x="99.677" y="60.5">FRIEND SIGNS-UP</tspan>
        </text>
        <text fill="#FFF" font-family="ProximaNova-Regular, Proxima Nova" font-size="9">
            <tspan x="96.061" y="71.5">&amp; GETS</tspan>
        </text>
        <text fill="#FFF" font-family="ProximaNova-Bold, Proxima Nova" font-size="9" font-weight="bold">
            <tspan x="129.177" y="71.5">20</tspan>
        </text>
        <text fill="#FFF" font-family="ProximaNova-Regular, Proxima Nova" font-size="9">
            <tspan x="140.381" y="71.5">TOKENS</tspan>
        </text>
        <text fill="#FFF" font-family="ProximaNova-Regular, Proxima Nova" font-size="9">
            <tspan x="212.132" y="60.5">YOU GET</tspan>
        </text>
        <text fill="#FFF" font-family="ProximaNova-Bold, Proxima Nova" font-size="9" font-weight="bold">
            <tspan x="207.083" y="71.5">30</tspan>
        </text>
        <text fill="#FFF" font-family="ProximaNova-Regular, Proxima Nova" font-size="9">
            <tspan x="218.36" y="71.5">TOKENS</tspan>
        </text>
        <ellipse cx="9.185" cy="9.297" fill="#FFE17D" fill-rule="nonzero" rx="9.086" ry="9.093" transform="rotate(-12 29.736 -59.394)"/>
        <g transform="rotate(-12 29.736 -59.394)">
            <mask id="c" fill="#fff">
                <use xlink:href="#b"/>
            </mask>
            <g fill-rule="nonzero" mask="url(#c)">
                <path fill="#191847" d="M7.223 15.584a4.716 4.716 0 0 1-3.225-5.23L4.593 6.6a4.715 4.715 0 0 1 9.094-.86c.096.166.178.439.243.849.37 2.325.466 9.181-.71 10.003l-6.003-.95.006-.058z"/>
                <path fill="#D4A181" d="M6.417 10.17c-.78-1.255-1.21-2.71-.862-4.21 1.003-4.32 7.016-2.382 7.866.013.85 2.396-.178 7.967-1.79 8.116-.644.06-1.9-.534-3.114-1.544L8.43 18.55l-4.968-.787 2.956-7.592z"/>
                <path fill="#191847" d="M7.876 9.645c-.155 2.462-.685 5.217-1.471 5.767L.402 14.46c.574-5.785 3.454-3.054 4.309-8.45.232-.163.453-.325.668-.461l.018-.16C6.77 3.456 8.254 2.615 9.852 2.868c2.397.38 2.979 1.6 3.475 2.636-.74 1.554-2.647 1.5-4.47 2.253a1.157 1.157 0 0 0-.677-.365 1.145 1.145 0 0 0-1.316.943 1.145 1.145 0 0 0 1.012 1.31z"/>
            </g>
        </g>
        <g fill-rule="nonzero">
            <path fill="#06C0DE" d="M34.03 36.572c-.072 0-.119-.023-.119-.095.024.024.072.048.118.095z"/>
            <path fill="#EE5B2D" d="M29.06 46.844c-1.118-.382-1.88-1.266-2.735-1.982a13.815 13.815 0 0 1-3.306-4.109c.222-1.398.54-2.778.952-4.132a3.479 3.479 0 0 1 1.926-2.317 19.36 19.36 0 0 1 3.877-1.41 7.043 7.043 0 0 1 3.07-.333c.547.358 1.129.662 1.735.907a9.602 9.602 0 0 0 8.323-.262c.354-.191.714-.356.571-.86.88.19 1.736.382 2.616.573 1.712.383 3.424.717 4.876 1.792 1.38 1.003 2.33 2.27 2.164 4.108-.048.67.023 1.364.023 2.055a17.179 17.179 0 0 1-11.867 8.336c-2.81.508-5.7.352-8.441-.454.24-.69.89-1.15 1.617-1.146 1.594-.191 2.117-.74 2.188-2.342.024-.716.118-1.363.81-1.767a.659.659 0 0 0 .403-.836c-.166-.407-.499-.478-.88-.502-.26.016-.517.073-.76.167 0-1.743-.024-3.463-.024-5.207 0-.525-.167-.74-.714-.74-1.476.023-2.972.023-4.447 0-.5 0-.69.167-.69.692.024 1.075 0 2.15-.023 3.225-.547-.144-.785.048-.856.645-.097.622-.24 1.236-.428 1.838-.279.889-.22 1.85.167 2.699a1.036 1.036 0 0 1-.147 1.362z"/>
            <path fill="#12ADC5" d="M32.84 32.536a7.004 7.004 0 0 0-3.069.334c-1.336.337-2.634.81-3.876 1.41a3.479 3.479 0 0 0-1.924 2.317 30.597 30.597 0 0 0-.951 4.132 16.583 16.583 0 0 1-2.38-10.104c.523-6.33 3.592-11.084 9.085-14.26.215-.118.438-.222.666-.31.118 1.17.024 2.388.452 3.534-.57.048-1.118.263-.975.908.236 1.218.547 2.437 1.76 3.13.455.257.737.74.738 1.265a5.187 5.187 0 0 0 1.83 3.774c.507.352.67 1.03.38 1.576a2.905 2.905 0 0 1-.785 1.123 3.14 3.14 0 0 0-.95 1.17zM53.175 40.824a19.732 19.732 0 0 1-.024-2.054c.167-1.863-.808-3.105-2.164-4.108-1.45-1.075-3.163-1.41-4.875-1.792-.88-.19-1.736-.382-2.617-.573-.19-.216-.38-.454-.57-.645a4.645 4.645 0 0 1-.952-1.29.957.957 0 0 1 .333-1.364 5.223 5.223 0 0 0 2.188-4.037 2.448 2.448 0 0 1 .619-1.433 7.708 7.708 0 0 0 1.45-2.34c.429-1.194.334-1.504-.736-2.244.118-.932.214-1.864.332-2.795 5.423 2.986 8.56 7.525 9.371 13.687a17.108 17.108 0 0 1-1.948 10.32 6.23 6.23 0 0 1-.407.668z"/>
            <path fill="#1F2220" d="M46.16 16.198c-.119.931-.215 1.863-.333 2.794a3.865 3.865 0 0 0-.405.836c-.261.574-.285 1.245-.69 1.744-.546.167-.451-.263-.475-.55-.095-1.123.19-2.221.143-3.344-.024-.382.095-.908-.5-1.027l-.023-.024c.023-.502-.072-.573-.5-.502a2.705 2.705 0 0 0-.975-.168c-.738.024-1.498 0-2.236 0a2.616 2.616 0 0 0-1.902 0c-.78.048-1.563 0-2.331-.144-.024-.118-.072-.262-.19-.262a40.11 40.11 0 0 0-1.736-.167.72.72 0 0 0-.738.355c-.675.28-1.09.97-1.022 1.7.047.669.047 1.364.07 2.03-.023.717-.023 1.458-.047 2.174-.071.167-.118.334-.214.597-.428-.931-.832-1.815-1.24-2.676-.428-1.146-.333-2.34-.452-3.535.035-.727.107-1.453.214-2.173a5.682 5.682 0 0 1 4.043-4.396 12.31 12.31 0 0 1 7.257-.07c1.903.525 4.21 2.484 4.162 5.398-.056.473-.015.953.12 1.41z"/>
            <path fill="#FCCBB5" d="M29.059 46.844a1.13 1.13 0 0 0 .19-1.409 3.656 3.656 0 0 1-.166-2.7c.19-.6.333-1.214.428-1.837.071-.573.309-.789.855-.645.383.513.546 1.158.453 1.791-.048.74.19 1.027.927.932 1.498-.191 3.02-.454 4.519-.693.24-.103.499-.16.76-.167.405.024.738.096.88.502.167.406-.095.668-.404.836-.69.406-.785 1.05-.809 1.768-.07 1.576-.594 2.15-2.188 2.34a1.738 1.738 0 0 0-1.617 1.147 26.577 26.577 0 0 1-3.258-1.457c-.213-.097-.474-.169-.57-.408zM40.166 15.982c.738 0 1.498.024 2.236 0 .332-.004.663.052.975.168l.5.501.023.024c.284.855.334 1.77.143 2.651-.095.956-.236 1.935.309 2.843a.586.586 0 0 0 .38-.573c.405-.502.429-1.17.69-1.744.076-.304.214-.588.405-.836 1.07.717 1.165 1.028.737 2.245a7.708 7.708 0 0 1-1.451 2.341 2.325 2.325 0 0 0-.619 1.433 5.262 5.262 0 0 1-2.188 4.037.953.953 0 0 0-.333 1.364c.224.492.549.93.952 1.289.203.203.394.419.571.645.143.501-.214.692-.57.86a9.602 9.602 0 0 1-8.324.262 8.023 8.023 0 0 1-1.736-.908c.21-.44.51-.831.88-1.146.348-.306.617-.691.785-1.123.27-.57.1-1.25-.404-1.625a5.23 5.23 0 0 1-1.83-3.774 1.41 1.41 0 0 0-.74-1.266c-1.214-.693-1.523-1.91-1.76-3.13-.119-.644.427-.859.974-.907.405.86.81 1.744 1.24 2.676.095-.263.166-.43.214-.597.024.048.072.118.095.167a.357.357 0 0 0 .072-.167c.261-.86.095-1.744.166-2.795-.143.31-.214.454-.261.597-.024-.669-.024-1.364-.072-2.03a1.673 1.673 0 0 1 1.02-1.697c.903-.262 1.76.167 2.664.072a8.51 8.51 0 0 0 2.33.143c.64.072 1.287.072 1.927 0zm-3.449 4.063h.167a.237.237 0 0 0-.095-.118c-.999-.669-1.69-.622-2.355.19a5.701 5.701 0 0 1 2.283-.072zm3.687 6.115h-4.326a3.626 3.626 0 0 0 4.326-.002v.002zm1.118-5.276a.568.568 0 0 0-.548-.526.53.53 0 0 0-.594.574.515.515 0 0 0 .547.55c.333.018.547-.173.595-.603v.005zm-5.851.62c.354-.047.594-.236.57-.62a.504.504 0 0 0-.57-.526.52.52 0 0 0-.571.597.575.575 0 0 0 .571.545v.005zm3.949-1.39a4.898 4.898 0 0 1 2.426 0c-.833-.835-1.547-.812-2.426 0z"/>
            <path fill="#FFF" d="M36.218 42.247c-1.806.256-3.029.517-4.834.75-.86.103-1.176-.182-1.118-1.009.126-.686.095-1.191.066-1.939 0-1.163.058-1.779.029-2.942 0-.568.229-.75.83-.75 1.779.026 2.36.026 4.138 0 .66 0 .86.207.86.802 0 1.862.029 3.2.029 5.088z"/>
            <path fill="#1D3D6D" d="M35.71 42.305c-1.497.237-2.513.478-4.01.693-.714.095-.976-.167-.928-.932.105-.634.079-1.1.055-1.791 0-1.075.048-1.644.024-2.719 0-.525.19-.692.689-.692 1.476.024 1.958.024 3.433 0 .547 0 .714.19.714.74 0 1.72.024 2.958.024 4.701z"/>
            <path fill="#221308" d="M44.732 21.572a.586.586 0 0 1-.38.573c-.548-.907-.405-1.863-.31-2.843a5.562 5.562 0 0 0-.142-2.65c.594.118.5.644.5 1.027.047 1.122-.237 2.221-.144 3.344.025.312-.095.716.476.549z"/>
            <path fill="#FCDDC9" d="M32.294 19.493c.071-.143.118-.286.261-.597-.048 1.051.118 1.935-.166 2.795-.028.054-.052.11-.072.167-.023-.048-.071-.118-.095-.167.048-.74.048-1.457.072-2.198z"/>
            <path fill="#221308" d="M35.91 15.839c-.88.095-1.761-.334-2.665-.072a.67.67 0 0 1 .738-.355c.57.048 1.141.095 1.736.167.142-.003.19.14.19.26z"/>
            <path fill="#020101" d="M40.166 15.982a8.446 8.446 0 0 1-1.903 0 2.615 2.615 0 0 1 1.903 0z"/>
            <path fill="#221308" d="M43.876 16.627l-.5-.502c.429-.071.5 0 .5.502z"/>
            <path fill="#EE5B2D" d="M40.404 26.158a3.663 3.663 0 0 1-4.328 0h4.328z"/>
            <path fill="#221308" d="M41.522 20.879c-.024.43-.237.621-.595.621a.523.523 0 0 1-.547-.55.574.574 0 0 1 1.142-.072zM35.671 21.5a.591.591 0 0 1-.57-.55.535.535 0 0 1 .57-.596.538.538 0 0 1 .571.525c.024.406-.214.573-.57.621zM39.62 20.115c.88-.813 1.593-.836 2.425 0a4.634 4.634 0 0 0-2.426 0zM36.718 20.043a5.18 5.18 0 0 0-2.26.072c.666-.813 1.358-.86 2.355-.191a.237.237 0 0 1-.095.119z"/>
            <path fill="#221308" d="M36.813 19.924c.018.049.051.09.095.118h-.167a.523.523 0 0 0 .072-.118z"/>
        </g>
        <g>
            <ellipse cx="7.573" cy="7.762" fill="#E4CDF9" fill-rule="nonzero" rx="7.319" ry="7.325" transform="scale(-1 1) rotate(-22 14.293 177.694)"/>
            <g transform="scale(-1 1) rotate(-22 14.293 177.694)">
                <mask id="e" fill="#fff">
                    <use xlink:href="#d"/>
                </mask>
                <g fill-rule="nonzero" mask="url(#e)">
                    <path fill="#D4A181" d="M5.252 9.02c-.627-1.021-.974-2.205-.691-3.426.814-3.517 5.666-1.947 6.35.002.684 1.948-.153 6.484-1.454 6.606-.52.05-1.533-.433-2.512-1.253l-.078 4.887-4.009-.635L5.252 9.02z"/>
                    <path fill="#191847" d="M7.853 6.518c-.184 2.151.054 3.279.712 3.383.988.157 1.925-.335 2.358-.266.316.05.183.432-.073.69-.21.214-1.089.313-1.148.686-.059.373.652.19.617.41-.058.367-.05 1.073-.689.972-.646-.102-2.46-.63-2.627-1.634-.108-.648-.038-1.945.209-3.89a1.012 1.012 0 0 0-1.279.813c-.044.278.031.55.189.76-.284.289-.597.588-.95.892-1.014-.845-1.534-2.932-.143-4.637.448-.872 1.21-1.255 2.055-1.355.698-.169 1.382-.092 1.93.162 1.11.275 2.06.775 2.313 1.023-.168 1.06-.424 1.34-2.182 1.034-.47.159-.864.498-1.292.957z"/>
                </g>
            </g>
        </g>
        <g transform="translate(110 .5)">
            <g fill-rule="nonzero">
                <g fill="#FDE4E4">
                    <path d="M7.078 19.5a2.541 2.541 0 0 0-2.542 2.536c0 .921.496 1.729 1.234 2.173a2.535 2.535 0 0 0-1.234 2.173c0 .922.496 1.73 1.234 2.174a2.535 2.535 0 0 0-1.234 2.173c0 .922.496 1.73 1.234 2.174a2.535 2.535 0 0 0-1.234 2.173 2.541 2.541 0 0 0 2.542 2.536V19.5zM39.464 50l-10.67-10.645a2.17 2.17 0 0 1-.627-1.755l.622-6.146-1.237-9.937c-.122-.978-.95-1.737-1.938-1.727a1.925 1.925 0 0 0-1.908 1.923v16.913h-13.07l4.733 4.722a3.554 3.554 0 0 0 2.51 1.037c.942 0 1.845.373 2.51 1.038L24.977 50h14.487z"/>
                </g>
                <path fill="#FDD0D0" d="M28.841 39.365a2.098 2.098 0 0 1-.652-1.742l.647-6.102-1.286-9.864c-.127-.971-.988-1.725-2.016-1.715-1.097.011-1.983.862-1.983 1.91v26.822l7.531-7.174-2.241-2.135z"/>
                <path fill="#E4F7FF" d="M39.5 50l-8.618-8.399-7.331 7.145L24.837 50z"/>
            </g>
            <path fill="#000" fill-rule="nonzero" d="M23.42 6.96l-13.259.052c-1.625-.024-2.97 1.296-3.003 2.946L6.55 39.866c-.034 1.651 1.256 3.009 2.882 3.032l13.258-.052c1.625.024 2.97-1.295 3.004-2.946l.607-29.908c.033-1.65-1.257-3.008-2.883-3.032z"/>
            <path fill="#4B4B4B" d="M23.42 6.96l-13.259.052c-1.625-.024-2.97 1.296-3.003 2.946L6.55 39.866c-.034 1.651 1.256 3.009 2.882 3.032l13.258-.052c1.625.024 2.97-1.295 3.004-2.946l.607-29.908c.033-1.65-1.257-3.008-2.883-3.032z"/>
            <path fill="#FFF0BF" fill-rule="nonzero" d="M12.206 7.84a4.488 4.488 0 0 0-4.277 4.405L7.49 37.334a4.488 4.488 0 0 0 4.454 4.566l8.135.06a4.488 4.488 0 0 0 4.52-4.41l.439-25.088a4.488 4.488 0 0 0-3.992-4.54 1.35 1.35 0 0 1-1.306 1.023l-6.248.012a1.298 1.298 0 0 1-1.287-1.117z"/>
            <g fill-rule="nonzero">
                <path fill="#82CF71" d="M25.265.188c-3.804 0-6.887 3.074-6.887 6.866s3.083 6.866 6.887 6.866c3.803 0 6.886-3.074 6.886-6.866S29.068.188 25.265.188z"/>
                <path fill="#92BCC0" d="M21.98 11.532h-.538.539"/>
                <path fill="#AA2C2C" d="M21.46 11.593h-.001m-.96-1.936a2.907 2.907 0 0 1 0 0"/>
                <path fill="#CE2D2E" d="M15.22 4.084l3.216 2.13-3.657.18.442-2.31"/>
                <path fill="#3BBCDA" d="M16.397 7.557l1.861-.247-1.117 1.485-.744-1.238"/>
                <path fill="#F9CD24" d="M18.217 2.282l.63 1.763-1.689-.78 1.059-.983"/>
                <path fill="#3BBCDA" d="M33.842 12.03l-2.315-1.21 1.081 2.388 1.234-1.177"/>
                <path fill="#F9CD24" d="M25.622 14.627l-.28-1.91-1.331 1.484 1.61.426M34.221 8.543l-2.789.016 2.469 1.337.32-1.353"/>
                <path fill="#87B1B6" d="M28.623 5.555h-.616.616"/>
                <path fill="#3BBCDA" d="M18.93 1.04a.315.315 0 1 1 0-.629.315.315 0 0 1 0 .63zm0-.94a.628.628 0 1 0 0 1.255.628.628 0 0 0 0-1.255z"/>
                <path fill="#CE2D2E" d="M30.2 14.102a.336.336 0 1 1 0-.672.336.336 0 0 1 0 .672zm0-1.005a.67.67 0 1 0-.002 1.34.67.67 0 0 0 .002-1.34z"/>
                <path fill="#F9CD24" d="M16.357 2.766a.505.505 0 1 0-1.01.002.505.505 0 0 0 1.01-.002"/>
                <path fill="#3BBCDA" d="M18.425 11.34a.591.591 0 1 0-1.182.001.591.591 0 0 0 1.182-.002M36.661 9.537a.616.616 0 1 0-1.231.002.616.616 0 0 0 1.231-.002"/>
                <path fill="#CE2D2E" d="M36.947 5.41a.283.283 0 1 0-.567.001.283.283 0 0 0 .567 0"/>
                <path fill="#F9CD24" d="M33.146 1.622a.738.738 0 1 0-1.477.002.738.738 0 0 0 1.477-.002"/>
            </g>
            <path fill="#FFF" fill-rule="nonzero" d="M24.065 8.946l-1.543-1.555-.522.526L24.065 10 28.5 5.527 27.978 5z"/>
            <circle cx="6.187" cy="6.2" r="5.778" fill="#FFE17D" fill-rule="nonzero" transform="translate(10.5 15)"/>
            <g transform="translate(10.5 15)">
                <mask id="g" fill="#fff">
                    <use xlink:href="#f"/>
                </mask>
                <g fill-rule="nonzero" mask="url(#g)">
                    <path fill="#191847" d="M5.168 10.708a3.061 3.061 0 0 1-2.093-3.395l.39-2.464a3.06 3.06 0 0 1 5.91-.54c.06.11.11.283.15.54.24 1.514.3 5.978-.464 6.514l-3.896-.617c0-.013.002-.026.003-.038z"/>
                    <path fill="#D4A181" d="M4.647 7.184c-.505-.818-.785-1.765-.558-2.742.652-2.813 4.556-1.553 5.107.006.55 1.56-.119 5.188-1.166 5.285-.417.039-1.232-.347-2.02-1.004l-.06 3.91-3.224-.511 1.921-4.944z"/>
                    <path fill="#191847" d="M5.595 6.841c-.102 1.603-.447 3.397-.958 3.755L.741 9.979c.374-3.767 2.243-1.99 2.8-5.504.15-.106.294-.211.434-.3l.012-.104c.89-1.26 1.855-1.808 2.892-1.643 1.556.246 1.934 1.04 2.256 1.715-.481 1.012-1.72.977-2.903 1.468a.75.75 0 0 0-1.294.377.744.744 0 0 0 .657.853z"/>
                </g>
            </g>
            <rect width="12" height="1" x="10.5" y="29" fill="#FFE17D" fill-rule="nonzero" rx=".5"/>
            <rect width="12" height="1" x="10.5" y="31" fill="#FFE17D" fill-rule="nonzero" rx=".5"/>
            <rect width="12" height="1" x="10.5" y="32.5" fill="#FFE17D" fill-rule="nonzero" rx=".5"/>
        </g>
        <g>
            <path fill="#FFF" fill-rule="nonzero" d="M220.062 3.322c-4.737 0-8.577 3.866-8.577 8.637 0 4.77 3.84 8.637 8.577 8.637s8.576-3.867 8.576-8.637c0-4.77-3.84-8.637-8.576-8.637z"/>
            <path fill="#92BCC0" fill-rule="nonzero" d="M215.972 17.591h-.672.672"/>
            <path fill="#AA2C2C" fill-rule="nonzero" d="M214.126 15.232999999999999a3.618 3.618 0 0 1 0 0"/>
            <path fill="#CE2D2E" fill-rule="nonzero" d="M207.552 8.223l4.005 2.68-4.555.227.55-2.907"/>
            <path fill="#3BBCDA" fill-rule="nonzero" d="M209.017 12.592l2.318-.311-1.391 1.867-.927-1.556"/>
            <path fill="#F9CD24" fill-rule="nonzero" d="M211.283 5.956l.785 2.218-2.103-.981 1.318-1.237"/>
            <path fill="#3BBCDA" fill-rule="nonzero" d="M230.745 18.22l-2.883-1.524 1.347 3.005 1.536-1.482"/>
            <path fill="#F9CD24" fill-rule="nonzero" d="M220.507 21.485l-.348-2.402-1.659 1.866 2.007.536M231.217 13.832l-3.473.02 3.074 1.682.4-1.702"/>
            <path fill="#87B1B6" fill-rule="nonzero" d="M224.245 10.073h-.767.767"/>
            <path fill="#3BBCDA" fill-rule="nonzero" d="M212.173 4.395A.394.394 0 0 1 211.78 4c0-.219.176-.396.393-.396.217 0 .392.177.392.396a.394.394 0 0 1-.392.395zm0-1.184a.786.786 0 0 0-.783.789c0 .435.35.788.783.788a.786.786 0 0 0 .783-.788.786.786 0 0 0-.783-.79z"/>
            <path fill="#CE2D2E" fill-rule="nonzero" d="M226.21 20.824a.42.42 0 0 1-.42-.422.42.42 0 0 1 .42-.422.42.42 0 0 1 .418.422.42.42 0 0 1-.419.422zm0-1.264a.839.839 0 0 0-.837.842c0 .465.375.842.836.842a.839.839 0 0 0 .837-.842.839.839 0 0 0-.837-.842z"/>
            <path fill="#F9CD24" fill-rule="nonzero" d="M208.967 6.565a.632.632 0 0 0-.63-.634.632.632 0 0 0-.629.634c0 .35.282.634.63.634.348 0 .63-.284.63-.634"/>
            <path fill="#3BBCDA" fill-rule="nonzero" d="M211.543 17.35a.74.74 0 0 0-.737-.743.74.74 0 0 0-.737.742c0 .41.33.743.737.743a.74.74 0 0 0 .737-.743M234.256 15.083a.77.77 0 0 0-.767-.774.77.77 0 0 0-.768.774.77.77 0 0 0 .768.773.77.77 0 0 0 .767-.773"/>
            <path fill="#CE2D2E" fill-rule="nonzero" d="M234.612 9.892a.354.354 0 0 0-.353-.356.355.355 0 0 0-.353.356c0 .196.158.355.353.355.195 0 .353-.159.353-.355"/>
            <path fill="#F9CD24" fill-rule="nonzero" d="M233.73 4.616a.924.924 0 0 0-.922-.928.924.924 0 0 0-.921.928c0 .512.412.927.921.927a.924.924 0 0 0 .921-.927"/>
            <text fill="#CE4649" font-family="ProximaNova-Semibold, Proxima Nova" font-size="8" font-weight="500" transform="translate(215 7.5)">
                <tspan x=".369" y="7.052">30</tspan>
            </text>
            <g fill-rule="nonzero">
                <path fill="#EE5B2D" d="M226.022 47.7a17.273 17.273 0 0 1-6.162-6.21c.25-1.739.698-3.443 1.335-5.079.132-.41.386-.77.728-1.03a14.468 14.468 0 0 1 8.128-2.454 9.996 9.996 0 0 0 10.577.54.726.726 0 0 0 .361-.761c1.189.27 2.377.515 3.567.785 1.27.227 2.493.675 3.612 1.325 1.674 1.104 2.935 2.454 2.718 4.712-.029.4-.02.803.024 1.202-2.404 4.59-6.679 7.883-11.693 9.006-3.002.75-6.15.649-9.097-.294.384-.566-3.491-2.012-4.098-1.742z"/>
                <path fill="#12ADC5" d="M230.025 32.925a14.583 14.583 0 0 0-8.128 2.453c-.342.26-.596.62-.728 1.031a24.069 24.069 0 0 0-1.334 5.08 15.607 15.607 0 0 1-2.45-6.944c-.922-8.171 2.838-15.116 10.067-18.797.073 1.251-.072 2.527.362 3.754-.51.098-1.092.294-.97.908.24 1.252.533 2.528 1.745 3.264.514.267.847.79.874 1.374a5.144 5.144 0 0 0 1.77 3.828c.612.423.773 1.265.362 1.888-.155.372-.397.7-.703.957-.377.328-.674.74-.867 1.204zM250.84 40.73c0-.393-.05-.81-.025-1.202.219-2.233-1.043-3.608-2.717-4.712a11.058 11.058 0 0 0-3.613-1.325c-1.188-.27-2.377-.515-3.566-.785-.534-.712-1.31-1.227-1.626-2.11a.937.937 0 0 1 .339-1.225 5.633 5.633 0 0 0 2.329-4.49c.01-.35.149-.682.388-.933a9.014 9.014 0 0 0 1.795-2.92c.362-1.252.292-1.424-.824-2.111.096-.908.218-1.791.315-2.7 4.783 2.543 8.133 7.182 9.073 12.565.815 4.08.152 8.321-1.869 11.948z"/>
                <path fill="#1F2220" d="M243.634 16.215c-.097.908-.218 1.791-.315 2.7a5.01 5.01 0 0 0-.631 1.742 2.857 2.857 0 0 1-.873 1.523c-.655-1.178-.413-2.332-.219-3.485.34-.122.316-.27.05-.466a4.395 4.395 0 0 1 .023-.565c.12.05.17.024.17-.122 0-.172-.024-.343-.24-.365-.39-1.154-.923-1.595-2.087-1.497-2.628.205-5.27.139-7.885-.196-1.577-.172-2.207.441-2.256 2.036-.024.982.073 1.963.097 2.945a3.954 3.954 0 0 1-.315 1.791c-.534-.908-.728-1.914-1.31-2.748-.413-1.228-.267-2.504-.362-3.755.05-.59.024-1.203.12-1.791.486-2.798 2.233-4.516 5.192-5.177a12.587 12.587 0 0 1 5.968.073c3.032.76 4.73 2.896 4.804 6.037.02.437.07.88.07 1.32z"/>
                <path fill="#FFF" d="M233.252 43.385c-1.528.244-3.08.49-4.609.711-.728.098-1.512-.171-1.463-.957.107-.651.08-1.13.056-1.84 0-1.104.049-2.209.024-3.313 0-.54.194-.711.704-.711 1.505.024 3.032.024 4.536 0 .558 0 .728.196.728.76 0 1.767.024 3.559.024 5.35z"/>
                <path fill="#1D3D6D" d="M232.735 43.385c-1.528.244-2.564.49-4.092.711-.728.098-.994-.171-.946-.957.107-.651.08-1.13.057-1.84 0-1.104.048-1.689.024-2.793 0-.54.193-.711.703-.711 1.505.024 1.997.024 3.501 0 .559 0 .728.196.728.76.001 1.767.025 3.039.025 4.83z"/>
                <path fill="#FCCBB5" d="M226.02 47.7c.606-.27.533-.761.315-1.203a4.342 4.342 0 0 1-.17-3.214c.195-.737.389-1.497.583-2.233.392.504.718 1.056.97 1.644.17.366.389.639.825.614a3.746 3.746 0 0 0 1.65.122h.631c.776-.098 1.577-.197 2.353-.32.291.074.534-.098.8-.196.171-.004.341.004.51.025.31 0 .579.212.655.515.101.272 0 .578-.24.736a2.185 2.185 0 0 0-.971 2.11c-.024 1.401-.752 2.111-2.16 2.258a2.065 2.065 0 0 0-1.697.909 16.142 16.142 0 0 1-4.054-1.767zM227.817 19.528c.582.81.776 1.817 1.31 2.749a3.56 3.56 0 0 0 .316-1.791c-.024-.982-.12-1.963-.097-2.945.049-1.595.703-2.209 2.256-2.037 2.616.323 5.256.389 7.884.196 1.164-.098 1.698.32 2.086 1.497.024.172.049.32.073.491.004.189-.004.377-.024.565a3.04 3.04 0 0 0-.049.466c-.17 1.154-.412 2.332.219 3.485a2.77 2.77 0 0 0 .873-1.523c.1-.615.314-1.207.63-1.742 1.117.687 1.19.859.826 2.11a9.014 9.014 0 0 1-1.796 2.92c-.24.252-.378.584-.388.933a5.67 5.67 0 0 1-2.329 4.49.931.931 0 0 0-.34 1.228c.316.883 1.092 1.4 1.626 2.11a.726.726 0 0 1-.361.761 9.996 9.996 0 0 1-10.577-.54c.198-.461.507-.866.897-1.178.307-.257.549-.585.704-.956a1.425 1.425 0 0 0-.362-1.889 5.06 5.06 0 0 1-1.77-3.827 1.57 1.57 0 0 0-.873-1.374c-1.214-.737-1.506-2.01-1.746-3.264-.08-.64.503-.837 1.012-.935zm11.79.516c-.995-.884-1.917-.909-2.741.121a4.794 4.794 0 0 1 2.741-.121zm-3.64 6.06c-.824 0-1.625.025-2.45 0-.63-.023-.678.197-.411.688a3.273 3.273 0 0 0 2.957 1.67 3.28 3.28 0 0 0 2.84-1.866c.22-.417.025-.467-.339-.467-.874-.024-1.747-.024-2.596-.024zm-4.438-5.889a6.26 6.26 0 0 1 2.474-.319c-.897-.736-1.674-.636-2.474.32zm1.94.663a.554.554 0 0 0-.533-.393c-.291 0-.583.05-.631.393-.024.32.266.417.51.417.14.034.29.01.414-.069a.548.548 0 0 0 .24-.348zm5.434-.024a.555.555 0 0 0-.63-.344c-.268.024-.534.122-.534.417.024.344.34.418.606.393.267-.024.51-.123.559-.467z"/>
                <path fill="#221308" d="M241.67 17.663c-.025-.171-.05-.319-.074-.49.219.024.241.196.241.365 0 .15-.047.2-.168.125zM241.596 18.694a3.04 3.04 0 0 0 .05-.467c.266.172.29.344-.05.467z"/>
                <path fill="#EE5B2D" d="M235.968 26.105h2.594c.34 0 .533.05.34.466a3.111 3.111 0 0 1-2.839 1.865 3.072 3.072 0 0 1-2.96-1.668c-.266-.491-.193-.712.413-.687.802.048 1.627.024 2.452.024z"/>
                <path fill="#1F2220" d="M239.607 20.043a4.794 4.794 0 0 0-2.741.122c.824-1.006 1.746-1.006 2.741-.122z"/>
                <path fill="#221308" d="M231.529 20.215c.824-.957 1.577-1.056 2.474-.32a5.751 5.751 0 0 0-2.474.32zM233.47 20.878a.548.548 0 0 1-.242.348.537.537 0 0 1-.414.07c-.24-.025-.533-.123-.51-.418.05-.32.34-.393.632-.393a.533.533 0 0 1 .533.393zM238.904 20.853c-.049.365-.292.442-.534.467-.291.024-.606-.074-.606-.393-.024-.294.267-.393.533-.418.26-.06.522.089.607.344z"/>
                <path fill="#1F2220" d="M239.607 20.044l.024.024-.024-.024z"/>
                <path fill="#899824" d="M232.79 39.013l.073.147c-.049-.024-.12-.024-.17-.05.024-.024.073-.048.097-.097z"/>
            </g>
            <g fill-rule="nonzero">
                <g transform="translate(223.5)">
                    <ellipse cx="5.5" cy="5.75" fill="#FFE17D" stroke="#CE4649" stroke-width=".517" rx="5.242" ry="5.492"/>
                    <path fill="#FFD164" d="M1.937 3.907c-1.119 1.779-.889 4.134.551 5.64 1.44 1.505 3.694 1.746 5.395.576a.168.168 0 0 0 .066-.172.161.161 0 0 0-.129-.128c-2.872-.494-5.123-2.847-5.596-5.85a.162.162 0 0 0-.122-.136.155.155 0 0 0-.165.07z"/>
                    <path fill="#CE4649" stroke="#CE4649" stroke-width=".5" d="M3.186 5.213l-.382.6h1.603v1.293h-1.22l-.383.6h1.603V8.89h.738V7.706h1.569l.3-.6h-1.87V5.813H6.78c.927 0 1.503-.68 1.498-1.576-.004-.896-.586-1.58-1.498-1.58H4.407v2.556h-1.22z"/>
                    <path fill="#FFE17D" d="M5.342 3.455v1.561h1.362c1.034 0 1.037-1.561 0-1.561H5.342z"/>
                </g>
            </g>
        </g>
    </g>
</svg>
