<svg xmlns="http://www.w3.org/2000/svg" width="41" height="41" viewBox="0 0 41 41">
    <path fill="#C5CFFF" fill-rule="nonzero" d="M20.336 0C9.105 0 0 9.105 0 20.336c0 11.231 9.105 20.336 20.336 20.336 11.231 0 20.336-9.105 20.336-20.336C40.639 9.118 31.553.033 20.336 0zm7.116 12.201a3.126 3.126 0 0 1 3.053 3.05 3.05 3.05 0 1 1-3.05-3.05h-.003zm-14.235 0a3.126 3.126 0 0 1 3.058 3.05 3.126 3.126 0 0 1-3.055 3.05 3.05 3.05 0 0 1 0-6.1h-.003zm7.119 20.349a12.114 12.114 0 0 1-11.387-8.137h22.777a12.114 12.114 0 0 1-11.39 8.137z"/>
</svg>
