<svg xmlns="http://www.w3.org/2000/svg" viewBox="3246 -21528 188 188">
  <defs>
    <style>
      .cls-1 {
        fill: #f5f5f5;
        stroke: #efeded;
      }

      .cls-2 {
        opacity: 0.28;
      }

      .cls-3 {
        stroke: none;
      }

      .cls-4 {
        fill: none;
      }
    </style>
  </defs>
  <g id="Stumps_nomatch" transform="translate(3160 -21790)">
    <g id="Ellipse_291" data-name="Ellipse 291" class="cls-1" transform="translate(86 262)">
      <circle class="cls-3" cx="94" cy="94" r="94"/>
      <circle class="cls-4" cx="94" cy="94" r="93.5"/>
    </g>
    <g id="wicket" class="cls-2" transform="translate(15.312 305)">
      <g id="Group_2156" data-name="Group 2156" transform="translate(142.688)">
        <g id="Group_2155" data-name="Group 2155" transform="translate(0)">
          <path id="Path_1395" data-name="Path 1395" d="M149.534,67.148h-3.423a3.433,3.433,0,0,0-3.423,3.423v68.462c0,.051.017.069.017.12v.1l1.763,14.1a.855.855,0,0,0,.034.205,3.425,3.425,0,0,0,6.641,0,.856.856,0,0,0,.034-.205l1.763-14.1v-.1c0-.051.017-.069.017-.12V70.571A3.433,3.433,0,0,0,149.534,67.148Zm-1.711,85.474-1.489-11.878h2.978Zm1.711-66.648h-3.423V82.552h3.423Z" transform="translate(-142.688 -53.456)"/>
          <path id="Path_1396" data-name="Path 1396" d="M233.469,67.148h-3.423a3.433,3.433,0,0,0-3.423,3.423v68.462c0,.051.017.069.017.12v.1l1.763,14.1a.855.855,0,0,0,.034.205,3.425,3.425,0,0,0,6.641,0,.856.856,0,0,0,.034-.205l1.763-14.1v-.1c0-.051.017-.069.017-.12V70.571A3.433,3.433,0,0,0,233.469,67.148Zm-1.712,85.474-1.489-11.878h2.978Zm1.712-66.648h-3.423V82.552h3.423Z" transform="translate(-209.507 -53.456)"/>
          <path id="Path_1397" data-name="Path 1397" d="M317.4,67.148H313.98a3.433,3.433,0,0,0-3.423,3.423v68.462c0,.051.017.069.017.12v.1l1.763,14.1a.856.856,0,0,0,.034.205,3.425,3.425,0,0,0,6.641,0,.856.856,0,0,0,.034-.205l1.763-14.1v-.1c0-.051.017-.069.017-.12V70.571A3.433,3.433,0,0,0,317.4,67.148Zm-1.711,85.474L314.2,140.744h2.978ZM317.4,85.975H313.98V82.552H317.4Z" transform="translate(-276.326 -53.456)"/>
          <path id="Path_1398" data-name="Path 1398" d="M183.456,6.85h2.021a1.711,1.711,0,1,0,0-3.423h-2.018v0A5.135,5.135,0,0,0,178.631,0h-6.846a5.136,5.136,0,0,0-4.827,3.423v0h-4.036v0A5.135,5.135,0,0,0,158.093,0h-6.846a5.135,5.135,0,0,0-4.826,3.423H144.4a1.711,1.711,0,1,0,0,3.423h2.02a5.112,5.112,0,0,0,4.826,3.423h6.846a5.112,5.112,0,0,0,4.825-3.419h4.042a5.112,5.112,0,0,0,4.825,3.419h6.846A5.112,5.112,0,0,0,183.456,6.85Zm-3.113-1.716a1.711,1.711,0,0,1-1.711,1.711,1.711,1.711,0,1,0,0-3.423A1.712,1.712,0,0,1,180.343,5.135Zm-20.538,0c0-.055,0-.108-.009-.162a.468.468,0,0,1,.009.111Zm-.3-.969a.129.129,0,0,1,.02.031Zm.272.649c0,.019.007.037.009.056C159.778,4.853,159.776,4.834,159.773,4.815Zm-.208-.553a.369.369,0,0,0,.051.086c.01.024.019.048.028.072a1.68,1.68,0,0,0-.093-.173.015.015,0,0,1,.008,0A.016.016,0,0,1,159.565,4.262Zm-.174-.238c-.015-.018-.031-.034-.047-.051.01.011.023.021.033.033Zm-.135-.14-.033-.03.018.014C159.245,3.873,159.249,3.879,159.255,3.884Zm-1-.452a1.657,1.657,0,0,0-.166-.009C158.149,3.423,158.2,3.426,158.259,3.432Zm.878.352-.044-.033Zm-.128-.091-.051-.031Zm-.138-.079-.056-.027Zm-.145-.066-.063-.023Zm-.151-.053-.073-.019Zm-.156-.039c-.031-.006-.063-.01-.095-.015C158.357,3.446,158.389,3.45,158.42,3.456Zm11.705,2.09c-.017-.017-.017-.017-.017-.034a2.1,2.1,0,0,1-.034-.342V5.135a1.7,1.7,0,0,0,.186.772.815.815,0,0,0-.049-.087A1.272,1.272,0,0,1,170.125,5.545Zm.529.871,0,0h0Z" transform="translate(-142.689)"/>
        </g>
      </g>
    </g>
  </g>
</svg>
