<?xml version="1.0" encoding="UTF-8"?>
<svg width="40px" height="40px" viewBox="0 0 40 40" version="1.1" xmlns="http://www.w3.org/2000/svg" xmlns:xlink="http://www.w3.org/1999/xlink">
    <!-- Generator: Sketch 54.1 (76490) - https://sketchapp.com -->
    <title>xhdpi/Uganda</title>
    <desc>Created with Sketch.</desc>
    <g id="Cricket" stroke="none" stroke-width="1" fill="none" fill-rule="evenodd">
        <g id="Country-flags" transform="translate(-97.000000, -27.000000)">
            <g id="Uganda" transform="translate(97.000000, 27.000000)">
                <g id="Flag_of_Uganda" transform="translate(0.000000, 6.000000)" fill-rule="nonzero">
                    <rect id="Rectangle" fill="#000000" x="0" y="0" width="40" height="27"></rect>
                    <rect id="Rectangle" fill="#FCDC04" x="0" y="4.5" width="40" height="9"></rect>
                    <rect id="Rectangle" fill="#D90000" x="0" y="9" width="40" height="4.5"></rect>
                    <rect id="Rectangle" fill="#FCDC04" x="0" y="18" width="40" height="9"></rect>
                    <rect id="Rectangle" fill="#D90000" x="0" y="22.5" width="40" height="4.5"></rect>
                    <ellipse id="Oval" fill="#FFFFFF" cx="20" cy="13.5" rx="4.15555556" ry="4.2075"></ellipse>
                    <g id="Group" transform="translate(18.311111, 9.585000)">
                        <path d="M0.956458222,0.6925779 L0.686930222,0.18991485 C0.790936444,0.084609 0.965916444,0.0032076 1.24486667,0.0032076 C1.24486667,0.02236095 1.21649156,0.55375335 1.21649156,0.55375335 L0.956458222,0.6925779 Z" id="Path" stroke="#000000" stroke-width="0.5" fill="#D90000"></path>
                        <path d="M1.21649156,0.5585418 L1.25432489,0.0032076 C1.25432489,0.0032076 1.81226133,-0.0302742 2.11485778,0.33831585 C2.11958667,0.33352785 1.81699067,0.76915395 1.81699067,0.76915395 L1.21649156,0.5585418 Z" id="Path" stroke="#000000" stroke-width="0.5" fill="#FCDC04"></path>
                        <path d="M1.82644889,0.76436595 L2.10067022,0.33352785 C2.28507244,0.529812 2.36070356,0.6686361 2.38907867,0.87928515 C2.393808,0.8840736 1.95410133,0.9893799 1.95410133,0.98459145 C1.95410133,0.979803 1.83117822,0.76915395 1.82644889,0.76436595 Z" id="Path" stroke="#000000" stroke-width="0.5" fill="#D90000"></path>
                        <path d="M1.09356844,7.8782931 C1.09356844,7.8782931 1.60894222,7.2798642 2.61131467,7.4091483 C2.46001644,7.160193 1.97301778,7.1889228 1.97301778,7.1889228 C1.97301778,7.1889228 1.82172,6.0256197 1.93991378,5.9681601 C2.05810711,5.9107005 2.55929333,5.97294855 2.55929333,5.97294855 C2.62546622,5.97294855 2.73896667,5.7910293 2.649148,5.67614655 C2.55929333,5.5612269 2.29453067,5.12081235 2.40326622,5.03462295 C2.51203778,4.94847 3.10304222,5.08250565 3.10304222,5.08250565 L1.43399822,2.9186658 C1.43399822,2.9186658 1.26378356,2.1048363 1.60421289,1.712268 C2.01558089,1.36758285 1.97301778,0.9941679 1.95883022,0.99895635 C1.90208,0.62075295 1.33472133,0.3478563 0.951728889,0.6973659 C0.724763556,0.975015 0.876061778,1.1856636 0.876061778,1.1856636 C0.876061778,1.1856636 0.280328,1.3484295 0.256681778,1.4537358 C0.233036,1.55907855 0.928082667,1.43461935 0.928082667,1.43461935 L0.861874222,1.9181286 C0.861874222,1.9181286 -0.490386222,3.1627962 0.545090222,4.23994635 C0.554548889,4.2351579 0.578194667,4.1920632 0.578194667,4.1920632 C0.578194667,4.1920632 0.942270222,4.64687955 1.32522667,4.7473974 C1.68457333,5.12081235 1.65150489,5.06335275 1.65150489,5.06335275 C1.65150489,5.06335275 1.72240667,5.65220475 1.65623422,5.7670875 C1.56637956,5.7383577 0.649132444,5.70487635 0.511986222,5.75751105 C0.389063111,5.79581775 -0.083748,5.77187595 0.0344457778,6.5522241 C0.124264444,6.34157505 0.204660889,6.15486735 0.204660889,6.15486735 C0.204660889,6.15486735 0.190473333,6.43730445 0.303973778,6.5378592 C0.285056889,6.24102075 0.412708889,6.0399846 0.412708889,6.0399846 C0.412708889,6.0399846 0.436355111,6.3655164 0.507256889,6.4133631 C0.578194667,6.46124625 0.578194667,5.8867587 0.970645778,5.93464185 C1.36306044,5.982525 1.646776,5.9681601 1.646776,5.9681601 C1.646776,5.9681601 1.77915733,7.0931565 1.73659422,7.19849925 C1.45287867,7.1314632 0.776784889,7.22722905 0.734222222,7.39957185 C1.13136578,7.37563005 1.31580444,7.42347675 1.31580444,7.42347675 C1.31580444,7.42347675 0.994291556,7.71073875 1.09356844,7.8782931 Z" id="Path" stroke="#000000" stroke-width="0.5" fill="#000000"></path>
                        <path d="M1.25295333,1.73971845 C1.25295333,1.73971845 0.268992,2.83781295 0.693500444,3.67810605 C0.716099556,3.56092065 0.706244,3.4873047 0.720431556,3.49209315 C0.696785778,3.47772825 0.842452,3.593196 0.831368889,3.57071625 C0.834473778,3.50996715 0.787001333,3.3797691 0.787001333,3.3797691 C0.831368889,3.3909903 0.875772889,3.4022484 0.920140889,3.4134696 C0.894256444,3.36478275 0.868336,3.3161319 0.842452,3.2674446 C0.905339556,3.274938 0.968190667,3.2823945 1.03107822,3.28988745 C1.03107822,3.28988745 0.964508444,3.1101615 0.986710222,3.1101615 C1.00887644,3.1101615 1.14201556,3.12138315 1.14201556,3.12138315 C0.862199111,2.61294525 1.12616756,2.19069675 1.25295333,1.73971845 Z" id="Path" stroke="#9CA69C" stroke-width="0.5" fill="#9CA69C"></path>
                        <path d="M1.59475467,0.79788375 C1.59475467,0.79788375 1.646776,1.17608715 1.44345644,1.2861819 C1.41035244,1.31012325 1.2827,1.35321795 1.30161689,1.4298309 C1.32526267,1.5351372 1.38197689,1.51598385 1.46237333,1.4968305 C1.67511467,1.45852425 1.92099689,0.99895635 1.59475467,0.79788375 Z" id="Path" stroke="#9CA69C" stroke-width="0.5" fill="#9CA69C"></path>
                        <ellipse id="Oval" fill="#FFFFFF" cx="1.15555556" cy="1.125" rx="1" ry="1"></ellipse>
                        <path d="M0.913895111,1.4393709 C0.861874222,1.4824656 0.587653333,1.7697276 0.857144889,1.8750339 C1.13613111,1.79842095 1.060464,1.74578625 1.12194356,1.6835382 C1.123532,1.55429055 0.983244889,1.5207723 0.913895111,1.4393709 Z" id="Path" stroke="#000000" stroke-width="0.5" fill="#D90000"></path>
                        <path d="M1.50962933,4.1537934 C1.49544178,4.21604145 1.43399822,4.44580695 1.51908756,4.62293775 C1.75551111,4.5224199 1.86424667,4.55111325 1.94464267,4.60378485 C1.75081822,4.44580695 1.67515111,4.3787709 1.50962933,4.1537934 Z" id="Path" stroke="#9CA69C" stroke-width="0.5" fill="#9CA69C"></path>
                        <path d="M1.91626756,5.24048355 L1.93045511,5.7766644 C1.93045511,5.7766644 2.11485778,5.81018265 2.19994711,5.7766644 C2.28507244,5.74314615 2.19521778,5.40324945 1.91626756,5.24048355 Z" id="Path" stroke="#FFFFFF" stroke-width="0.5" fill="#FFFFFF"></path>
                        <path d="M3.25434044,5.3075196 C3.25434044,5.3075196 2.91391067,4.47453675 2.04391956,4.26388815 C1.17392889,4.0532391 1.28739333,3.11494995 1.35833111,3.05749035 C1.39616489,2.97608895 1.42454,2.8516293 1.67511467,2.97133695 C1.92572578,3.09100815 3.07939644,3.67982415 3.24488222,3.70855395 C3.41036756,3.73728375 3.268528,5.32667295 3.25434044,5.3075196 Z" id="Path" stroke="#000000" stroke-width="0.5" fill="#9CA69C"></path>
                        <path d="M2.426912,4.2590997 C2.41272444,4.26867615 3.59004089,4.962798 3.23542356,5.5612269 C3.57116044,5.33621295 3.46238889,4.94368155 3.46238889,4.94368155 C3.46238889,4.94368155 3.73660978,5.66656965 3.06993822,6.0208317 C3.140876,6.0830793 3.188168,6.06867795 3.188168,6.06867795 L3.07466711,6.1835976 C3.07466711,6.1835976 3.02264622,6.26975055 3.47184711,6.0495246 C3.34888844,6.15007935 3.33946578,6.2218674 3.33946578,6.2218674 C3.33946578,6.2218674 3.37253422,6.31763325 3.665708,6.0591015 C3.42928444,6.31763325 3.37726356,6.45166935 3.37726356,6.44688135 C4.01556,6.38942175 5.40565422,4.2878295 2.93755689,3.66545925 C3.06997422,3.8043198 3.05102133,3.7851669 3.05102133,3.7851669 L2.426912,4.2590997 Z" id="Path" stroke="#000000" stroke-width="0.5" fill="#D90000"></path>
                        <path d="M2.47893333,4.0532391 C2.63968978,4.16812185 2.696404,4.2064281 2.71532089,4.26388815 C2.568752,4.23040635 2.43637067,4.23994635 2.43637067,4.23994635 C2.43637067,4.23994635 2.11958667,3.9335679 2.06283644,3.9096261 C2.02027378,3.9096261 1.774428,3.75164865 1.774428,3.75164865 C1.65150489,3.6894006 1.53804044,3.2585625 1.99193467,3.38302215 C2.45998044,3.6079992 2.52618933,3.627189 2.52618933,3.627189 C2.71218,3.68622045 2.89813467,3.7452888 3.08412578,3.8043198 C3.19130844,3.9255993 3.29845556,4.0468788 3.40563867,4.1681583 C3.40563867,4.1681583 2.83355067,3.8808963 2.76261289,3.8761083 C2.91864,4.00535595 3.00849467,4.18248675 3.00849467,4.18248675 C2.82723289,4.12981515 2.66965333,4.0819689 2.47893333,4.0532391 Z" id="Path" stroke="#000000" stroke-width="0.5" fill="#FFFFFF"></path>
                        <path d="M0.251952444,1.4824656 C0.251952444,1.4824656 0.800430667,1.3484295 0.866603556,1.36758285" id="Path" stroke="#FFFFFF" stroke-width="0.5" fill="#000000"></path>
                    </g>
                </g>
                <rect id="Rectangle" x="0" y="0" width="40" height="40"></rect>
            </g>
        </g>
    </g>
</svg>