<?xml version="1.0" encoding="UTF-8"?>
<svg width="40px" height="40px" viewBox="0 0 40 40" version="1.1" xmlns="http://www.w3.org/2000/svg" xmlns:xlink="http://www.w3.org/1999/xlink">
    <!-- Generator: Sketch 54.1 (76490) - https://sketchapp.com -->
    <title>xhdpi/Others</title>
    <desc>Created with Sketch.</desc>
    <g id="Cricket" stroke="none" stroke-width="1" fill="none" fill-rule="evenodd">
        <g id="Country-flags" transform="translate(-129.000000, -304.000000)">
            <g id="Others" transform="translate(129.000000, 304.000000)">
                <g id="NZL">
                    <rect id="Rectangle" stroke="#EDEDED" stroke-width="0.5" fill="#FFFFFF" x="0.25" y="7.25" width="39.5" height="25.5"></rect>
                    <rect id="Rectangle" x="0" y="0" width="40" height="40"></rect>
                </g>
                <g id="noun_Cricket_1394494" transform="translate(12.000000, 9.000000)" fill="#69BFD0" fill-rule="nonzero">
                    <g id="Group">
                        <path d="M0.137931034,19.495 L2.22413793,19.495 L2.22413793,0.1575 L0.137931034,0.1575 L0.137931034,19.495 Z M0.827586207,0.8575 L1.53448276,0.8575 L1.53448276,18.795 L0.827586207,18.795 L0.827586207,0.8575 Z" id="Shape"></path>
                        <path d="M19.6896552,0.9975 L19.0344828,0.35 C18.9137931,0.245 18.7758621,0.175 18.6034483,0.175 C18.4482759,0.175 18.2931034,0.245 18.1896552,0.3675 L13.5344828,5.25 L12.0689655,3.7975 L9.06896552,6.9475 L9.06896552,0.1575 L6.96551724,0.1575 L6.96551724,9.1525 L5.63793103,10.535 L5.63793103,0.1575 L3.55172414,0.1575 L3.55172414,12.74 L3.01724138,13.3 C2.4137931,13.93 2.43103448,14.945 3.05172414,15.5575 L3.55172414,16.0475 L3.55172414,19.5125 L5.63793103,19.5125 L5.63793103,18.0075 C5.86206897,18.1125 6.10344828,18.1825 6.34482759,18.1825 C6.36206897,18.1825 6.36206897,18.1825 6.37931034,18.1825 C6.5862069,18.1825 6.79310345,18.13 6.96551724,18.06 L6.96551724,19.53 L9.05172414,19.53 L9.05172414,16.0125 L16.5172414,8.1725 L15.0344828,6.72 L19.6896552,1.8375 C19.9310345,1.61 19.9310345,1.225 19.6896552,0.9975 Z M7.65517241,0.8575 L8.36206897,0.8575 L8.36206897,7.6825 L7.65517241,8.435 L7.65517241,0.8575 Z M4.24137931,0.8575 L4.94827586,0.8575 L4.94827586,11.27 L4.24137931,12.0225 L4.24137931,0.8575 Z M4.24137931,18.795 L4.24137931,16.7125 L4.94827586,17.4125 L4.94827586,18.795 L4.24137931,18.795 Z M8.36206897,18.795 L7.65517241,18.795 L7.65517241,17.4825 L8.36206897,16.73 L8.36206897,18.795 Z M7.01724138,17.15 L6.96551724,17.15 L6.96551724,17.2025 C6.81034483,17.36 6.5862069,17.4475 6.36206897,17.465 C6.12068966,17.465 5.89655172,17.3775 5.72413793,17.22 L3.53448276,15.05 C3.18965517,14.7 3.17241379,14.14 3.51724138,13.7725 L12.0689655,4.7775 L15.5344828,8.19 L7.01724138,17.15 Z M14.6724138,6.125 L14.1551724,5.6175 L18.637931,0.9275 L19.1551724,1.435 L14.6724138,6.125 Z" id="Shape"></path>
                        <path d="M12.1551724,15.8025 C10.7931034,15.8025 9.67241379,16.94 9.67241379,18.3225 C9.67241379,19.705 10.7931034,20.8425 12.1551724,20.8425 C13.5172414,20.8425 14.637931,19.705 14.637931,18.3225 C14.637931,16.94 13.5344828,15.8025 12.1551724,15.8025 Z M12.1551724,20.1425 C11.1724138,20.1425 10.362069,19.32 10.362069,18.3225 C10.362069,17.325 11.1724138,16.5025 12.1551724,16.5025 C13.137931,16.5025 13.9482759,17.325 13.9482759,18.3225 C13.9482759,19.32 13.1551724,20.1425 12.1551724,20.1425 Z" id="Shape"></path>
                    </g>
                </g>
            </g>
        </g>
    </g>
</svg>